<?xml version="1.0" standalone="no"?>
<!DOCTYPE svg PUBLIC "-//W3C//DTD SVG 1.1//EN" "http://www.w3.org/Graphics/SVG/1.1/DTD/svg11.dtd" >
<svg xmlns="http://www.w3.org/2000/svg" xmlns:xlink="http://www.w3.org/1999/xlink" version="1.1">
<metadata>
Created by FontForge 20190801 at Tue Jan  8 22:50:15 2019
 By Jimmy Wärting
Maison Neue is the thoroughly reworked version of our early Maison typeface family. While the original version was constructed on geometric principles, Maison Neue has now been meticulously redrawn and extended. Paying particular attention to harmony, rhythm and flow, the new typeface also accounts for up-to-date display and reproduction technologies to create a distinctly contemporary grotesque, with a classic touch. The whole family contains 40 styles thus far; each includes an extended Latin character set and a variety of OpenType features.
</metadata>
<defs>
<font id="MaisonNeue-Bold" horiz-adv-x="650" >
  <font-face 
    font-family="Maison Neue"
    font-weight="700"
    font-stretch="normal"
    units-per-em="1000"
    panose-1="2 11 8 4 4 0 0 0 0 0"
    ascent="730"
    descent="-270"
    x-height="530"
    cap-height="700"
    bbox="-662 -300 2077 1061"
    underline-thickness="100"
    underline-position="-120"
    unicode-range="U+000D-FEFF"
  />
<missing-glyph horiz-adv-x="698" 
d="M50 -5v423c0 171 131 292 292 292c161 2 297 -123 294 -292v-423h-28l-65 65l-68 -65l-63 65l-71 -65l-69 65l-63 -65l-67 65l-66 -65h-26zM150 300l63 63l64 -63l14 14l-64 63l64 64l-14 14l-64 -64l-63 64l-14 -14l63 -64l-63 -63zM410 300l63 63l64 -63l14 14l-64 63
l64 64l-14 14l-64 -64l-63 64l-14 -14l63 -64l-63 -63z" />
    <glyph glyph-name="W_W_W" unicode="WWW" horiz-adv-x="2087" 
d="M159 0l-149 700h151l94 -461h3l128 461h136l128 -461h2l127 461h136l128 -461h2l127 461h136l128 -461h2l128 461h135l128 -461h2l95 461h151l-148 -700h-157l-137 480h-2l-138 -480h-116l-138 480h-2l-137 -480h-117l-137 480h-2l-137 -480h-117l-137 480h-2l-137 -480
h-157z" />
    <glyph glyph-name="fi" unicode="fi" horiz-adv-x="625" 
d="M569 754v-132h-137v132h137zM576 530v-530h-143v404h-182v-404h-143v404h-103v126h103v54c0 95 59 150 163 150h100v-127h-81c-26 0 -39 -12 -39 -37v-40h325z" />
    <glyph glyph-name="fl" unicode="fl" horiz-adv-x="626" 
d="M433 730h143v-730h-143v404h-182v-404h-143v404h-103v126h103v54c0 95 59 150 163 150h100v-127h-81c-26 0 -39 -12 -39 -37v-40h182v200z" />
    <glyph glyph-name="w_w_w" unicode="www" horiz-adv-x="1838" 
d="M134 0l-119 530h142l67 -338h2l111 338h124l110 -338h2l110 338h125l110 -338h2l110 338h125l110 -338h2l110 338h125l110 -338h2l68 338h142l-120 -530h-142l-121 364h-2l-122 -364h-102l-121 364h-2l-121 -364h-103l-121 364h-2l-121 -364h-103l-121 364h-2l-121 -364
h-143z" />
    <glyph glyph-name=".notdef" horiz-adv-x="698" 
d="M50 -5v423c0 171 131 292 292 292c161 2 297 -123 294 -292v-423h-28l-65 65l-68 -65l-63 65l-71 -65l-69 65l-63 -65l-67 65l-66 -65h-26zM150 300l63 63l64 -63l14 14l-64 63l64 64l-14 14l-64 -64l-63 64l-14 -14l63 -64l-63 -63zM410 300l63 63l64 -63l14 14l-64 63
l64 64l-14 14l-64 -64l-63 64l-14 -14l63 -64l-63 -63z" />
    <glyph glyph-name="NULL" horiz-adv-x="0" 
 />
    <glyph glyph-name="CR" unicode="&#xd;" horiz-adv-x="325" 
 />
    <glyph glyph-name="space" unicode=" " horiz-adv-x="255" 
 />
    <glyph glyph-name="A" unicode="A" horiz-adv-x="626" 
d="M484 0l-37 109h-268l-37 -109h-147l250 700h136l250 -700h-147zM224 239h178l-88 258h-2z" />
    <glyph glyph-name="Aacute" unicode="&#xc1;" horiz-adv-x="626" 
d="M484 0l-37 109h-268l-37 -109h-147l250 700h136l250 -700h-147zM224 239h178l-88 258h-2zM241 760l92 138h147l-122 -138h-117z" />
    <glyph glyph-name="Abreve" unicode="&#x102;" horiz-adv-x="626" 
d="M484 0l-37 109h-268l-37 -109h-147l250 700h136l250 -700h-147zM224 239h178l-88 258h-2zM166 888h74c9 -32 36 -50 75 -50c37 0 65 18 73 50h74c-4 -84 -62 -138 -147 -138c-87 0 -145 54 -149 138z" />
    <glyph glyph-name="uni01CD" unicode="&#x1cd;" horiz-adv-x="626" 
d="M484 0l-37 109h-268l-37 -109h-147l250 700h136l250 -700h-147zM224 239h178l-88 258h-2zM383 896l76 -58l-70 -88h-149l-70 88l76 58l69 -87z" />
    <glyph glyph-name="Acircumflex" unicode="&#xc2;" horiz-adv-x="626" 
d="M484 0l-37 109h-268l-37 -109h-147l250 700h136l250 -700h-147zM224 239h178l-88 258h-2zM459 798l-76 -58l-68 88l-69 -88l-76 58l70 88h149z" />
    <glyph glyph-name="uni1EAC" unicode="&#x1eac;" horiz-adv-x="626" 
d="M484 0l-37 109h-268l-37 -109h-147l250 700h136l250 -700h-147zM224 239h178l-88 258h-2zM459 798l-76 -58l-68 88l-69 -88l-76 58l70 88h149zM248 -177v128h130v-128h-130z" />
    <glyph glyph-name="Adieresis" unicode="&#xc4;" horiz-adv-x="626" 
d="M484 0l-37 109h-268l-37 -109h-147l250 700h136l250 -700h-147zM224 239h178l-88 258h-2zM145 750v128h130v-128h-130zM352 750v128h130v-128h-130z" />
    <glyph glyph-name="uni01DE" unicode="&#x1de;" horiz-adv-x="626" 
d="M484 0l-37 109h-268l-37 -109h-147l250 700h136l250 -700h-147zM224 239h178l-88 258h-2zM145 750v128h130v-128h-130zM352 750v128h130v-128h-130zM155 918v87h317v-87h-317z" />
    <glyph glyph-name="uni1EA0" unicode="&#x1ea0;" horiz-adv-x="626" 
d="M484 0l-37 109h-268l-37 -109h-147l250 700h136l250 -700h-147zM224 239h178l-88 258h-2zM248 -177v128h130v-128h-130z" />
    <glyph glyph-name="Agrave" unicode="&#xc0;" horiz-adv-x="626" 
d="M484 0l-37 109h-268l-37 -109h-147l250 700h136l250 -700h-147zM224 239h178l-88 258h-2zM269 760l-122 138h147l92 -138h-117z" />
    <glyph glyph-name="Amacron" unicode="&#x100;" horiz-adv-x="626" 
d="M484 0l-37 109h-268l-37 -109h-147l250 700h136l250 -700h-147zM224 239h178l-88 258h-2zM155 760v87h317v-87h-317z" />
    <glyph glyph-name="Aogonek" unicode="&#x104;" horiz-adv-x="626" 
d="M484 0l-37 109h-268l-37 -109h-147l250 700h136l250 -700h-147zM224 239h178l-88 258h-2zM433 -123c0 52 37 98 110 139l58 -16c-45 -29 -73 -64 -73 -93c0 -19 10 -28 29 -28c17 0 35 6 54 18l37 -81c-35 -19 -71 -28 -108 -28c-67 0 -107 33 -107 89z" />
    <glyph glyph-name="Aring" unicode="&#xc5;" horiz-adv-x="626" 
d="M484 0l-37 109h-268l-37 -109h-147l250 700h136l250 -700h-147zM224 239h178l-88 258h-2zM164 768c0 39 14 71 42 96c29 25 65 38 108 38s79 -13 108 -38s43 -57 43 -96s-14 -71 -43 -96s-65 -38 -108 -38s-79 13 -108 38c-28 25 -42 57 -42 96zM383 768
c0 40 -28 68 -69 68c-40 0 -68 -28 -68 -68s28 -68 68 -68c41 0 69 28 69 68z" />
    <glyph glyph-name="Aringacute" unicode="&#x1fa;" horiz-adv-x="626" 
d="M484 0l-37 109h-268l-37 -109h-147l250 700h136l250 -700h-147zM224 239h178l-88 258h-2zM164 768c0 39 14 71 42 96c29 25 65 38 108 38s79 -13 108 -38s43 -57 43 -96s-14 -71 -43 -96s-65 -38 -108 -38s-79 13 -108 38c-28 25 -42 57 -42 96zM383 768
c0 40 -28 68 -69 68c-40 0 -68 -28 -68 -68s28 -68 68 -68c41 0 69 28 69 68zM241 881l92 138h147l-122 -138h-117z" />
    <glyph glyph-name="Atilde" unicode="&#xc3;" horiz-adv-x="626" 
d="M484 0l-37 109h-268l-37 -109h-147l250 700h136l250 -700h-147zM224 239h178l-88 258h-2zM301 779c-4 1 -34 16 -50 16c-18 0 -29 -12 -34 -35h-70c3 73 41 118 98 118c28 0 50 -8 82 -23c21 -11 38 -16 49 -16c18 0 29 11 34 34h70c-3 -75 -41 -118 -97 -118
c-27 0 -49 8 -82 24z" />
    <glyph glyph-name="AE" unicode="&#xc6;" horiz-adv-x="866" 
d="M578 126h248v-126h-386v114h-242l-45 -114h-158l289 700h541v-127h-247v-155h221v-122h-221v-170zM248 238h192v335h-59z" />
    <glyph glyph-name="AEacute" unicode="&#x1fc;" horiz-adv-x="866" 
d="M578 126h248v-126h-386v114h-242l-45 -114h-158l289 700h541v-127h-247v-155h221v-122h-221v-170zM248 238h192v335h-59zM365 760l92 138h147l-122 -138h-117z" />
    <glyph glyph-name="B" unicode="B" horiz-adv-x="637" 
d="M69 0v700h304c121 0 208 -79 208 -188c0 -57 -27 -104 -71 -131v-2c60 -28 97 -88 97 -161c0 -147 -87 -218 -266 -218h-272zM217 421h135c53 0 82 26 82 74c0 47 -29 73 -82 73h-135v-147zM217 132h151c63 0 92 28 92 87c0 55 -32 85 -91 85h-152v-172z" />
    <glyph glyph-name="uni1E04" unicode="&#x1e04;" horiz-adv-x="637" 
d="M69 0v700h304c121 0 208 -79 208 -188c0 -57 -27 -104 -71 -131v-2c60 -28 97 -88 97 -161c0 -147 -87 -218 -266 -218h-272zM217 421h135c53 0 82 26 82 74c0 47 -29 73 -82 73h-135v-147zM217 132h151c63 0 92 28 92 87c0 55 -32 85 -91 85h-152v-172zM252 -177v128
h130v-128h-130z" />
    <glyph glyph-name="C" unicode="C" horiz-adv-x="637" 
d="M29 350c0 221 122 365 309 365c148 0 263 -102 279 -250l-145 -24c-15 89 -63 139 -134 139c-101 0 -161 -86 -161 -230s60 -230 161 -230c75 0 123 53 136 150l145 -25c-18 -157 -128 -260 -281 -260c-187 0 -309 144 -309 365z" />
    <glyph glyph-name="Cacute" unicode="&#x106;" horiz-adv-x="637" 
d="M29 350c0 221 122 365 309 365c148 0 263 -102 279 -250l-145 -24c-15 89 -63 139 -134 139c-101 0 -161 -86 -161 -230s60 -230 161 -230c75 0 123 53 136 150l145 -25c-18 -157 -128 -260 -281 -260c-187 0 -309 144 -309 365zM265 775l92 138h147l-122 -138h-117z" />
    <glyph glyph-name="Ccaron" unicode="&#x10c;" horiz-adv-x="637" 
d="M29 350c0 221 122 365 309 365c148 0 263 -102 279 -250l-145 -24c-15 89 -63 139 -134 139c-101 0 -161 -86 -161 -230s60 -230 161 -230c75 0 123 53 136 150l145 -25c-18 -157 -128 -260 -281 -260c-187 0 -309 144 -309 365zM407 911l76 -58l-70 -88h-149l-70 88
l76 58l69 -87z" />
    <glyph glyph-name="Ccedilla" unicode="&#xc7;" horiz-adv-x="637" 
d="M29 350c0 221 122 365 309 365c148 0 263 -102 279 -250l-145 -24c-15 89 -63 139 -134 139c-101 0 -161 -86 -161 -230s60 -230 161 -230c75 0 123 53 136 150l145 -25c-18 -157 -128 -260 -281 -260c-187 0 -309 144 -309 365zM470 -149c0 -67 -47 -109 -120 -109
c-43 0 -81 13 -114 40l46 65c24 -18 45 -27 63 -27c25 0 43 16 43 37c0 20 -15 32 -42 32c-19 0 -36 -7 -50 -21l-55 24l71 127l56 -28l-25 -42c8 1 15 2 20 2c63 0 107 -41 107 -100z" />
    <glyph glyph-name="Ccircumflex" unicode="&#x108;" horiz-adv-x="637" 
d="M29 350c0 221 122 365 309 365c148 0 263 -102 279 -250l-145 -24c-15 89 -63 139 -134 139c-101 0 -161 -86 -161 -230s60 -230 161 -230c75 0 123 53 136 150l145 -25c-18 -157 -128 -260 -281 -260c-187 0 -309 144 -309 365zM483 813l-76 -58l-68 88l-69 -88l-76 58
l70 88h149z" />
    <glyph glyph-name="Cdotaccent" unicode="&#x10a;" horiz-adv-x="637" 
d="M29 350c0 221 122 365 309 365c148 0 263 -102 279 -250l-145 -24c-15 89 -63 139 -134 139c-101 0 -161 -86 -161 -230s60 -230 161 -230c75 0 123 53 136 150l145 -25c-18 -157 -128 -260 -281 -260c-187 0 -309 144 -309 365zM272 775v128h130v-128h-130z" />
    <glyph glyph-name="D" unicode="D" horiz-adv-x="647" 
d="M69 0v700h243c186 0 307 -133 307 -350c0 -218 -122 -350 -308 -350h-242zM217 136h94c100 0 160 74 160 214s-60 214 -160 214h-94v-428z" />
    <glyph glyph-name="Eth" unicode="&#xd0;" horiz-adv-x="647" 
d="M69 0v700h243c186 0 307 -133 307 -350c0 -218 -122 -350 -308 -350h-242zM217 136h94c100 0 160 74 160 214s-60 214 -160 214h-94v-428zM-14 292v117h370v-117h-370z" />
    <glyph glyph-name="Dcaron" unicode="&#x10e;" horiz-adv-x="647" 
d="M69 0v700h243c186 0 307 -133 307 -350c0 -218 -122 -350 -308 -350h-242zM217 136h94c100 0 160 74 160 214s-60 214 -160 214h-94v-428zM360 896l76 -58l-70 -88h-149l-70 88l76 58l69 -87z" />
    <glyph glyph-name="Dcroat" unicode="&#x110;" horiz-adv-x="647" 
d="M69 0v700h243c186 0 307 -133 307 -350c0 -218 -122 -350 -308 -350h-242zM217 136h94c100 0 160 74 160 214s-60 214 -160 214h-94v-428zM-14 292v117h370v-117h-370z" />
    <glyph glyph-name="uni1E0C" unicode="&#x1e0c;" horiz-adv-x="647" 
d="M69 0v700h243c186 0 307 -133 307 -350c0 -218 -122 -350 -308 -350h-242zM217 136h94c100 0 160 74 160 214s-60 214 -160 214h-94v-428zM255 -177v128h130v-128h-130z" />
    <glyph glyph-name="E" unicode="E" horiz-adv-x="561" 
d="M69 0v700h451v-136h-303v-142h276v-130h-276v-156h304v-136h-452z" />
    <glyph glyph-name="Eacute" unicode="&#xc9;" horiz-adv-x="561" 
d="M69 0v700h451v-136h-303v-142h276v-130h-276v-156h304v-136h-452zM228 760l92 138h147l-122 -138h-117z" />
    <glyph glyph-name="Ebreve" unicode="&#x114;" horiz-adv-x="561" 
d="M69 0v700h451v-136h-303v-142h276v-130h-276v-156h304v-136h-452zM153 888h74c9 -32 36 -50 75 -50c37 0 65 18 73 50h74c-4 -84 -62 -138 -147 -138c-87 0 -145 54 -149 138z" />
    <glyph glyph-name="Ecaron" unicode="&#x11a;" horiz-adv-x="561" 
d="M69 0v700h451v-136h-303v-142h276v-130h-276v-156h304v-136h-452zM370 896l76 -58l-70 -88h-149l-70 88l76 58l69 -87z" />
    <glyph glyph-name="uni0228" unicode="&#x228;" horiz-adv-x="561" 
d="M69 0v700h451v-136h-303v-142h276v-130h-276v-156h304v-136h-452zM427 -135c0 -67 -47 -109 -120 -109c-43 0 -81 13 -114 40l46 65c24 -18 45 -27 63 -27c25 0 43 16 43 37c0 20 -15 32 -42 32c-19 0 -36 -7 -50 -21l-55 24l71 127l56 -28l-25 -42c8 1 15 2 20 2
c63 0 107 -41 107 -100z" />
    <glyph glyph-name="Ecircumflex" unicode="&#xca;" horiz-adv-x="561" 
d="M69 0v700h451v-136h-303v-142h276v-130h-276v-156h304v-136h-452zM446 798l-76 -58l-68 88l-69 -88l-76 58l70 88h149z" />
    <glyph glyph-name="uni1EC6" unicode="&#x1ec6;" horiz-adv-x="561" 
d="M69 0v700h451v-136h-303v-142h276v-130h-276v-156h304v-136h-452zM446 798l-76 -58l-68 88l-69 -88l-76 58l70 88h149zM229 -177v128h130v-128h-130z" />
    <glyph glyph-name="Edieresis" unicode="&#xcb;" horiz-adv-x="561" 
d="M69 0v700h451v-136h-303v-142h276v-130h-276v-156h304v-136h-452zM132 750v128h130v-128h-130zM339 750v128h130v-128h-130z" />
    <glyph glyph-name="Edotaccent" unicode="&#x116;" horiz-adv-x="561" 
d="M69 0v700h451v-136h-303v-142h276v-130h-276v-156h304v-136h-452zM235 760v128h130v-128h-130z" />
    <glyph glyph-name="uni1EB8" unicode="&#x1eb8;" horiz-adv-x="561" 
d="M69 0v700h451v-136h-303v-142h276v-130h-276v-156h304v-136h-452zM229 -177v128h130v-128h-130z" />
    <glyph glyph-name="Egrave" unicode="&#xc8;" horiz-adv-x="561" 
d="M69 0v700h451v-136h-303v-142h276v-130h-276v-156h304v-136h-452zM256 760l-122 138h147l92 -138h-117z" />
    <glyph glyph-name="Emacron" unicode="&#x112;" horiz-adv-x="561" 
d="M69 0v700h451v-136h-303v-142h276v-130h-276v-156h304v-136h-452zM142 760v87h317v-87h-317z" />
    <glyph glyph-name="Eogonek" unicode="&#x118;" horiz-adv-x="561" 
d="M69 0v700h451v-136h-303v-142h276v-130h-276v-156h304v-136h-452zM302 -123c0 52 37 98 110 139l58 -16c-45 -29 -73 -64 -73 -93c0 -19 10 -28 29 -28c17 0 35 6 54 18l37 -81c-35 -19 -71 -28 -108 -28c-67 0 -107 33 -107 89z" />
    <glyph glyph-name="uni018E" unicode="&#x18e;" horiz-adv-x="561" 
d="M492 0h-452v136h304v156h-276v130h276v142h-303v136h451v-700z" />
    <glyph glyph-name="uni1EBC" unicode="&#x1ebc;" horiz-adv-x="561" 
d="M69 0v700h451v-136h-303v-142h276v-130h-276v-156h304v-136h-452zM288 779c-4 1 -34 16 -50 16c-18 0 -29 -12 -34 -35h-70c3 73 41 118 98 118c28 0 50 -8 82 -23c21 -11 38 -16 49 -16c18 0 29 11 34 34h70c-3 -75 -41 -118 -97 -118c-27 0 -49 8 -82 24z" />
    <glyph glyph-name="F" unicode="F" horiz-adv-x="554" 
d="M69 0v700h451v-136h-303v-171h282v-130h-282v-263h-148z" />
    <glyph glyph-name="G" unicode="G" horiz-adv-x="643" 
d="M29 350c0 220 122 365 309 365c147 0 258 -99 276 -240l-144 -23c-15 80 -64 128 -132 128c-101 0 -161 -86 -161 -230s61 -230 162 -230c83 0 131 48 132 131h-125v119h265v-95c0 -174 -109 -290 -273 -290c-187 0 -309 144 -309 365z" />
    <glyph glyph-name="Gbreve" unicode="&#x11e;" horiz-adv-x="643" 
d="M29 350c0 220 122 365 309 365c147 0 258 -99 276 -240l-144 -23c-15 80 -64 128 -132 128c-101 0 -161 -86 -161 -230s61 -230 162 -230c83 0 131 48 132 131h-125v119h265v-95c0 -174 -109 -290 -273 -290c-187 0 -309 144 -309 365zM190 903h74c9 -32 36 -50 75 -50
c37 0 65 18 73 50h74c-4 -84 -62 -138 -147 -138c-87 0 -145 54 -149 138z" />
    <glyph glyph-name="Gcircumflex" unicode="&#x11c;" horiz-adv-x="643" 
d="M29 350c0 220 122 365 309 365c147 0 258 -99 276 -240l-144 -23c-15 80 -64 128 -132 128c-101 0 -161 -86 -161 -230s61 -230 162 -230c83 0 131 48 132 131h-125v119h265v-95c0 -174 -109 -290 -273 -290c-187 0 -309 144 -309 365zM483 813l-76 -58l-68 88l-69 -88
l-76 58l70 88h149z" />
    <glyph glyph-name="uni0122" unicode="&#x122;" horiz-adv-x="643" 
d="M29 350c0 220 122 365 309 365c147 0 258 -99 276 -240l-144 -23c-15 80 -64 128 -132 128c-101 0 -161 -86 -161 -230s61 -230 162 -230c83 0 131 48 132 131h-125v119h265v-95c0 -174 -109 -290 -273 -290c-187 0 -309 144 -309 365zM277 -300v59c32 9 42 25 42 58h-47
v118h131v-104c0 -76 -42 -122 -126 -131z" />
    <glyph glyph-name="Gdotaccent" unicode="&#x120;" horiz-adv-x="643" 
d="M29 350c0 220 122 365 309 365c147 0 258 -99 276 -240l-144 -23c-15 80 -64 128 -132 128c-101 0 -161 -86 -161 -230s61 -230 162 -230c83 0 131 48 132 131h-125v119h265v-95c0 -174 -109 -290 -273 -290c-187 0 -309 144 -309 365zM272 775v128h130v-128h-130z" />
    <glyph glyph-name="H" unicode="H" horiz-adv-x="662" 
d="M69 0v700h148v-274h227v274h148v-700h-148v291h-227v-291h-148z" />
    <glyph glyph-name="Hbar" unicode="&#x126;" horiz-adv-x="661" 
d="M661 611v-111h-69v-500h-146v296h-231v-296h-146v500h-70v111h70v89h146v-89h231v89h146v-89h69zM446 421v79h-231v-79h231z" />
    <glyph glyph-name="Hcircumflex" unicode="&#x124;" horiz-adv-x="662" 
d="M69 0v700h148v-274h227v274h148v-700h-148v291h-227v-291h-148zM476 798l-76 -58l-68 88l-69 -88l-76 58l70 88h149z" />
    <glyph glyph-name="uni1E24" unicode="&#x1e24;" horiz-adv-x="662" 
d="M69 0v700h148v-274h227v274h148v-700h-148v291h-227v-291h-148zM265 -177v128h130v-128h-130z" />
    <glyph glyph-name="I" unicode="I" horiz-adv-x="287" 
d="M69 0v700h148v-700h-148z" />
    <glyph glyph-name="Iacute" unicode="&#xcd;" horiz-adv-x="287" 
d="M69 0v700h148v-700h-148zM71 760l92 138h147l-122 -138h-117z" />
    <glyph glyph-name="Ibreve" unicode="&#x12c;" horiz-adv-x="287" 
d="M69 0v700h148v-700h-148zM-4 888h74c9 -32 36 -50 75 -50c37 0 65 18 73 50h74c-4 -84 -62 -138 -147 -138c-87 0 -145 54 -149 138z" />
    <glyph glyph-name="uni01CF" unicode="&#x1cf;" horiz-adv-x="287" 
d="M69 0v700h148v-700h-148zM213 896l76 -58l-70 -88h-149l-70 88l76 58l69 -87z" />
    <glyph glyph-name="Icircumflex" unicode="&#xce;" horiz-adv-x="287" 
d="M69 0v700h148v-700h-148zM289 798l-76 -58l-68 88l-69 -88l-76 58l70 88h149z" />
    <glyph glyph-name="Idieresis" unicode="&#xcf;" horiz-adv-x="287" 
d="M69 0v700h148v-700h-148zM-25 750v128h130v-128h-130zM182 750v128h130v-128h-130z" />
    <glyph glyph-name="Idotaccent" unicode="&#x130;" horiz-adv-x="287" 
d="M69 0v700h148v-700h-148zM78 760v128h130v-128h-130z" />
    <glyph glyph-name="uni1ECA" unicode="&#x1eca;" horiz-adv-x="287" 
d="M69 0v700h148v-700h-148zM78 -177v128h130v-128h-130z" />
    <glyph glyph-name="Igrave" unicode="&#xcc;" horiz-adv-x="287" 
d="M69 0v700h148v-700h-148zM99 760l-122 138h147l92 -138h-117z" />
    <glyph glyph-name="Imacron" unicode="&#x12a;" horiz-adv-x="287" 
d="M69 0v700h148v-700h-148zM-15 760v87h317v-87h-317z" />
    <glyph glyph-name="Iogonek" unicode="&#x12e;" horiz-adv-x="287" 
d="M69 0v700h148v-700h-148zM25 -123c0 52 37 98 110 139l58 -16c-45 -29 -73 -64 -73 -93c0 -19 10 -28 29 -28c17 0 35 6 54 18l37 -81c-35 -19 -71 -28 -108 -28c-67 0 -107 33 -107 89z" />
    <glyph glyph-name="Itilde" unicode="&#x128;" horiz-adv-x="287" 
d="M69 0v700h148v-700h-148zM131 779c-4 1 -34 16 -50 16c-18 0 -29 -12 -34 -35h-70c3 73 41 118 98 118c28 0 50 -8 82 -23c21 -11 38 -16 49 -16c18 0 29 11 34 34h70c-3 -75 -41 -118 -97 -118c-27 0 -49 8 -82 24z" />
    <glyph glyph-name="J" unicode="J" horiz-adv-x="551" 
d="M20 207l142 19c8 -77 33 -106 93 -106c55 0 84 40 84 113v467h148v-483c0 -141 -97 -232 -232 -232c-141 0 -226 81 -235 222z" />
    <glyph glyph-name="Jcircumflex" unicode="&#x134;" horiz-adv-x="551" 
d="M20 207l142 19c8 -77 33 -106 93 -106c55 0 84 40 84 113v467h148v-483c0 -141 -97 -232 -232 -232c-141 0 -226 81 -235 222zM558 798l-76 -58l-68 88l-69 -88l-76 58l70 88h149z" />
    <glyph glyph-name="K" unicode="K" horiz-adv-x="641" 
d="M69 0v700h148v-286h2l235 286h173l-257 -310l277 -390h-176l-192 280h-2l-60 -73v-207h-148z" />
    <glyph glyph-name="uni0136" unicode="&#x136;" horiz-adv-x="641" 
d="M69 0v700h148v-286h2l235 286h173l-257 -310l277 -390h-176l-192 280h-2l-60 -73v-207h-148zM282 -285v59c32 9 42 25 42 58h-47v118h131v-104c0 -76 -42 -122 -126 -131z" />
    <glyph glyph-name="L" unicode="L" horiz-adv-x="537" 
d="M69 0v700h148v-564h296v-136h-444z" />
    <glyph glyph-name="Lacute" unicode="&#x139;" horiz-adv-x="537" 
d="M69 0v700h148v-564h296v-136h-444zM71 760l92 138h147l-122 -138h-117z" />
    <glyph glyph-name="Lcaron" unicode="&#x13d;" horiz-adv-x="538" 
d="M69 0v700h148v-564h296v-136h-444zM412 464v59c32 9 42 25 42 58h-47v118h131v-104c0 -76 -42 -122 -126 -131z" />
    <glyph glyph-name="uni013B" unicode="&#x13b;" horiz-adv-x="537" 
d="M69 0v700h148v-564h296v-136h-444zM230 -285v59c32 9 42 25 42 58h-47v118h131v-104c0 -76 -42 -122 -126 -131z" />
    <glyph glyph-name="Ldot" unicode="&#x13f;" horiz-adv-x="538" 
d="M69 0v700h148v-564h296v-136h-444zM330 330v155h160v-155h-160z" />
    <glyph glyph-name="uni1E36" unicode="&#x1e36;" horiz-adv-x="537" 
d="M69 0v700h148v-564h296v-136h-444zM225 -177v128h130v-128h-130z" />
    <glyph glyph-name="Lslash" unicode="&#x141;" horiz-adv-x="605" 
d="M145 0v700h148v-564h296v-136h-444zM189 236l279 260l-53 59l-200 -188v16l-215 -199l49 -52l140 129v-25z" />
    <glyph glyph-name="M" unicode="M" horiz-adv-x="861" 
d="M69 0v700h164l196 -471h2l197 471h164v-700h-145v432h-2l-183 -432h-64l-182 432h-2v-432h-145z" />
    <glyph glyph-name="N" unicode="N" horiz-adv-x="677" 
d="M69 0v700h152l237 -445h2v445h148v-700h-152l-237 445h-2v-445h-148z" />
    <glyph glyph-name="Nacute" unicode="&#x143;" horiz-adv-x="677" 
d="M69 0v700h152l237 -445h2v445h148v-700h-152l-237 445h-2v-445h-148zM266 760l92 138h147l-122 -138h-117z" />
    <glyph glyph-name="Ncaron" unicode="&#x147;" horiz-adv-x="677" 
d="M69 0v700h152l237 -445h2v445h148v-700h-152l-237 445h-2v-445h-148zM408 896l76 -58l-70 -88h-149l-70 88l76 58l69 -87z" />
    <glyph glyph-name="uni0145" unicode="&#x145;" horiz-adv-x="677" 
d="M69 0v700h152l237 -445h2v445h148v-700h-152l-237 445h-2v-445h-148zM288 -285v59c32 9 42 25 42 58h-47v118h131v-104c0 -76 -42 -122 -126 -131z" />
    <glyph glyph-name="uni1E44" unicode="&#x1e44;" horiz-adv-x="677" 
d="M69 0v700h152l237 -445h2v445h148v-700h-152l-237 445h-2v-445h-148zM273 760v128h130v-128h-130z" />
    <glyph glyph-name="uni1E46" unicode="&#x1e46;" horiz-adv-x="677" 
d="M69 0v700h152l237 -445h2v445h148v-700h-152l-237 445h-2v-445h-148zM283 -177v128h130v-128h-130z" />
    <glyph glyph-name="Eng" unicode="&#x14a;" horiz-adv-x="678" 
d="M461 700h148v-743c0 -112 -55 -158 -179 -158h-48v130h50c27 0 37 11 37 39v32l-250 434h-2v-434h-148v700h140l250 -434h2v434z" />
    <glyph glyph-name="Ntilde" unicode="&#xd1;" horiz-adv-x="677" 
d="M69 0v700h152l237 -445h2v445h148v-700h-152l-237 445h-2v-445h-148zM326 779c-4 1 -34 16 -50 16c-18 0 -29 -12 -34 -35h-70c3 73 41 118 98 118c28 0 50 -8 82 -23c21 -11 38 -16 49 -16c18 0 29 11 34 34h70c-3 -75 -41 -118 -97 -118c-27 0 -49 8 -82 24z" />
    <glyph glyph-name="O" unicode="O" horiz-adv-x="677" 
d="M29 350c0 220 122 365 309 365c186 0 310 -145 310 -365s-124 -365 -310 -365c-187 0 -309 145 -309 365zM500 350c0 144 -62 230 -162 230s-161 -86 -161 -230s61 -230 161 -230c101 0 162 86 162 230z" />
    <glyph glyph-name="Oacute" unicode="&#xd3;" horiz-adv-x="677" 
d="M29 350c0 220 122 365 309 365c186 0 310 -145 310 -365s-124 -365 -310 -365c-187 0 -309 145 -309 365zM500 350c0 144 -62 230 -162 230s-161 -86 -161 -230s61 -230 161 -230c101 0 162 86 162 230zM265 775l92 138h147l-122 -138h-117z" />
    <glyph glyph-name="Obreve" unicode="&#x14e;" horiz-adv-x="677" 
d="M29 350c0 220 122 365 309 365c186 0 310 -145 310 -365s-124 -365 -310 -365c-187 0 -309 145 -309 365zM500 350c0 144 -62 230 -162 230s-161 -86 -161 -230s61 -230 161 -230c101 0 162 86 162 230zM190 903h74c9 -32 36 -50 75 -50c37 0 65 18 73 50h74
c-4 -84 -62 -138 -147 -138c-87 0 -145 54 -149 138z" />
    <glyph glyph-name="uni01D1" unicode="&#x1d1;" horiz-adv-x="677" 
d="M29 350c0 220 122 365 309 365c186 0 310 -145 310 -365s-124 -365 -310 -365c-187 0 -309 145 -309 365zM500 350c0 144 -62 230 -162 230s-161 -86 -161 -230s61 -230 161 -230c101 0 162 86 162 230zM407 911l76 -58l-70 -88h-149l-70 88l76 58l69 -87z" />
    <glyph glyph-name="Ocircumflex" unicode="&#xd4;" horiz-adv-x="677" 
d="M29 350c0 220 122 365 309 365c186 0 310 -145 310 -365s-124 -365 -310 -365c-187 0 -309 145 -309 365zM500 350c0 144 -62 230 -162 230s-161 -86 -161 -230s61 -230 161 -230c101 0 162 86 162 230zM483 813l-76 -58l-68 88l-69 -88l-76 58l70 88h149z" />
    <glyph glyph-name="uni1ED8" unicode="&#x1ed8;" horiz-adv-x="677" 
d="M29 350c0 220 122 365 309 365c186 0 310 -145 310 -365s-124 -365 -310 -365c-187 0 -309 145 -309 365zM500 350c0 144 -62 230 -162 230s-161 -86 -161 -230s61 -230 161 -230c101 0 162 86 162 230zM483 813l-76 -58l-68 88l-69 -88l-76 58l70 88h149zM272 -192v128
h130v-128h-130z" />
    <glyph glyph-name="Odieresis" unicode="&#xd6;" horiz-adv-x="677" 
d="M29 350c0 220 122 365 309 365c186 0 310 -145 310 -365s-124 -365 -310 -365c-187 0 -309 145 -309 365zM500 350c0 144 -62 230 -162 230s-161 -86 -161 -230s61 -230 161 -230c101 0 162 86 162 230zM169 765v128h130v-128h-130zM376 765v128h130v-128h-130z" />
    <glyph glyph-name="uni1ECC" unicode="&#x1ecc;" horiz-adv-x="677" 
d="M29 350c0 220 122 365 309 365c186 0 310 -145 310 -365s-124 -365 -310 -365c-187 0 -309 145 -309 365zM500 350c0 144 -62 230 -162 230s-161 -86 -161 -230s61 -230 161 -230c101 0 162 86 162 230zM272 -192v128h130v-128h-130z" />
    <glyph glyph-name="Ograve" unicode="&#xd2;" horiz-adv-x="677" 
d="M29 350c0 220 122 365 309 365c186 0 310 -145 310 -365s-124 -365 -310 -365c-187 0 -309 145 -309 365zM500 350c0 144 -62 230 -162 230s-161 -86 -161 -230s61 -230 161 -230c101 0 162 86 162 230zM293 775l-122 138h147l92 -138h-117z" />
    <glyph glyph-name="Ohungarumlaut" unicode="&#x150;" horiz-adv-x="677" 
d="M29 350c0 220 122 365 309 365c186 0 310 -145 310 -365s-124 -365 -310 -365c-187 0 -309 145 -309 365zM500 350c0 144 -62 230 -162 230s-161 -86 -161 -230s61 -230 161 -230c101 0 162 86 162 230zM164 775l92 138h141l-121 -138h-112zM360 775l92 138h142
l-122 -138h-112z" />
    <glyph glyph-name="Omacron" unicode="&#x14c;" horiz-adv-x="677" 
d="M29 350c0 220 122 365 309 365c186 0 310 -145 310 -365s-124 -365 -310 -365c-187 0 -309 145 -309 365zM500 350c0 144 -62 230 -162 230s-161 -86 -161 -230s61 -230 161 -230c101 0 162 86 162 230zM179 775v87h317v-87h-317z" />
    <glyph glyph-name="Oslash" unicode="&#xd8;" horiz-adv-x="677" 
d="M648 350c0 -220 -124 -365 -310 -365c-50 0 -96 10 -137 31l-31 -56l-71 40l35 63c-68 64 -105 164 -105 287c0 220 122 365 309 365c50 0 96 -10 139 -31l31 56l70 -40l-35 -63c68 -64 105 -164 105 -287zM207 195l205 371c-23 13 -48 19 -74 19
c-101 0 -164 -88 -164 -235c0 -64 11 -116 33 -155zM503 350c0 62 -11 113 -33 154l-205 -371c21 -12 46 -18 73 -18c103 0 165 88 165 235z" />
    <glyph glyph-name="Oslashacute" unicode="&#x1fe;" horiz-adv-x="677" 
d="M648 350c0 -220 -124 -365 -310 -365c-50 0 -96 10 -137 31l-31 -56l-71 40l35 63c-68 64 -105 164 -105 287c0 220 122 365 309 365c50 0 96 -10 139 -31l31 56l70 -40l-35 -63c68 -64 105 -164 105 -287zM207 195l205 371c-23 13 -48 19 -74 19
c-101 0 -164 -88 -164 -235c0 -64 11 -116 33 -155zM503 350c0 62 -11 113 -33 154l-205 -371c21 -12 46 -18 73 -18c103 0 165 88 165 235zM265 775l92 138h147l-122 -138h-117z" />
    <glyph glyph-name="Otilde" unicode="&#xd5;" horiz-adv-x="677" 
d="M29 350c0 220 122 365 309 365c186 0 310 -145 310 -365s-124 -365 -310 -365c-187 0 -309 145 -309 365zM500 350c0 144 -62 230 -162 230s-161 -86 -161 -230s61 -230 161 -230c101 0 162 86 162 230zM325 794c-4 1 -34 16 -50 16c-18 0 -29 -12 -34 -35h-70
c3 73 41 118 98 118c28 0 50 -8 82 -23c21 -11 38 -16 49 -16c18 0 29 11 34 34h70c-3 -75 -41 -118 -97 -118c-27 0 -49 8 -82 24z" />
    <glyph glyph-name="uni1E4C" unicode="&#x1e4c;" horiz-adv-x="677" 
d="M29 350c0 220 122 365 309 365c186 0 310 -145 310 -365s-124 -365 -310 -365c-187 0 -309 145 -309 365zM500 350c0 144 -62 230 -162 230s-161 -86 -161 -230s61 -230 161 -230c101 0 162 86 162 230zM325 794c-4 1 -34 16 -50 16c-18 0 -29 -12 -34 -35h-70
c3 73 41 118 98 118c28 0 50 -8 82 -23c21 -11 38 -16 49 -16c18 0 29 11 34 34h70c-3 -75 -41 -118 -97 -118c-27 0 -49 8 -82 24zM265 923l92 138h147l-122 -138h-117z" />
    <glyph glyph-name="OE" unicode="&#x152;" horiz-adv-x="938" 
d="M29 350c0 220 121 365 298 365c59 0 109 -13 149 -39h2v24h419v-133h-274v-146h247v-128h-247v-160h275v-133h-420v25h-2c-39 -27 -88 -40 -149 -40c-177 0 -298 145 -298 365zM478 196v305c-31 53 -78 82 -141 82c-101 0 -163 -88 -163 -233s62 -233 163 -233
c63 0 110 26 141 79z" />
    <glyph glyph-name="P" unicode="P" horiz-adv-x="614" 
d="M69 0v700h287c149 0 243 -87 243 -231c0 -145 -92 -230 -245 -230h-137v-239h-148zM217 375h135c60 0 99 36 99 95c0 63 -33 95 -98 95h-136v-190z" />
    <glyph glyph-name="Thorn" unicode="&#xde;" horiz-adv-x="614" 
d="M599 352c0 -144 -92 -229 -245 -229h-137v-123h-148v700h148v-116h139c149 0 243 -88 243 -232zM451 353c0 63 -33 95 -98 95h-136v-190h135c60 0 99 38 99 95z" />
    <glyph glyph-name="Q" unicode="Q" horiz-adv-x="685" 
d="M656 56l-73 -71l-60 60c-51 -40 -113 -60 -185 -60c-187 0 -309 145 -309 365s122 365 309 365c186 0 310 -145 310 -365c0 -89 -19 -165 -58 -228zM422 146l-131 131l76 69l115 -115c12 33 18 73 18 119c0 144 -62 230 -162 230s-161 -86 -161 -230s61 -230 161 -230
c33 0 61 9 84 26z" />
    <glyph glyph-name="R" unicode="R" horiz-adv-x="623" 
d="M456 262l142 -262h-159l-132 246h-90v-246h-148v700h285c148 0 239 -86 239 -226c0 -101 -50 -178 -137 -211v-1zM217 381h119c71 0 109 33 109 94c0 60 -36 90 -109 90h-119v-184z" />
    <glyph glyph-name="Racute" unicode="&#x154;" horiz-adv-x="623" 
d="M456 262l142 -262h-159l-132 246h-90v-246h-148v700h285c148 0 239 -86 239 -226c0 -101 -50 -178 -137 -211v-1zM217 381h119c71 0 109 33 109 94c0 60 -36 90 -109 90h-119v-184zM231 760l92 138h147l-122 -138h-117z" />
    <glyph glyph-name="Rcaron" unicode="&#x158;" horiz-adv-x="623" 
d="M456 262l142 -262h-159l-132 246h-90v-246h-148v700h285c148 0 239 -86 239 -226c0 -101 -50 -178 -137 -211v-1zM217 381h119c71 0 109 33 109 94c0 60 -36 90 -109 90h-119v-184zM373 896l76 -58l-70 -88h-149l-70 88l76 58l69 -87z" />
    <glyph glyph-name="uni0156" unicode="&#x156;" horiz-adv-x="623" 
d="M456 262l142 -262h-159l-132 246h-90v-246h-148v700h285c148 0 239 -86 239 -226c0 -101 -50 -178 -137 -211v-1zM217 381h119c71 0 109 33 109 94c0 60 -36 90 -109 90h-119v-184zM253 -285v59c32 9 42 25 42 58h-47v118h131v-104c0 -76 -42 -122 -126 -131z" />
    <glyph glyph-name="S" unicode="S" horiz-adv-x="592" 
d="M19 231l145 31c19 -104 60 -144 153 -144c69 0 108 25 108 69c0 49 -33 73 -150 113c-81 27 -139 57 -173 90s-51 76 -51 127c0 117 98 198 237 198c137 0 244 -83 266 -206l-144 -31c-19 71 -58 104 -122 104c-55 0 -91 -25 -91 -64c0 -36 30 -56 134 -91
c87 -30 149 -63 186 -100s56 -83 56 -140c0 -121 -105 -202 -258 -202c-167 0 -271 86 -296 246z" />
    <glyph glyph-name="Sacute" unicode="&#x15a;" horiz-adv-x="592" 
d="M19 231l145 31c19 -104 60 -144 153 -144c69 0 108 25 108 69c0 49 -33 73 -150 113c-81 27 -139 57 -173 90s-51 76 -51 127c0 117 98 198 237 198c137 0 244 -83 266 -206l-144 -31c-19 71 -58 104 -122 104c-55 0 -91 -25 -91 -64c0 -36 30 -56 134 -91
c87 -30 149 -63 186 -100s56 -83 56 -140c0 -121 -105 -202 -258 -202c-167 0 -271 86 -296 246zM215 775l92 138h147l-122 -138h-117z" />
    <glyph glyph-name="Scaron" unicode="&#x160;" horiz-adv-x="592" 
d="M19 231l145 31c19 -104 60 -144 153 -144c69 0 108 25 108 69c0 49 -33 73 -150 113c-81 27 -139 57 -173 90s-51 76 -51 127c0 117 98 198 237 198c137 0 244 -83 266 -206l-144 -31c-19 71 -58 104 -122 104c-55 0 -91 -25 -91 -64c0 -36 30 -56 134 -91
c87 -30 149 -63 186 -100s56 -83 56 -140c0 -121 -105 -202 -258 -202c-167 0 -271 86 -296 246zM357 911l76 -58l-70 -88h-149l-70 88l76 58l69 -87z" />
    <glyph glyph-name="Scedilla" unicode="&#x15e;" horiz-adv-x="592" 
d="M19 231l145 31c19 -104 60 -144 153 -144c69 0 108 25 108 69c0 49 -33 73 -150 113c-81 27 -139 57 -173 90s-51 76 -51 127c0 117 98 198 237 198c137 0 244 -83 266 -206l-144 -31c-19 71 -58 104 -122 104c-55 0 -91 -25 -91 -64c0 -36 30 -56 134 -91
c87 -30 149 -63 186 -100s56 -83 56 -140c0 -121 -105 -202 -258 -202c-167 0 -271 86 -296 246zM447 -149c0 -67 -47 -109 -120 -109c-43 0 -81 13 -114 40l46 65c24 -18 45 -27 63 -27c25 0 43 16 43 37c0 20 -15 32 -42 32c-19 0 -36 -7 -50 -21l-55 24l71 127l56 -28
l-25 -42c8 1 15 2 20 2c63 0 107 -41 107 -100z" />
    <glyph glyph-name="Scircumflex" unicode="&#x15c;" horiz-adv-x="592" 
d="M19 231l145 31c19 -104 60 -144 153 -144c69 0 108 25 108 69c0 49 -33 73 -150 113c-81 27 -139 57 -173 90s-51 76 -51 127c0 117 98 198 237 198c137 0 244 -83 266 -206l-144 -31c-19 71 -58 104 -122 104c-55 0 -91 -25 -91 -64c0 -36 30 -56 134 -91
c87 -30 149 -63 186 -100s56 -83 56 -140c0 -121 -105 -202 -258 -202c-167 0 -271 86 -296 246zM433 813l-76 -58l-68 88l-69 -88l-76 58l70 88h149z" />
    <glyph glyph-name="uni0218" unicode="&#x218;" horiz-adv-x="592" 
d="M19 231l145 31c19 -104 60 -144 153 -144c69 0 108 25 108 69c0 49 -33 73 -150 113c-81 27 -139 57 -173 90s-51 76 -51 127c0 117 98 198 237 198c137 0 244 -83 266 -206l-144 -31c-19 71 -58 104 -122 104c-55 0 -91 -25 -91 -64c0 -36 30 -56 134 -91
c87 -30 149 -63 186 -100s56 -83 56 -140c0 -121 -105 -202 -258 -202c-167 0 -271 86 -296 246zM254 -300v59c32 9 42 25 42 58h-47v118h131v-104c0 -76 -42 -122 -126 -131z" />
    <glyph glyph-name="uni1E62" unicode="&#x1e62;" horiz-adv-x="592" 
d="M19 231l145 31c19 -104 60 -144 153 -144c69 0 108 25 108 69c0 49 -33 73 -150 113c-81 27 -139 57 -173 90s-51 76 -51 127c0 117 98 198 237 198c137 0 244 -83 266 -206l-144 -31c-19 71 -58 104 -122 104c-55 0 -91 -25 -91 -64c0 -36 30 -56 134 -91
c87 -30 149 -63 186 -100s56 -83 56 -140c0 -121 -105 -202 -258 -202c-167 0 -271 86 -296 246zM249 -192v128h130v-128h-130z" />
    <glyph glyph-name="uni018F" unicode="&#x18f;" horiz-adv-x="662" 
d="M29 350v54h454c-9 111 -66 176 -153 176c-67 0 -117 -38 -142 -110l-139 47c45 127 148 198 281 198c187 0 303 -139 303 -367c0 -223 -116 -363 -303 -363c-189 0 -301 137 -301 365zM482 282h-300c5 -101 61 -162 148 -162c84 0 140 59 152 162z" />
    <glyph glyph-name="T" unicode="T" horiz-adv-x="601" 
d="M227 0v564h-203v136h553v-136h-202v-564h-148z" />
    <glyph glyph-name="_123" horiz-adv-x="601" 
d="M227 0v566h-203v136h553v-136h-202v-566h-148z" />
    <glyph glyph-name="Tbar" unicode="&#x166;" horiz-adv-x="601" 
d="M227 0v564h-203v136h553v-136h-202v-564h-148zM116 271v117h370v-117h-370z" />
    <glyph glyph-name="_125" horiz-adv-x="601" 
d="M227 0v566h-203v136h553v-136h-202v-566h-148zM116 292v117h370v-117h-370z" />
    <glyph glyph-name="Tcaron" unicode="&#x164;" horiz-adv-x="601" 
d="M227 0v564h-203v136h553v-136h-202v-564h-148zM370 896l76 -58l-70 -88h-149l-70 88l76 58l69 -87z" />
    <glyph glyph-name="_127" horiz-adv-x="601" 
d="M227 0v566h-203v136h553v-136h-202v-566h-148zM370 898l76 -58l-70 -88h-149l-70 88l76 58l69 -87z" />
    <glyph glyph-name="uni0162" unicode="&#x162;" horiz-adv-x="601" 
d="M227 0v564h-203v136h553v-136h-202v-564h-148zM433 -135c0 -67 -47 -109 -120 -109c-43 0 -81 13 -114 40l46 65c24 -18 45 -27 63 -27c25 0 43 16 43 37c0 20 -15 32 -42 32c-19 0 -36 -7 -50 -21l-55 24l71 127l56 -28l-25 -42c8 1 15 2 20 2c63 0 107 -41 107 -100z
" />
    <glyph glyph-name="_129" horiz-adv-x="601" 
d="M227 0v566h-203v136h553v-136h-202v-566h-148zM433 -135c0 -67 -47 -109 -120 -109c-43 0 -81 13 -114 40l46 65c24 -18 45 -27 63 -27c25 0 43 16 43 37c0 20 -15 32 -42 32c-19 0 -36 -7 -50 -21l-55 24l71 127l56 -28l-25 -42c8 1 15 2 20 2c63 0 107 -41 107 -100z
" />
    <glyph glyph-name="uni021A" unicode="&#x21a;" horiz-adv-x="601" 
d="M227 0v564h-203v136h553v-136h-202v-564h-148zM240 -285v59c32 9 42 25 42 58h-47v118h131v-104c0 -76 -42 -122 -126 -131z" />
    <glyph glyph-name="_131" horiz-adv-x="601" 
d="M227 0v566h-203v136h553v-136h-202v-566h-148zM240 -285v59c32 9 42 25 42 58h-47v118h131v-104c0 -76 -42 -122 -126 -131z" />
    <glyph glyph-name="uni1E6C" unicode="&#x1e6c;" horiz-adv-x="601" 
d="M227 0v564h-203v136h553v-136h-202v-564h-148zM235 -177v128h130v-128h-130z" />
    <glyph glyph-name="_133" horiz-adv-x="601" 
d="M227 0v566h-203v136h553v-136h-202v-566h-148zM235 -177v128h130v-128h-130z" />
    <glyph glyph-name="U" unicode="U" horiz-adv-x="666" 
d="M64 231v469h148v-459c0 -81 40 -121 121 -121s121 39 121 119v461h148v-469c0 -155 -100 -246 -269 -246s-269 91 -269 246z" />
    <glyph glyph-name="Uacute" unicode="&#xda;" horiz-adv-x="666" 
d="M64 231v469h148v-459c0 -81 40 -121 121 -121s121 39 121 119v461h148v-469c0 -155 -100 -246 -269 -246s-269 91 -269 246zM261 760l92 138h147l-122 -138h-117z" />
    <glyph glyph-name="Ubreve" unicode="&#x16c;" horiz-adv-x="666" 
d="M64 231v469h148v-459c0 -81 40 -121 121 -121s121 39 121 119v461h148v-469c0 -155 -100 -246 -269 -246s-269 91 -269 246zM186 888h74c9 -32 36 -50 75 -50c37 0 65 18 73 50h74c-4 -84 -62 -138 -147 -138c-87 0 -145 54 -149 138z" />
    <glyph glyph-name="uni01D3" unicode="&#x1d3;" horiz-adv-x="666" 
d="M64 231v469h148v-459c0 -81 40 -121 121 -121s121 39 121 119v461h148v-469c0 -155 -100 -246 -269 -246s-269 91 -269 246zM403 896l76 -58l-70 -88h-149l-70 88l76 58l69 -87z" />
    <glyph glyph-name="Ucircumflex" unicode="&#xdb;" horiz-adv-x="666" 
d="M64 231v469h148v-459c0 -81 40 -121 121 -121s121 39 121 119v461h148v-469c0 -155 -100 -246 -269 -246s-269 91 -269 246zM479 798l-76 -58l-68 88l-69 -88l-76 58l70 88h149z" />
    <glyph glyph-name="Udieresis" unicode="&#xdc;" horiz-adv-x="666" 
d="M64 231v469h148v-459c0 -81 40 -121 121 -121s121 39 121 119v461h148v-469c0 -155 -100 -246 -269 -246s-269 91 -269 246zM165 750v128h130v-128h-130zM372 750v128h130v-128h-130z" />
    <glyph glyph-name="uni01D7" unicode="&#x1d7;" horiz-adv-x="666" 
d="M64 231v469h148v-459c0 -81 40 -121 121 -121s121 39 121 119v461h148v-469c0 -155 -100 -246 -269 -246s-269 91 -269 246zM165 750v128h130v-128h-130zM372 750v128h130v-128h-130zM261 918l92 138h147l-122 -138h-117z" />
    <glyph glyph-name="uni01D9" unicode="&#x1d9;" horiz-adv-x="666" 
d="M64 231v469h148v-459c0 -81 40 -121 121 -121s121 39 121 119v461h148v-469c0 -155 -100 -246 -269 -246s-269 91 -269 246zM165 750v128h130v-128h-130zM372 750v128h130v-128h-130zM403 1054l76 -58l-70 -88h-149l-70 88l76 58l69 -87z" />
    <glyph glyph-name="uni01DB" unicode="&#x1db;" horiz-adv-x="666" 
d="M64 231v469h148v-459c0 -81 40 -121 121 -121s121 39 121 119v461h148v-469c0 -155 -100 -246 -269 -246s-269 91 -269 246zM165 750v128h130v-128h-130zM372 750v128h130v-128h-130zM289 918l-122 138h147l92 -138h-117z" />
    <glyph glyph-name="uni01D5" unicode="&#x1d5;" horiz-adv-x="666" 
d="M64 231v469h148v-459c0 -81 40 -121 121 -121s121 39 121 119v461h148v-469c0 -155 -100 -246 -269 -246s-269 91 -269 246zM165 750v128h130v-128h-130zM372 750v128h130v-128h-130zM175 918v87h317v-87h-317z" />
    <glyph glyph-name="uni1EE4" unicode="&#x1ee4;" horiz-adv-x="666" 
d="M64 231v469h148v-459c0 -81 40 -121 121 -121s121 39 121 119v461h148v-469c0 -155 -100 -246 -269 -246s-269 91 -269 246zM267 -192v128h130v-128h-130z" />
    <glyph glyph-name="Ugrave" unicode="&#xd9;" horiz-adv-x="666" 
d="M64 231v469h148v-459c0 -81 40 -121 121 -121s121 39 121 119v461h148v-469c0 -155 -100 -246 -269 -246s-269 91 -269 246zM289 760l-122 138h147l92 -138h-117z" />
    <glyph glyph-name="Uhungarumlaut" unicode="&#x170;" horiz-adv-x="666" 
d="M64 231v469h148v-459c0 -81 40 -121 121 -121s121 39 121 119v461h148v-469c0 -155 -100 -246 -269 -246s-269 91 -269 246zM160 760l92 138h141l-121 -138h-112zM356 760l92 138h142l-122 -138h-112z" />
    <glyph glyph-name="Umacron" unicode="&#x16a;" horiz-adv-x="666" 
d="M64 231v469h148v-459c0 -81 40 -121 121 -121s121 39 121 119v461h148v-469c0 -155 -100 -246 -269 -246s-269 91 -269 246zM175 760v87h317v-87h-317z" />
    <glyph glyph-name="Uogonek" unicode="&#x172;" horiz-adv-x="666" 
d="M64 231v469h148v-459c0 -81 40 -121 121 -121s121 39 121 119v461h148v-469c0 -155 -100 -246 -269 -246s-269 91 -269 246zM273 -123c0 52 37 98 110 139l58 -16c-45 -29 -73 -64 -73 -93c0 -19 10 -28 29 -28c17 0 35 6 54 18l37 -81c-35 -19 -71 -28 -108 -28
c-67 0 -107 33 -107 89z" />
    <glyph glyph-name="Uring" unicode="&#x16e;" horiz-adv-x="666" 
d="M64 231v469h148v-459c0 -81 40 -121 121 -121s121 39 121 119v461h148v-469c0 -155 -100 -246 -269 -246s-269 91 -269 246zM183 820c0 39 14 71 42 96c29 25 65 38 108 38s79 -13 108 -38s43 -57 43 -96s-14 -71 -43 -96s-65 -38 -108 -38s-79 13 -108 38
c-28 25 -42 57 -42 96zM402 820c0 40 -28 68 -69 68c-40 0 -68 -28 -68 -68s28 -68 68 -68c41 0 69 28 69 68z" />
    <glyph glyph-name="Utilde" unicode="&#x168;" horiz-adv-x="666" 
d="M64 231v469h148v-459c0 -81 40 -121 121 -121s121 39 121 119v461h148v-469c0 -155 -100 -246 -269 -246s-269 91 -269 246zM321 779c-4 1 -34 16 -50 16c-18 0 -29 -12 -34 -35h-70c3 73 41 118 98 118c28 0 50 -8 82 -23c21 -11 38 -16 49 -16c18 0 29 11 34 34h70
c-3 -75 -41 -118 -97 -118c-27 0 -49 8 -82 24z" />
    <glyph glyph-name="V" unicode="V" horiz-adv-x="643" 
d="M247 0l-252 700h156l170 -493h2l169 493h157l-253 -700h-149z" />
    <glyph glyph-name="W" unicode="W" horiz-adv-x="906" 
d="M159 0l-149 700h151l94 -461h2l128 461h136l128 -461h2l94 461h151l-148 -700h-157l-137 480h-2l-137 -480h-156z" />
    <glyph glyph-name="Wacute" unicode="&#x1e82;" horiz-adv-x="906" 
d="M159 0l-149 700h151l94 -461h2l128 461h136l128 -461h2l94 461h151l-148 -700h-157l-137 480h-2l-137 -480h-156zM380 760l92 138h147l-122 -138h-117z" />
    <glyph glyph-name="Wcircumflex" unicode="&#x174;" horiz-adv-x="906" 
d="M159 0l-149 700h151l94 -461h2l128 461h136l128 -461h2l94 461h151l-148 -700h-157l-137 480h-2l-137 -480h-156zM598 798l-76 -58l-68 88l-69 -88l-76 58l70 88h149z" />
    <glyph glyph-name="Wdieresis" unicode="&#x1e84;" horiz-adv-x="906" 
d="M159 0l-149 700h151l94 -461h2l128 461h136l128 -461h2l94 461h151l-148 -700h-157l-137 480h-2l-137 -480h-156zM284 750v128h130v-128h-130zM491 750v128h130v-128h-130z" />
    <glyph glyph-name="Wgrave" unicode="&#x1e80;" horiz-adv-x="906" 
d="M159 0l-149 700h151l94 -461h2l128 461h136l128 -461h2l94 461h151l-148 -700h-157l-137 480h-2l-137 -480h-156zM408 760l-122 138h147l92 -138h-117z" />
    <glyph glyph-name="X" unicode="X" horiz-adv-x="613" 
d="M0 0l221 355l-215 345h166l133 -236h2l134 236h166l-215 -345l221 -355h-167l-139 247h-2l-139 -247h-166z" />
    <glyph glyph-name="Y" unicode="Y" horiz-adv-x="597" 
d="M225 0v285l-235 415h159l148 -286h2l150 286h158l-234 -415v-285h-148z" />
    <glyph glyph-name="Yacute" unicode="&#xdd;" horiz-adv-x="597" 
d="M225 0v285l-235 415h159l148 -286h2l150 286h158l-234 -415v-285h-148zM226 760l92 138h147l-122 -138h-117z" />
    <glyph glyph-name="Ycircumflex" unicode="&#x176;" horiz-adv-x="597" 
d="M225 0v285l-235 415h159l148 -286h2l150 286h158l-234 -415v-285h-148zM444 798l-76 -58l-68 88l-69 -88l-76 58l70 88h149z" />
    <glyph glyph-name="Ydieresis" unicode="&#x178;" horiz-adv-x="597" 
d="M225 0v285l-235 415h159l148 -286h2l150 286h158l-234 -415v-285h-148zM130 750v128h130v-128h-130zM337 750v128h130v-128h-130z" />
    <glyph glyph-name="uni1EF4" unicode="&#x1ef4;" horiz-adv-x="597" 
d="M225 0v285l-235 415h159l148 -286h2l150 286h158l-234 -415v-285h-148zM233 -177v128h130v-128h-130z" />
    <glyph glyph-name="Ygrave" unicode="&#x1ef2;" horiz-adv-x="597" 
d="M225 0v285l-235 415h159l148 -286h2l150 286h158l-234 -415v-285h-148zM254 760l-122 138h147l92 -138h-117z" />
    <glyph glyph-name="uni1EF8" unicode="&#x1ef8;" horiz-adv-x="597" 
d="M225 0v285l-235 415h159l148 -286h2l150 286h158l-234 -415v-285h-148zM286 779c-4 1 -34 16 -50 16c-18 0 -29 -12 -34 -35h-70c3 73 41 118 98 118c28 0 50 -8 82 -23c21 -11 38 -16 49 -16c18 0 29 11 34 34h70c-3 -75 -41 -118 -97 -118c-27 0 -49 8 -82 24z" />
    <glyph glyph-name="Z" unicode="Z" horiz-adv-x="583" 
d="M35 0v122l328 440v2h-318v136h503v-122l-328 -440v-2h327v-136h-512z" />
    <glyph glyph-name="Zacute" unicode="&#x179;" horiz-adv-x="583" 
d="M35 0v122l328 440v2h-318v136h503v-122l-328 -440v-2h327v-136h-512zM224 760l92 138h147l-122 -138h-117z" />
    <glyph glyph-name="Zcaron" unicode="&#x17d;" horiz-adv-x="583" 
d="M35 0v122l328 440v2h-318v136h503v-122l-328 -440v-2h327v-136h-512zM366 896l76 -58l-70 -88h-149l-70 88l76 58l69 -87z" />
    <glyph glyph-name="Zdotaccent" unicode="&#x17b;" horiz-adv-x="583" 
d="M35 0v122l328 440v2h-318v136h503v-122l-328 -440v-2h327v-136h-512zM231 760v128h130v-128h-130z" />
    <glyph glyph-name="uni1E92" unicode="&#x1e92;" horiz-adv-x="583" 
d="M35 0v122l328 440v2h-318v136h503v-122l-328 -440v-2h327v-136h-512zM225 -177v128h130v-128h-130z" />
    <glyph glyph-name="a" unicode="a" horiz-adv-x="522" 
d="M35 144c0 89 53 137 189 170c84 20 110 35 110 63c0 31 -26 49 -73 49c-55 0 -90 -30 -101 -85l-131 29c8 53 33 95 76 127s95 48 156 48c133 0 217 -77 217 -201v-344h-128v42h-2c-25 -37 -75 -57 -139 -57c-105 0 -174 63 -174 159zM339 179v77h-2
c-9 -16 -31 -29 -79 -42c-64 -17 -86 -33 -86 -61c0 -32 22 -48 65 -48c60 0 102 30 102 74z" />
    <glyph glyph-name="aacute" unicode="&#xe1;" horiz-adv-x="522" 
d="M35 144c0 89 53 137 189 170c84 20 110 35 110 63c0 31 -26 49 -73 49c-55 0 -90 -30 -101 -85l-131 29c8 53 33 95 76 127s95 48 156 48c133 0 217 -77 217 -201v-344h-128v42h-2c-25 -37 -75 -57 -139 -57c-105 0 -174 63 -174 159zM339 179v77h-2
c-9 -16 -31 -29 -79 -42c-64 -17 -86 -33 -86 -61c0 -32 22 -48 65 -48c60 0 102 30 102 74zM188 605l92 138h147l-122 -138h-117z" />
    <glyph glyph-name="abreve" unicode="&#x103;" horiz-adv-x="522" 
d="M35 144c0 89 53 137 189 170c84 20 110 35 110 63c0 31 -26 49 -73 49c-55 0 -90 -30 -101 -85l-131 29c8 53 33 95 76 127s95 48 156 48c133 0 217 -77 217 -201v-344h-128v42h-2c-25 -37 -75 -57 -139 -57c-105 0 -174 63 -174 159zM339 179v77h-2
c-9 -16 -31 -29 -79 -42c-64 -17 -86 -33 -86 -61c0 -32 22 -48 65 -48c60 0 102 30 102 74zM113 733h74c9 -32 36 -50 75 -50c37 0 65 18 73 50h74c-4 -84 -62 -138 -147 -138c-87 0 -145 54 -149 138z" />
    <glyph glyph-name="uni01CE" unicode="&#x1ce;" horiz-adv-x="522" 
d="M35 144c0 89 53 137 189 170c84 20 110 35 110 63c0 31 -26 49 -73 49c-55 0 -90 -30 -101 -85l-131 29c8 53 33 95 76 127s95 48 156 48c133 0 217 -77 217 -201v-344h-128v42h-2c-25 -37 -75 -57 -139 -57c-105 0 -174 63 -174 159zM339 179v77h-2
c-9 -16 -31 -29 -79 -42c-64 -17 -86 -33 -86 -61c0 -32 22 -48 65 -48c60 0 102 30 102 74zM330 741l76 -58l-70 -88h-149l-70 88l76 58l69 -87z" />
    <glyph glyph-name="acircumflex" unicode="&#xe2;" horiz-adv-x="522" 
d="M35 144c0 89 53 137 189 170c84 20 110 35 110 63c0 31 -26 49 -73 49c-55 0 -90 -30 -101 -85l-131 29c8 53 33 95 76 127s95 48 156 48c133 0 217 -77 217 -201v-344h-128v42h-2c-25 -37 -75 -57 -139 -57c-105 0 -174 63 -174 159zM339 179v77h-2
c-9 -16 -31 -29 -79 -42c-64 -17 -86 -33 -86 -61c0 -32 22 -48 65 -48c60 0 102 30 102 74zM406 643l-76 -58l-68 88l-69 -88l-76 58l70 88h149z" />
    <glyph glyph-name="uni1EAD" unicode="&#x1ead;" horiz-adv-x="522" 
d="M35 144c0 89 53 137 189 170c84 20 110 35 110 63c0 31 -26 49 -73 49c-55 0 -90 -30 -101 -85l-131 29c8 53 33 95 76 127s95 48 156 48c133 0 217 -77 217 -201v-344h-128v42h-2c-25 -37 -75 -57 -139 -57c-105 0 -174 63 -174 159zM339 179v77h-2
c-9 -16 -31 -29 -79 -42c-64 -17 -86 -33 -86 -61c0 -32 22 -48 65 -48c60 0 102 30 102 74zM406 643l-76 -58l-68 88l-69 -88l-76 58l70 88h149zM201 -192v128h130v-128h-130z" />
    <glyph glyph-name="adieresis" unicode="&#xe4;" horiz-adv-x="522" 
d="M35 144c0 89 53 137 189 170c84 20 110 35 110 63c0 31 -26 49 -73 49c-55 0 -90 -30 -101 -85l-131 29c8 53 33 95 76 127s95 48 156 48c133 0 217 -77 217 -201v-344h-128v42h-2c-25 -37 -75 -57 -139 -57c-105 0 -174 63 -174 159zM339 179v77h-2
c-9 -16 -31 -29 -79 -42c-64 -17 -86 -33 -86 -61c0 -32 22 -48 65 -48c60 0 102 30 102 74zM92 595v128h130v-128h-130zM299 595v128h130v-128h-130z" />
    <glyph glyph-name="uni01DF" unicode="&#x1df;" horiz-adv-x="522" 
d="M35 144c0 89 53 137 189 170c84 20 110 35 110 63c0 31 -26 49 -73 49c-55 0 -90 -30 -101 -85l-131 29c8 53 33 95 76 127s95 48 156 48c133 0 217 -77 217 -201v-344h-128v42h-2c-25 -37 -75 -57 -139 -57c-105 0 -174 63 -174 159zM339 179v77h-2
c-9 -16 -31 -29 -79 -42c-64 -17 -86 -33 -86 -61c0 -32 22 -48 65 -48c60 0 102 30 102 74zM92 595v128h130v-128h-130zM299 595v128h130v-128h-130zM102 763v87h317v-87h-317z" />
    <glyph glyph-name="uni1EA1" unicode="&#x1ea1;" horiz-adv-x="522" 
d="M35 144c0 89 53 137 189 170c84 20 110 35 110 63c0 31 -26 49 -73 49c-55 0 -90 -30 -101 -85l-131 29c8 53 33 95 76 127s95 48 156 48c133 0 217 -77 217 -201v-344h-128v42h-2c-25 -37 -75 -57 -139 -57c-105 0 -174 63 -174 159zM339 179v77h-2
c-9 -16 -31 -29 -79 -42c-64 -17 -86 -33 -86 -61c0 -32 22 -48 65 -48c60 0 102 30 102 74zM201 -192v128h130v-128h-130z" />
    <glyph glyph-name="agrave" unicode="&#xe0;" horiz-adv-x="522" 
d="M35 144c0 89 53 137 189 170c84 20 110 35 110 63c0 31 -26 49 -73 49c-55 0 -90 -30 -101 -85l-131 29c8 53 33 95 76 127s95 48 156 48c133 0 217 -77 217 -201v-344h-128v42h-2c-25 -37 -75 -57 -139 -57c-105 0 -174 63 -174 159zM339 179v77h-2
c-9 -16 -31 -29 -79 -42c-64 -17 -86 -33 -86 -61c0 -32 22 -48 65 -48c60 0 102 30 102 74zM216 605l-122 138h147l92 -138h-117z" />
    <glyph glyph-name="amacron" unicode="&#x101;" horiz-adv-x="522" 
d="M35 144c0 89 53 137 189 170c84 20 110 35 110 63c0 31 -26 49 -73 49c-55 0 -90 -30 -101 -85l-131 29c8 53 33 95 76 127s95 48 156 48c133 0 217 -77 217 -201v-344h-128v42h-2c-25 -37 -75 -57 -139 -57c-105 0 -174 63 -174 159zM339 179v77h-2
c-9 -16 -31 -29 -79 -42c-64 -17 -86 -33 -86 -61c0 -32 22 -48 65 -48c60 0 102 30 102 74zM102 605v87h317v-87h-317z" />
    <glyph glyph-name="aogonek" unicode="&#x105;" horiz-adv-x="522" 
d="M35 144c0 89 53 137 189 170c84 20 110 35 110 63c0 31 -26 49 -73 49c-55 0 -90 -30 -101 -85l-131 29c8 53 33 95 76 127s95 48 156 48c133 0 217 -77 217 -201v-344h-128v42h-2c-25 -37 -75 -57 -139 -57c-105 0 -174 63 -174 159zM339 179v77h-2
c-9 -16 -31 -29 -79 -42c-64 -17 -86 -33 -86 -61c0 -32 22 -48 65 -48c60 0 102 30 102 74zM295 -123c0 52 37 98 110 139l58 -16c-45 -29 -73 -64 -73 -93c0 -19 10 -28 29 -28c17 0 35 6 54 18l37 -81c-35 -19 -71 -28 -108 -28c-67 0 -107 33 -107 89z" />
    <glyph glyph-name="aring" unicode="&#xe5;" horiz-adv-x="522" 
d="M127 685c0 69 58 121 135 121s136 -52 136 -121s-57 -120 -136 -120c-77 0 -135 51 -135 120zM324 685c0 36 -25 61 -62 61c-36 0 -61 -25 -61 -61s25 -61 61 -61c37 0 62 25 62 61zM35 144c0 89 53 137 189 170c84 20 110 35 110 63c0 31 -26 49 -73 49
c-55 0 -90 -30 -101 -85l-131 29c8 53 33 95 76 127s95 48 156 48c133 0 217 -77 217 -201v-344h-128v42h-2c-25 -37 -75 -57 -139 -57c-105 0 -174 63 -174 159zM339 179v77h-2c-9 -16 -31 -29 -79 -42c-64 -17 -86 -33 -86 -61c0 -32 22 -48 65 -48c60 0 102 30 102 74z
" />
    <glyph glyph-name="aringacute" unicode="&#x1fb;" horiz-adv-x="532" 
d="M127 694c0 51 33 93 82 112l82 123h147l-112 -127c44 -20 72 -60 72 -108c0 -69 -57 -120 -136 -120c-77 0 -135 51 -135 120zM324 694c0 36 -25 61 -62 61c-36 0 -61 -25 -61 -61s25 -61 61 -61c37 0 62 25 62 61zM478 344v-344h-128v42h-2c-25 -37 -75 -57 -139 -57
c-105 0 -174 63 -174 159c0 89 53 137 189 170c84 20 110 35 110 63c0 31 -26 49 -73 49c-55 0 -90 -30 -101 -85l-131 29c8 53 33 95 76 127s95 48 156 48c133 0 217 -77 217 -201zM339 179v77h-2c-9 -16 -31 -29 -79 -42c-64 -17 -86 -33 -86 -61c0 -32 22 -48 65 -48
c60 0 102 30 102 74z" />
    <glyph glyph-name="atilde" unicode="&#xe3;" horiz-adv-x="522" 
d="M35 144c0 89 53 137 189 170c84 20 110 35 110 63c0 31 -26 49 -73 49c-55 0 -90 -30 -101 -85l-131 29c8 53 33 95 76 127s95 48 156 48c133 0 217 -77 217 -201v-344h-128v42h-2c-25 -37 -75 -57 -139 -57c-105 0 -174 63 -174 159zM339 179v77h-2
c-9 -16 -31 -29 -79 -42c-64 -17 -86 -33 -86 -61c0 -32 22 -48 65 -48c60 0 102 30 102 74zM248 624c-4 1 -34 16 -50 16c-18 0 -29 -12 -34 -35h-70c3 73 41 118 98 118c28 0 50 -8 82 -23c21 -11 38 -16 49 -16c18 0 29 11 34 34h70c-3 -75 -41 -118 -97 -118
c-27 0 -49 8 -82 24z" />
    <glyph glyph-name="ae" unicode="&#xe6;" horiz-adv-x="858" 
d="M829 266v-43h-350c4 -75 43 -118 110 -118c49 0 86 24 129 81l94 -86c-53 -77 -127 -115 -223 -115c-77 0 -137 27 -180 81c-41 -53 -103 -81 -194 -81c-107 0 -180 60 -180 155c0 38 9 68 28 91c39 47 88 63 168 84c73 20 105 31 105 63s-27 52 -76 52
c-53 0 -92 -31 -103 -88l-128 28c8 52 33 94 75 126c43 33 95 49 156 49c75 0 129 -22 163 -65c41 43 95 65 162 65c141 0 244 -114 244 -279zM479 324h211c-5 65 -44 102 -105 102c-59 0 -101 -41 -106 -102zM341 178v80h-2c-9 -19 -32 -27 -80 -42
c-59 -17 -90 -31 -90 -64s23 -50 69 -50c61 0 103 31 103 76z" />
    <glyph glyph-name="aeacute" unicode="&#x1fd;" horiz-adv-x="858" 
d="M829 266v-43h-350c4 -75 43 -118 110 -118c49 0 86 24 129 81l94 -86c-53 -77 -127 -115 -223 -115c-77 0 -137 27 -180 81c-41 -53 -103 -81 -194 -81c-107 0 -180 60 -180 155c0 38 9 68 28 91c39 47 88 63 168 84c73 20 105 31 105 63s-27 52 -76 52
c-53 0 -92 -31 -103 -88l-128 28c8 52 33 94 75 126c43 33 95 49 156 49c75 0 129 -22 163 -65c41 43 95 65 162 65c141 0 244 -114 244 -279zM479 324h211c-5 65 -44 102 -105 102c-59 0 -101 -41 -106 -102zM341 178v80h-2c-9 -19 -32 -27 -80 -42
c-59 -17 -90 -31 -90 -64s23 -50 69 -50c61 0 103 31 103 76zM355 590l92 138h147l-122 -138h-117z" />
    <glyph glyph-name="b" unicode="b" horiz-adv-x="596" 
d="M184 47h-2v-47h-132v730h143v-232h2c33 31 78 47 135 47c137 0 237 -119 237 -280s-100 -280 -237 -280c-61 0 -115 26 -146 62zM424 265c0 95 -44 149 -121 149c-64 0 -110 -46 -110 -111v-76c0 -64 46 -111 110 -111c77 0 121 54 121 149z" />
    <glyph glyph-name="uni1E05" unicode="&#x1e05;" horiz-adv-x="596" 
d="M184 47h-2v-47h-132v730h143v-232h2c33 31 78 47 135 47c137 0 237 -119 237 -280s-100 -280 -237 -280c-61 0 -115 26 -146 62zM424 265c0 95 -44 149 -121 149c-64 0 -110 -46 -110 -111v-76c0 -64 46 -111 110 -111c77 0 121 54 121 149zM246 -192v128h130v-128h-130z
" />
    <glyph glyph-name="c" unicode="c" horiz-adv-x="550" 
d="M29 265c0 166 108 280 257 280c128 0 220 -76 239 -196l-135 -24c-11 59 -47 90 -104 90c-71 0 -114 -55 -114 -150s43 -150 114 -150c59 0 93 31 104 90l135 -24c-19 -120 -111 -196 -239 -196c-149 0 -257 114 -257 280z" />
    <glyph glyph-name="cacute" unicode="&#x107;" horiz-adv-x="550" 
d="M29 265c0 166 108 280 257 280c128 0 220 -76 239 -196l-135 -24c-11 59 -47 90 -104 90c-71 0 -114 -55 -114 -150s43 -150 114 -150c59 0 93 31 104 90l135 -24c-19 -120 -111 -196 -239 -196c-149 0 -257 114 -257 280zM213 605l92 138h147l-122 -138h-117z" />
    <glyph glyph-name="ccaron" unicode="&#x10d;" horiz-adv-x="550" 
d="M29 265c0 166 108 280 257 280c128 0 220 -76 239 -196l-135 -24c-11 59 -47 90 -104 90c-71 0 -114 -55 -114 -150s43 -150 114 -150c59 0 93 31 104 90l135 -24c-19 -120 -111 -196 -239 -196c-149 0 -257 114 -257 280zM355 741l76 -58l-70 -88h-149l-70 88l76 58
l69 -87z" />
    <glyph glyph-name="ccedilla" unicode="&#xe7;" horiz-adv-x="550" 
d="M29 265c0 166 108 280 257 280c128 0 220 -76 239 -196l-135 -24c-11 59 -47 90 -104 90c-71 0 -114 -55 -114 -150s43 -150 114 -150c59 0 93 31 104 90l135 -24c-19 -120 -111 -196 -239 -196c-149 0 -257 114 -257 280zM418 -149c0 -67 -47 -109 -120 -109
c-43 0 -81 13 -114 40l46 65c24 -18 45 -27 63 -27c25 0 43 16 43 37c0 20 -15 32 -42 32c-19 0 -36 -7 -50 -21l-55 24l71 127l56 -28l-25 -42c8 1 15 2 20 2c63 0 107 -41 107 -100z" />
    <glyph glyph-name="ccircumflex" unicode="&#x109;" horiz-adv-x="550" 
d="M29 265c0 166 108 280 257 280c128 0 220 -76 239 -196l-135 -24c-11 59 -47 90 -104 90c-71 0 -114 -55 -114 -150s43 -150 114 -150c59 0 93 31 104 90l135 -24c-19 -120 -111 -196 -239 -196c-149 0 -257 114 -257 280zM431 643l-76 -58l-68 88l-69 -88l-76 58l70 88
h149z" />
    <glyph glyph-name="cdotaccent" unicode="&#x10b;" horiz-adv-x="550" 
d="M29 265c0 166 108 280 257 280c128 0 220 -76 239 -196l-135 -24c-11 59 -47 90 -104 90c-71 0 -114 -55 -114 -150s43 -150 114 -150c59 0 93 31 104 90l135 -24c-19 -120 -111 -196 -239 -196c-149 0 -257 114 -257 280zM220 605v128h130v-128h-130z" />
    <glyph glyph-name="d" unicode="d" horiz-adv-x="596" 
d="M29 265c0 161 100 280 237 280c57 0 102 -16 135 -47h2v232h143v-730h-132v47h-2c-31 -36 -85 -62 -146 -62c-137 0 -237 119 -237 280zM403 227v76c0 65 -46 111 -110 111c-77 0 -121 -54 -121 -149s44 -149 121 -149c64 0 110 47 110 111z" />
    <glyph glyph-name="eth" unicode="&#xf0;" horiz-adv-x="583" 
d="M554 279c0 -179 -104 -294 -263 -294c-155 0 -262 114 -262 280c0 161 103 280 244 280c49 0 89 -12 119 -37h2c-18 46 -40 86 -67 120l-139 -40l-17 57l115 34c-25 29 -56 60 -93 94v2h136c24 -25 44 -48 60 -68l136 40l17 -56l-117 -33c83 -121 129 -256 129 -379z
M411 265c0 95 -45 150 -120 150s-119 -55 -119 -150s44 -150 119 -150s120 55 120 150z" />
    <glyph glyph-name="dcaron" unicode="&#x10f;" horiz-adv-x="728" 
d="M29 265c0 161 100 280 237 280c57 0 102 -16 135 -47h2v232h143v-730h-132v47h-2c-31 -36 -85 -62 -146 -62c-137 0 -237 119 -237 280zM403 227v76c0 65 -46 111 -110 111c-77 0 -121 -54 -121 -149s44 -149 121 -149c64 0 110 47 110 111zM602 494v59c32 9 42 25 42 58
h-47v118h131v-104c0 -76 -42 -122 -126 -131z" />
    <glyph glyph-name="dcroat" unicode="&#x111;" horiz-adv-x="596" 
d="M29 265c0 161 100 280 237 280c57 0 102 -16 135 -47h2v232h143v-730h-132v47h-2c-31 -36 -85 -62 -146 -62c-137 0 -237 119 -237 280zM403 227v76c0 65 -46 111 -110 111c-77 0 -121 -54 -121 -149s44 -149 121 -149c64 0 110 47 110 111zM236 576v96h365v-96h-365z
" />
    <glyph glyph-name="uni1E0D" unicode="&#x1e0d;" horiz-adv-x="596" 
d="M29 265c0 161 100 280 237 280c57 0 102 -16 135 -47h2v232h143v-730h-132v47h-2c-31 -36 -85 -62 -146 -62c-137 0 -237 119 -237 280zM403 227v76c0 65 -46 111 -110 111c-77 0 -121 -54 -121 -149s44 -149 121 -149c64 0 110 47 110 111zM237 -177v128h130v-128h-130z
" />
    <glyph glyph-name="e" unicode="e" horiz-adv-x="557" 
d="M29 265c0 165 104 280 250 280c147 0 249 -113 249 -280v-42h-355c4 -75 44 -118 109 -118c52 0 91 24 128 79l101 -79c-51 -80 -128 -120 -229 -120c-149 0 -253 113 -253 280zM173 324h216c-5 64 -44 101 -109 101c-59 0 -102 -40 -107 -101z" />
    <glyph glyph-name="eacute" unicode="&#xe9;" horiz-adv-x="557" 
d="M29 265c0 165 104 280 250 280c147 0 249 -113 249 -280v-42h-355c4 -75 44 -118 109 -118c52 0 91 24 128 79l101 -79c-51 -80 -128 -120 -229 -120c-149 0 -253 113 -253 280zM173 324h216c-5 64 -44 101 -109 101c-59 0 -102 -40 -107 -101zM206 605l92 138h147
l-122 -138h-117z" />
    <glyph glyph-name="ebreve" unicode="&#x115;" horiz-adv-x="557" 
d="M29 265c0 165 104 280 250 280c147 0 249 -113 249 -280v-42h-355c4 -75 44 -118 109 -118c52 0 91 24 128 79l101 -79c-51 -80 -128 -120 -229 -120c-149 0 -253 113 -253 280zM173 324h216c-5 64 -44 101 -109 101c-59 0 -102 -40 -107 -101zM131 733h74
c9 -32 36 -50 75 -50c37 0 65 18 73 50h74c-4 -84 -62 -138 -147 -138c-87 0 -145 54 -149 138z" />
    <glyph glyph-name="ecaron" unicode="&#x11b;" horiz-adv-x="557" 
d="M29 265c0 165 104 280 250 280c147 0 249 -113 249 -280v-42h-355c4 -75 44 -118 109 -118c52 0 91 24 128 79l101 -79c-51 -80 -128 -120 -229 -120c-149 0 -253 113 -253 280zM173 324h216c-5 64 -44 101 -109 101c-59 0 -102 -40 -107 -101zM348 741l76 -58l-70 -88
h-149l-70 88l76 58l69 -87z" />
    <glyph glyph-name="uni0229" unicode="&#x229;" horiz-adv-x="557" 
d="M29 265c0 165 104 280 250 280c147 0 249 -113 249 -280v-42h-355c4 -75 44 -118 109 -118c52 0 91 24 128 79l101 -79c-51 -80 -128 -120 -229 -120c-149 0 -253 113 -253 280zM173 324h216c-5 64 -44 101 -109 101c-59 0 -102 -40 -107 -101zM414 -149
c0 -67 -47 -109 -120 -109c-43 0 -81 13 -114 40l46 65c24 -18 45 -27 63 -27c25 0 43 16 43 37c0 20 -15 32 -42 32c-19 0 -36 -7 -50 -21l-55 24l71 127l56 -28l-25 -42c8 1 15 2 20 2c63 0 107 -41 107 -100z" />
    <glyph glyph-name="ecircumflex" unicode="&#xea;" horiz-adv-x="557" 
d="M29 265c0 165 104 280 250 280c147 0 249 -113 249 -280v-42h-355c4 -75 44 -118 109 -118c52 0 91 24 128 79l101 -79c-51 -80 -128 -120 -229 -120c-149 0 -253 113 -253 280zM173 324h216c-5 64 -44 101 -109 101c-59 0 -102 -40 -107 -101zM424 643l-76 -58l-68 88
l-69 -88l-76 58l70 88h149z" />
    <glyph glyph-name="uni1EC7" unicode="&#x1ec7;" horiz-adv-x="557" 
d="M29 265c0 165 104 280 250 280c147 0 249 -113 249 -280v-42h-355c4 -75 44 -118 109 -118c52 0 91 24 128 79l101 -79c-51 -80 -128 -120 -229 -120c-149 0 -253 113 -253 280zM173 324h216c-5 64 -44 101 -109 101c-59 0 -102 -40 -107 -101zM424 643l-76 -58l-68 88
l-69 -88l-76 58l70 88h149zM216 -192v128h130v-128h-130z" />
    <glyph glyph-name="edieresis" unicode="&#xeb;" horiz-adv-x="557" 
d="M29 265c0 165 104 280 250 280c147 0 249 -113 249 -280v-42h-355c4 -75 44 -118 109 -118c52 0 91 24 128 79l101 -79c-51 -80 -128 -120 -229 -120c-149 0 -253 113 -253 280zM173 324h216c-5 64 -44 101 -109 101c-59 0 -102 -40 -107 -101zM110 595v128h130v-128
h-130zM317 595v128h130v-128h-130z" />
    <glyph glyph-name="edotaccent" unicode="&#x117;" horiz-adv-x="557" 
d="M29 265c0 165 104 280 250 280c147 0 249 -113 249 -280v-42h-355c4 -75 44 -118 109 -118c52 0 91 24 128 79l101 -79c-51 -80 -128 -120 -229 -120c-149 0 -253 113 -253 280zM173 324h216c-5 64 -44 101 -109 101c-59 0 -102 -40 -107 -101zM213 605v128h130v-128
h-130z" />
    <glyph glyph-name="uni1EB9" unicode="&#x1eb9;" horiz-adv-x="557" 
d="M29 265c0 165 104 280 250 280c147 0 249 -113 249 -280v-42h-355c4 -75 44 -118 109 -118c52 0 91 24 128 79l101 -79c-51 -80 -128 -120 -229 -120c-149 0 -253 113 -253 280zM173 324h216c-5 64 -44 101 -109 101c-59 0 -102 -40 -107 -101zM216 -192v128h130v-128
h-130z" />
    <glyph glyph-name="egrave" unicode="&#xe8;" horiz-adv-x="557" 
d="M29 265c0 165 104 280 250 280c147 0 249 -113 249 -280v-42h-355c4 -75 44 -118 109 -118c52 0 91 24 128 79l101 -79c-51 -80 -128 -120 -229 -120c-149 0 -253 113 -253 280zM173 324h216c-5 64 -44 101 -109 101c-59 0 -102 -40 -107 -101zM234 605l-122 138h147
l92 -138h-117z" />
    <glyph glyph-name="emacron" unicode="&#x113;" horiz-adv-x="557" 
d="M29 265c0 165 104 280 250 280c147 0 249 -113 249 -280v-42h-355c4 -75 44 -118 109 -118c52 0 91 24 128 79l101 -79c-51 -80 -128 -120 -229 -120c-149 0 -253 113 -253 280zM173 324h216c-5 64 -44 101 -109 101c-59 0 -102 -40 -107 -101zM120 605v87h317v-87h-317z
" />
    <glyph glyph-name="eogonek" unicode="&#x119;" horiz-adv-x="557" 
d="M29 265c0 165 104 280 250 280c147 0 249 -113 249 -280v-42h-355c4 -75 44 -118 109 -118c52 0 91 24 128 79l101 -79c-51 -80 -128 -120 -229 -120c-149 0 -253 113 -253 280zM173 324h216c-5 64 -44 101 -109 101c-59 0 -102 -40 -107 -101zM211 -123
c0 52 37 98 110 139l58 -16c-45 -29 -73 -64 -73 -93c0 -19 10 -28 29 -28c17 0 35 6 54 18l37 -81c-35 -19 -71 -28 -108 -28c-67 0 -107 33 -107 89z" />
    <glyph glyph-name="uni0258" unicode="&#x258;" horiz-adv-x="557" 
d="M46 105l101 79c37 -55 76 -79 128 -79c65 0 105 43 109 118h-355v42c0 167 102 280 249 280c146 0 250 -115 250 -280c0 -167 -104 -280 -253 -280c-101 0 -178 40 -229 120zM277 425c-65 0 -104 -37 -109 -101h216c-5 61 -48 101 -107 101z" />
    <glyph glyph-name="uni1EBD" unicode="&#x1ebd;" horiz-adv-x="557" 
d="M29 265c0 165 104 280 250 280c147 0 249 -113 249 -280v-42h-355c4 -75 44 -118 109 -118c52 0 91 24 128 79l101 -79c-51 -80 -128 -120 -229 -120c-149 0 -253 113 -253 280zM173 324h216c-5 64 -44 101 -109 101c-59 0 -102 -40 -107 -101zM266 624
c-4 1 -34 16 -50 16c-18 0 -29 -12 -34 -35h-70c3 73 41 118 98 118c28 0 50 -8 82 -23c21 -11 38 -16 49 -16c18 0 29 11 34 34h70c-3 -75 -41 -118 -97 -118c-27 0 -49 8 -82 24z" />
    <glyph glyph-name="uni0259" unicode="&#x259;" horiz-adv-x="557" 
d="M29 265v42h356c-4 75 -45 118 -110 118c-51 0 -90 -24 -127 -79l-104 76c53 82 130 123 231 123c151 0 253 -113 253 -280c0 -165 -102 -280 -249 -280c-148 0 -250 113 -250 280zM384 206h-215c5 -64 44 -101 108 -101c59 0 102 40 107 101z" />
    <glyph glyph-name="f" unicode="f" horiz-adv-x="397" 
d="M108 0v404h-103v126h103v54c0 95 59 150 163 150h100v-127h-81c-26 0 -39 -12 -39 -37v-40h142v-126h-142v-404h-143z" />
    <glyph glyph-name="g" unicode="g" horiz-adv-x="591" 
d="M53 -116l108 81c41 -57 78 -79 135 -79c71 0 113 45 113 118v39h-2c-25 -33 -82 -57 -141 -57c-137 0 -237 119 -237 280c0 157 100 274 237 274c59 0 109 -19 141 -52h2v42h138v-531c0 -147 -99 -239 -252 -239c-100 0 -191 47 -242 124zM404 228v71
c0 65 -47 111 -111 111c-76 0 -121 -53 -121 -144c0 -93 45 -149 121 -149c65 0 111 46 111 111z" />
    <glyph glyph-name="gbreve" unicode="&#x11f;" horiz-adv-x="601" 
d="M53 -116l108 81c41 -57 78 -79 135 -79c71 0 113 45 113 118v39h-2c-25 -33 -82 -57 -141 -57c-137 0 -237 119 -237 280c0 157 100 274 237 274c59 0 109 -19 141 -52h2v42h138v-531c0 -147 -99 -239 -252 -239c-100 0 -191 47 -242 124zM404 228v71
c0 65 -47 111 -111 111c-76 0 -121 -53 -121 -144c0 -93 45 -149 121 -149c65 0 111 46 111 111zM148 733h74c9 -32 36 -50 75 -50c37 0 65 18 73 50h74c-4 -84 -62 -138 -147 -138c-87 0 -145 54 -149 138z" />
    <glyph glyph-name="gcircumflex" unicode="&#x11d;" horiz-adv-x="601" 
d="M53 -116l108 81c41 -57 78 -79 135 -79c71 0 113 45 113 118v39h-2c-25 -33 -82 -57 -141 -57c-137 0 -237 119 -237 280c0 157 100 274 237 274c59 0 109 -19 141 -52h2v42h138v-531c0 -147 -99 -239 -252 -239c-100 0 -191 47 -242 124zM404 228v71
c0 65 -47 111 -111 111c-76 0 -121 -53 -121 -144c0 -93 45 -149 121 -149c65 0 111 46 111 111zM432 643l-76 -58l-68 88l-69 -88l-76 58l70 88h149z" />
    <glyph glyph-name="uni0123" unicode="&#x123;" horiz-adv-x="591" 
d="M53 -116l108 81c41 -57 78 -79 135 -79c71 0 113 45 113 118v39h-2c-25 -33 -82 -57 -141 -57c-137 0 -237 119 -237 280c0 157 100 274 237 274c59 0 109 -19 141 -52h2v42h138v-531c0 -147 -99 -239 -252 -239c-100 0 -191 47 -242 124zM404 228v71
c0 65 -47 111 -111 111c-76 0 -121 -53 -121 -144c0 -93 45 -149 121 -149c65 0 111 46 111 111zM344 835v-59c-36 -9 -48 -25 -48 -58h53v-118h-147v104c0 76 47 122 142 131z" />
    <glyph glyph-name="gdotaccent" unicode="&#x121;" horiz-adv-x="591" 
d="M53 -116l108 81c41 -57 78 -79 135 -79c71 0 113 45 113 118v39h-2c-25 -33 -82 -57 -141 -57c-137 0 -237 119 -237 280c0 157 100 274 237 274c59 0 109 -19 141 -52h2v42h138v-531c0 -147 -99 -239 -252 -239c-100 0 -191 47 -242 124zM404 228v71
c0 65 -47 111 -111 111c-76 0 -121 -53 -121 -144c0 -93 45 -149 121 -149c65 0 111 46 111 111zM210 600v128h130v-128h-130z" />
    <glyph glyph-name="h" unicode="h" horiz-adv-x="573" 
d="M50 0v730h143v-247h2c29 39 82 62 139 62c114 0 194 -80 194 -196v-349h-143v314c0 63 -35 99 -96 99c-60 0 -96 -38 -96 -99v-314h-143z" />
    <glyph glyph-name="hbar" unicode="&#x127;" horiz-adv-x="573" 
d="M50 0v730h143v-247h2c29 39 82 62 139 62c114 0 194 -80 194 -196v-349h-143v314c0 63 -35 99 -96 99c-60 0 -96 -38 -96 -99v-314h-143zM-5 576v96h365v-96h-365z" />
    <glyph glyph-name="hcircumflex" unicode="&#x125;" horiz-adv-x="573" 
d="M50 0v730h143v-247h2c29 39 82 62 139 62c114 0 194 -80 194 -196v-349h-143v314c0 63 -35 99 -96 99c-60 0 -96 -38 -96 -99v-314h-143zM453 798l-76 -58l-68 88l-69 -88l-76 58l70 88h149z" />
    <glyph glyph-name="uni1E25" unicode="&#x1e25;" horiz-adv-x="573" 
d="M50 0v730h143v-247h2c29 39 82 62 139 62c114 0 194 -80 194 -196v-349h-143v314c0 63 -35 99 -96 99c-60 0 -96 -38 -96 -99v-314h-143zM223 -177v128h130v-128h-130z" />
    <glyph glyph-name="i" unicode="i" horiz-adv-x="242" 
d="M50 0v530h143v-530h-143zM48 617v140h145v-140h-145z" />
    <glyph glyph-name="dotlessi" unicode="&#x131;" horiz-adv-x="242" 
d="M50 0v530h143v-530h-143z" />
    <glyph glyph-name="iacute" unicode="&#xed;" horiz-adv-x="242" 
d="M50 0v530h143v-530h-143zM48 590l92 138h147l-122 -138h-117z" />
    <glyph glyph-name="ibreve" unicode="&#x12d;" horiz-adv-x="242" 
d="M50 0v530h143v-530h-143zM-27 718h74c9 -32 36 -50 75 -50c37 0 65 18 73 50h74c-4 -84 -62 -138 -147 -138c-87 0 -145 54 -149 138z" />
    <glyph glyph-name="uni01D0" unicode="&#x1d0;" horiz-adv-x="242" 
d="M50 0v530h143v-530h-143zM190 726l76 -58l-70 -88h-149l-70 88l76 58l69 -87z" />
    <glyph glyph-name="icircumflex" unicode="&#xee;" horiz-adv-x="242" 
d="M50 0v530h143v-530h-143zM266 628l-76 -58l-68 88l-69 -88l-76 58l70 88h149z" />
    <glyph glyph-name="idieresis" unicode="&#xef;" horiz-adv-x="242" 
d="M-40 580v128h130v-128h-130zM151 580v128h131v-128h-131zM50 0v530h143v-530h-143z" />
    <glyph glyph-name="i.locl" horiz-adv-x="242" 
d="M50 0v530h143v-530h-143zM48 617v140h145v-140h-145z" />
    <glyph glyph-name="uni1ECB" unicode="&#x1ecb;" horiz-adv-x="242" 
d="M50 0v530h143v-530h-143zM48 617v140h145v-140h-145zM64 -177v128h130v-128h-130z" />
    <glyph glyph-name="igrave" unicode="&#xec;" horiz-adv-x="242" 
d="M50 0v530h143v-530h-143zM76 590l-122 138h147l92 -138h-117z" />
    <glyph glyph-name="imacron" unicode="&#x12b;" horiz-adv-x="242" 
d="M50 0v530h143v-530h-143zM-38 590v87h317v-87h-317z" />
    <glyph glyph-name="iogonek" unicode="&#x12f;" horiz-adv-x="242" 
d="M50 0v530h143v-530h-143zM-3 -123c0 52 37 98 110 139l58 -16c-45 -29 -73 -64 -73 -93c0 -19 10 -28 29 -28c17 0 35 6 54 18l37 -81c-35 -19 -71 -28 -108 -28c-67 0 -107 33 -107 89zM48 617v140h145v-140h-145z" />
    <glyph glyph-name="itilde" unicode="&#x129;" horiz-adv-x="242" 
d="M50 0v530h143v-530h-143zM108 609c-4 1 -34 16 -50 16c-18 0 -29 -12 -34 -35h-70c3 73 41 118 98 118c28 0 50 -8 82 -23c21 -11 38 -16 49 -16c18 0 29 11 34 34h70c-3 -75 -41 -118 -97 -118c-27 0 -49 8 -82 24z" />
    <glyph glyph-name="j" unicode="j" horiz-adv-x="259" 
d="M-37 -202v131h56c36 0 48 11 48 39v562h143v-567c0 -117 -55 -165 -180 -165h-67zM65 617v140h145v-140h-145z" />
    <glyph glyph-name="uni0237" unicode="&#x237;" horiz-adv-x="259" 
d="M-37 -202v131h56c36 0 48 11 48 39v562h143v-567c0 -117 -55 -165 -180 -165h-67z" />
    <glyph glyph-name="jcircumflex" unicode="&#x135;" horiz-adv-x="259" 
d="M-37 -202v131h56c36 0 48 11 48 39v562h143v-567c0 -117 -55 -165 -180 -165h-67zM283 628l-76 -58l-68 88l-69 -88l-76 58l70 88h149z" />
    <glyph glyph-name="k" unicode="k" horiz-adv-x="562" 
d="M50 0v730h143v-400h2l170 200h182l-191 -212l196 -318h-161l-126 223h-2l-70 -82v-141h-143z" />
    <glyph glyph-name="uni0137" unicode="&#x137;" horiz-adv-x="562" 
d="M50 0v730h143v-400h2l170 200h182l-191 -212l196 -318h-161l-126 223h-2l-70 -82v-141h-143zM230 -285v59c32 9 42 25 42 58h-47v118h131v-104c0 -76 -42 -122 -126 -131z" />
    <glyph glyph-name="kgreenlandic" unicode="&#x138;" horiz-adv-x="579" 
d="M50 0v530h143v-200h2l184 200h183l-201 -212l208 -318h-159l-139 223h-2l-76 -82v-141h-143z" />
    <glyph glyph-name="l" unicode="l" horiz-adv-x="242" 
d="M50 0v730h143v-730h-143z" />
    <glyph glyph-name="lacute" unicode="&#x13a;" horiz-adv-x="242" 
d="M50 0v730h143v-730h-143zM48 790l92 138h147l-122 -138h-117z" />
    <glyph glyph-name="lcaron" unicode="&#x13e;" horiz-adv-x="374" 
d="M50 0v730h143v-730h-143zM247 494v59c32 9 42 25 42 58h-47v118h131v-104c0 -76 -42 -122 -126 -131z" />
    <glyph glyph-name="uni013C" unicode="&#x13c;" horiz-adv-x="242" 
d="M50 0v730h143v-730h-143zM61 -285v59c32 9 42 25 42 58h-47v118h131v-104c0 -76 -42 -122 -126 -131z" />
    <glyph glyph-name="ldot" unicode="&#x140;" horiz-adv-x="411" 
d="M50 0v730h143v-730h-143zM241 299v155h160v-155h-160z" />
    <glyph glyph-name="uni1E37" unicode="&#x1e37;" horiz-adv-x="242" 
d="M50 0v730h143v-730h-143zM55 -177v128h130v-128h-130z" />
    <glyph glyph-name="lslash" unicode="&#x142;" horiz-adv-x="361" 
d="M109 0v730h143v-730h-143zM167 328l214 198l-48 54l-166 -154v28l-187 -173l49 -52l138 127v-28z" />
    <glyph glyph-name="m" unicode="m" horiz-adv-x="843" 
d="M50 0v530h132v-47h2c29 39 83 62 139 62c53 0 108 -24 136 -65h2c37 43 84 65 142 65c117 0 196 -87 196 -194v-351h-138v324c0 57 -33 91 -85 91s-86 -37 -86 -94v-321h-132v324c0 57 -33 91 -85 91s-85 -37 -85 -94v-321h-138z" />
    <glyph glyph-name="n" unicode="n" horiz-adv-x="573" 
d="M50 0v530h136v-47h2c31 39 87 62 146 62c58 0 105 -19 140 -56c36 -37 54 -87 54 -150v-339h-143v314c0 63 -35 99 -96 99c-60 0 -96 -38 -96 -99v-314h-143z" />
    <glyph glyph-name="nacute" unicode="&#x144;" horiz-adv-x="573" 
d="M50 0v530h136v-47h2c31 39 87 62 146 62c58 0 105 -19 140 -56c36 -37 54 -87 54 -150v-339h-143v314c0 63 -35 99 -96 99c-60 0 -96 -38 -96 -99v-314h-143zM239 605l92 138h147l-122 -138h-117z" />
    <glyph glyph-name="ncaron" unicode="&#x148;" horiz-adv-x="573" 
d="M50 0v530h136v-47h2c31 39 87 62 146 62c58 0 105 -19 140 -56c36 -37 54 -87 54 -150v-339h-143v314c0 63 -35 99 -96 99c-60 0 -96 -38 -96 -99v-314h-143zM381 741l76 -58l-70 -88h-149l-70 88l76 58l69 -87z" />
    <glyph glyph-name="uni0146" unicode="&#x146;" horiz-adv-x="573" 
d="M50 0v530h136v-47h2c31 39 87 62 146 62c58 0 105 -19 140 -56c36 -37 54 -87 54 -150v-339h-143v314c0 63 -35 99 -96 99c-60 0 -96 -38 -96 -99v-314h-143zM228 -285v59c32 9 42 25 42 58h-47v118h131v-104c0 -76 -42 -122 -126 -131z" />
    <glyph glyph-name="uni1E45" unicode="&#x1e45;" horiz-adv-x="573" 
d="M50 0v530h136v-47h2c31 39 87 62 146 62c58 0 105 -19 140 -56c36 -37 54 -87 54 -150v-339h-143v314c0 63 -35 99 -96 99c-60 0 -96 -38 -96 -99v-314h-143zM246 605v128h130v-128h-130z" />
    <glyph glyph-name="uni1E47" unicode="&#x1e47;" horiz-adv-x="573" 
d="M50 0v530h136v-47h2c31 39 87 62 146 62c58 0 105 -19 140 -56c36 -37 54 -87 54 -150v-339h-143v314c0 63 -35 99 -96 99c-60 0 -96 -38 -96 -99v-314h-143zM223 -177v128h130v-128h-130z" />
    <glyph glyph-name="eng" unicode="&#x14b;" horiz-adv-x="573" 
d="M528 339v-382c0 -113 -54 -158 -178 -158h-48v130h46c27 0 37 11 37 40v345c0 63 -35 99 -96 99c-60 0 -96 -38 -96 -99v-314h-143v530h136v-47h2c31 39 87 62 146 62c58 0 105 -19 140 -56c36 -37 54 -87 54 -150z" />
    <glyph glyph-name="ntilde" unicode="&#xf1;" horiz-adv-x="573" 
d="M50 0v530h136v-47h2c31 39 87 62 146 62c58 0 105 -19 140 -56c36 -37 54 -87 54 -150v-339h-143v314c0 63 -35 99 -96 99c-60 0 -96 -38 -96 -99v-314h-143zM299 624c-4 1 -34 16 -50 16c-18 0 -29 -12 -34 -35h-70c3 73 41 118 98 118c28 0 50 -8 82 -23
c21 -11 38 -16 49 -16c18 0 29 11 34 34h70c-3 -75 -41 -118 -97 -118c-27 0 -49 8 -82 24z" />
    <glyph glyph-name="o" unicode="o" horiz-adv-x="583" 
d="M29 265c0 166 107 280 262 280c156 0 263 -113 263 -280s-107 -280 -263 -280c-155 0 -262 114 -262 280zM411 265c0 95 -44 150 -120 150c-75 0 -119 -55 -119 -150s44 -150 119 -150c76 0 120 55 120 150z" />
    <glyph glyph-name="oacute" unicode="&#xf3;" horiz-adv-x="583" 
d="M29 265c0 166 107 280 262 280c156 0 263 -113 263 -280s-107 -280 -263 -280c-155 0 -262 114 -262 280zM411 265c0 95 -44 150 -120 150c-75 0 -119 -55 -119 -150s44 -150 119 -150c76 0 120 55 120 150zM218 605l92 138h147l-122 -138h-117z" />
    <glyph glyph-name="obreve" unicode="&#x14f;" horiz-adv-x="583" 
d="M29 265c0 166 107 280 262 280c156 0 263 -113 263 -280s-107 -280 -263 -280c-155 0 -262 114 -262 280zM411 265c0 95 -44 150 -120 150c-75 0 -119 -55 -119 -150s44 -150 119 -150c76 0 120 55 120 150zM143 733h74c9 -32 36 -50 75 -50c37 0 65 18 73 50h74
c-4 -84 -62 -138 -147 -138c-87 0 -145 54 -149 138z" />
    <glyph glyph-name="uni01D2" unicode="&#x1d2;" horiz-adv-x="583" 
d="M29 265c0 166 107 280 262 280c156 0 263 -113 263 -280s-107 -280 -263 -280c-155 0 -262 114 -262 280zM411 265c0 95 -44 150 -120 150c-75 0 -119 -55 -119 -150s44 -150 119 -150c76 0 120 55 120 150zM360 741l76 -58l-70 -88h-149l-70 88l76 58l69 -87z" />
    <glyph glyph-name="ocircumflex" unicode="&#xf4;" horiz-adv-x="583" 
d="M29 265c0 166 107 280 262 280c156 0 263 -113 263 -280s-107 -280 -263 -280c-155 0 -262 114 -262 280zM411 265c0 95 -44 150 -120 150c-75 0 -119 -55 -119 -150s44 -150 119 -150c76 0 120 55 120 150zM436 643l-76 -58l-68 88l-69 -88l-76 58l70 88h149z" />
    <glyph glyph-name="uni1ED9" unicode="&#x1ed9;" horiz-adv-x="583" 
d="M29 265c0 166 107 280 262 280c156 0 263 -113 263 -280s-107 -280 -263 -280c-155 0 -262 114 -262 280zM411 265c0 95 -44 150 -120 150c-75 0 -119 -55 -119 -150s44 -150 119 -150c76 0 120 55 120 150zM436 643l-76 -58l-68 88l-69 -88l-76 58l70 88h149zM225 -192
v128h130v-128h-130z" />
    <glyph glyph-name="odieresis" unicode="&#xf6;" horiz-adv-x="583" 
d="M29 265c0 166 107 280 262 280c156 0 263 -113 263 -280s-107 -280 -263 -280c-155 0 -262 114 -262 280zM411 265c0 95 -44 150 -120 150c-75 0 -119 -55 -119 -150s44 -150 119 -150c76 0 120 55 120 150zM122 595v128h130v-128h-130zM329 595v128h130v-128h-130z" />
    <glyph glyph-name="uni1ECD" unicode="&#x1ecd;" horiz-adv-x="583" 
d="M29 265c0 166 107 280 262 280c156 0 263 -113 263 -280s-107 -280 -263 -280c-155 0 -262 114 -262 280zM411 265c0 95 -44 150 -120 150c-75 0 -119 -55 -119 -150s44 -150 119 -150c76 0 120 55 120 150zM225 -192v128h130v-128h-130z" />
    <glyph glyph-name="ograve" unicode="&#xf2;" horiz-adv-x="583" 
d="M29 265c0 166 107 280 262 280c156 0 263 -113 263 -280s-107 -280 -263 -280c-155 0 -262 114 -262 280zM411 265c0 95 -44 150 -120 150c-75 0 -119 -55 -119 -150s44 -150 119 -150c76 0 120 55 120 150zM246 605l-122 138h147l92 -138h-117z" />
    <glyph glyph-name="ohungarumlaut" unicode="&#x151;" horiz-adv-x="583" 
d="M29 265c0 166 107 280 262 280c156 0 263 -113 263 -280s-107 -280 -263 -280c-155 0 -262 114 -262 280zM411 265c0 95 -44 150 -120 150c-75 0 -119 -55 -119 -150s44 -150 119 -150c76 0 120 55 120 150zM117 605l92 138h141l-121 -138h-112zM313 605l92 138h142
l-122 -138h-112z" />
    <glyph glyph-name="omacron" unicode="&#x14d;" horiz-adv-x="583" 
d="M29 265c0 166 107 280 262 280c156 0 263 -113 263 -280s-107 -280 -263 -280c-155 0 -262 114 -262 280zM411 265c0 95 -44 150 -120 150c-75 0 -119 -55 -119 -150s44 -150 119 -150c76 0 120 55 120 150zM132 605v87h317v-87h-317z" />
    <glyph glyph-name="oslash" unicode="&#xf8;" horiz-adv-x="583" 
d="M554 265c0 -167 -107 -280 -263 -280c-55 0 -103 13 -144 40l-30 -39l-53 41l32 41c-43 49 -67 118 -67 197c0 166 107 280 262 280c55 0 104 -14 146 -41l38 48l52 -41l-39 -51c43 -48 66 -116 66 -195zM183 179l174 223c-18 12 -40 18 -66 18c-77 0 -123 -56 -123 -155
c0 -33 5 -62 15 -86zM415 265c0 33 -5 61 -15 84l-173 -222c19 -11 40 -17 64 -17c79 0 124 58 124 155z" />
    <glyph glyph-name="oslashacute" unicode="&#x1ff;" horiz-adv-x="583" 
d="M554 265c0 -167 -107 -280 -263 -280c-55 0 -103 13 -144 40l-30 -39l-53 41l32 41c-43 49 -67 118 -67 197c0 166 107 280 262 280c55 0 104 -14 146 -41l38 48l52 -41l-39 -51c43 -48 66 -116 66 -195zM183 179l174 223c-18 12 -40 18 -66 18c-77 0 -123 -56 -123 -155
c0 -33 5 -62 15 -86zM415 265c0 33 -5 61 -15 84l-173 -222c19 -11 40 -17 64 -17c79 0 124 58 124 155zM218 605l92 138h147l-122 -138h-117z" />
    <glyph glyph-name="otilde" unicode="&#xf5;" horiz-adv-x="583" 
d="M29 265c0 166 107 280 262 280c156 0 263 -113 263 -280s-107 -280 -263 -280c-155 0 -262 114 -262 280zM411 265c0 95 -44 150 -120 150c-75 0 -119 -55 -119 -150s44 -150 119 -150c76 0 120 55 120 150zM278 624c-4 1 -34 16 -50 16c-18 0 -29 -12 -34 -35h-70
c3 73 41 118 98 118c28 0 50 -8 82 -23c21 -11 38 -16 49 -16c18 0 29 11 34 34h70c-3 -75 -41 -118 -97 -118c-27 0 -49 8 -82 24z" />
    <glyph glyph-name="uni1E4D" unicode="&#x1e4d;" horiz-adv-x="583" 
d="M29 265c0 166 107 280 262 280c156 0 263 -113 263 -280s-107 -280 -263 -280c-155 0 -262 114 -262 280zM411 265c0 95 -44 150 -120 150c-75 0 -119 -55 -119 -150s44 -150 119 -150c76 0 120 55 120 150zM278 624c-4 1 -34 16 -50 16c-18 0 -29 -12 -34 -35h-70
c3 73 41 118 98 118c28 0 50 -8 82 -23c21 -11 38 -16 49 -16c18 0 29 11 34 34h70c-3 -75 -41 -118 -97 -118c-27 0 -49 8 -82 24zM218 753l92 138h147l-122 -138h-117z" />
    <glyph glyph-name="oe" unicode="&#x153;" horiz-adv-x="939" 
d="M910 266v-42h-358c4 -73 45 -116 110 -116c51 0 90 24 127 77l102 -81c-53 -79 -130 -119 -229 -119c-76 0 -138 28 -182 79c-45 -51 -110 -79 -187 -79c-155 0 -264 115 -264 280s109 280 264 280c77 0 142 -28 187 -79c43 51 104 79 177 79c149 0 253 -115 253 -279z
M553 324h215c-5 64 -44 100 -109 100c-59 0 -101 -40 -106 -100zM412 265c0 95 -43 151 -118 151c-76 0 -120 -56 -120 -151s44 -151 120 -151c75 0 118 56 118 151z" />
    <glyph glyph-name="p" unicode="p" horiz-adv-x="596" 
d="M50 -225v755h137v-37h2c35 33 84 52 141 52c137 0 237 -119 237 -280s-100 -280 -236 -280c-56 0 -108 20 -136 52h-2v-262h-143zM424 265c0 95 -44 149 -121 149c-64 0 -110 -46 -110 -111v-76c0 -64 46 -112 110 -112c77 0 121 55 121 150z" />
    <glyph glyph-name="thorn" unicode="&#xfe;" horiz-adv-x="596" 
d="M567 265c0 -161 -100 -280 -236 -280c-55 0 -108 20 -136 52h-2v-262h-143v956h143v-232c36 31 82 46 137 46c137 0 237 -119 237 -280zM424 265c0 96 -44 150 -121 150c-64 0 -110 -46 -110 -111v-77c0 -64 46 -112 110 -112c77 0 121 55 121 150z" />
    <glyph glyph-name="q" unicode="q" horiz-adv-x="596" 
d="M546 -225h-143v262h-2c-28 -32 -80 -52 -136 -52c-136 0 -236 119 -236 280s100 280 237 280c57 0 106 -19 141 -52h2v37h137v-755zM403 227v76c0 65 -46 111 -110 111c-77 0 -121 -54 -121 -149s44 -150 121 -150c64 0 110 48 110 112z" />
    <glyph glyph-name="r" unicode="r" horiz-adv-x="374" 
d="M50 0v530h134v-47h2c24 36 63 57 114 57c25 0 48 -3 69 -9l-24 -136c-21 5 -40 8 -59 8c-61 0 -93 -41 -93 -118v-285h-143z" />
    <glyph glyph-name="racute" unicode="&#x155;" horiz-adv-x="374" 
d="M50 0v530h134v-47h2c24 36 63 57 114 57c25 0 48 -3 69 -9l-24 -136c-21 5 -40 8 -59 8c-61 0 -93 -41 -93 -118v-285h-143zM108 590l92 138h147l-122 -138h-117z" />
    <glyph glyph-name="rcaron" unicode="&#x159;" horiz-adv-x="374" 
d="M50 0v530h134v-47h2c24 36 63 57 114 57c25 0 48 -3 69 -9l-24 -136c-21 5 -40 8 -59 8c-61 0 -93 -41 -93 -118v-285h-143zM250 726l76 -58l-70 -88h-149l-70 88l76 58l69 -87z" />
    <glyph glyph-name="uni0157" unicode="&#x157;" horiz-adv-x="374" 
d="M50 0v530h134v-47h2c24 36 63 57 114 57c25 0 48 -3 69 -9l-24 -136c-21 5 -40 8 -59 8c-61 0 -93 -41 -93 -118v-285h-143zM61 -285v59c32 9 42 25 42 58h-47v118h131v-104c0 -76 -42 -122 -126 -131z" />
    <glyph glyph-name="s" unicode="s" horiz-adv-x="499" 
d="M19 171l127 34c17 -72 53 -103 121 -103c51 0 80 16 80 43c0 13 -5 24 -15 33c-19 17 -43 25 -100 44c-110 31 -180 59 -185 163c0 90 86 160 200 160c54 0 102 -14 143 -43s68 -66 81 -113l-126 -37c-17 51 -53 77 -98 77c-41 0 -67 -18 -67 -42s26 -34 95 -54
c41 -12 76 -24 103 -36c56 -24 102 -71 102 -147c0 -49 -19 -89 -58 -120c-39 -30 -90 -45 -155 -45c-136 0 -225 66 -248 186z" />
    <glyph glyph-name="sacute" unicode="&#x15b;" horiz-adv-x="499" 
d="M19 171l127 34c17 -72 53 -103 121 -103c51 0 80 16 80 43c0 13 -5 24 -15 33c-19 17 -43 25 -100 44c-110 31 -180 59 -185 163c0 90 86 160 200 160c54 0 102 -14 143 -43s68 -66 81 -113l-126 -37c-17 51 -53 77 -98 77c-41 0 -67 -18 -67 -42s26 -34 95 -54
c41 -12 76 -24 103 -36c56 -24 102 -71 102 -147c0 -49 -19 -89 -58 -120c-39 -30 -90 -45 -155 -45c-136 0 -225 66 -248 186zM174 605l92 138h147l-122 -138h-117z" />
    <glyph glyph-name="scaron" unicode="&#x161;" horiz-adv-x="499" 
d="M19 171l127 34c17 -72 53 -103 121 -103c51 0 80 16 80 43c0 13 -5 24 -15 33c-19 17 -43 25 -100 44c-110 31 -180 59 -185 163c0 90 86 160 200 160c54 0 102 -14 143 -43s68 -66 81 -113l-126 -37c-17 51 -53 77 -98 77c-41 0 -67 -18 -67 -42s26 -34 95 -54
c41 -12 76 -24 103 -36c56 -24 102 -71 102 -147c0 -49 -19 -89 -58 -120c-39 -30 -90 -45 -155 -45c-136 0 -225 66 -248 186zM316 741l76 -58l-70 -88h-149l-70 88l76 58l69 -87z" />
    <glyph glyph-name="scedilla" unicode="&#x15f;" horiz-adv-x="499" 
d="M19 171l127 34c17 -72 53 -103 121 -103c51 0 80 16 80 43c0 13 -5 24 -15 33c-19 17 -43 25 -100 44c-110 31 -180 59 -185 163c0 90 86 160 200 160c54 0 102 -14 143 -43s68 -66 81 -113l-126 -37c-17 51 -53 77 -98 77c-41 0 -67 -18 -67 -42s26 -34 95 -54
c41 -12 76 -24 103 -36c56 -24 102 -71 102 -147c0 -49 -19 -89 -58 -120c-39 -30 -90 -45 -155 -45c-136 0 -225 66 -248 186zM399 -149c0 -67 -47 -109 -120 -109c-43 0 -81 13 -114 40l46 65c24 -18 45 -27 63 -27c25 0 43 16 43 37c0 20 -15 32 -42 32
c-19 0 -36 -7 -50 -21l-55 24l71 127l56 -28l-25 -42c8 1 15 2 20 2c63 0 107 -41 107 -100z" />
    <glyph glyph-name="scircumflex" unicode="&#x15d;" horiz-adv-x="499" 
d="M19 171l127 34c17 -72 53 -103 121 -103c51 0 80 16 80 43c0 13 -5 24 -15 33c-19 17 -43 25 -100 44c-110 31 -180 59 -185 163c0 90 86 160 200 160c54 0 102 -14 143 -43s68 -66 81 -113l-126 -37c-17 51 -53 77 -98 77c-41 0 -67 -18 -67 -42s26 -34 95 -54
c41 -12 76 -24 103 -36c56 -24 102 -71 102 -147c0 -49 -19 -89 -58 -120c-39 -30 -90 -45 -155 -45c-136 0 -225 66 -248 186zM392 643l-76 -58l-68 88l-69 -88l-76 58l70 88h149z" />
    <glyph glyph-name="uni0219" unicode="&#x219;" horiz-adv-x="499" 
d="M19 171l127 34c17 -72 53 -103 121 -103c51 0 80 16 80 43c0 13 -5 24 -15 33c-19 17 -43 25 -100 44c-110 31 -180 59 -185 163c0 90 86 160 200 160c54 0 102 -14 143 -43s68 -66 81 -113l-126 -37c-17 51 -53 77 -98 77c-41 0 -67 -18 -67 -42s26 -34 95 -54
c41 -12 76 -24 103 -36c56 -24 102 -71 102 -147c0 -49 -19 -89 -58 -120c-39 -30 -90 -45 -155 -45c-136 0 -225 66 -248 186zM206 -300v59c32 9 42 25 42 58h-47v118h131v-104c0 -76 -42 -122 -126 -131z" />
    <glyph glyph-name="uni1E63" unicode="&#x1e63;" horiz-adv-x="499" 
d="M19 171l127 34c17 -72 53 -103 121 -103c51 0 80 16 80 43c0 13 -5 24 -15 33c-19 17 -43 25 -100 44c-110 31 -180 59 -185 163c0 90 86 160 200 160c54 0 102 -14 143 -43s68 -66 81 -113l-126 -37c-17 51 -53 77 -98 77c-41 0 -67 -18 -67 -42s26 -34 95 -54
c41 -12 76 -24 103 -36c56 -24 102 -71 102 -147c0 -49 -19 -89 -58 -120c-39 -30 -90 -45 -155 -45c-136 0 -225 66 -248 186zM201 -192v128h130v-128h-130z" />
    <glyph glyph-name="germandbls" unicode="&#xdf;" horiz-adv-x="565" 
d="M50 0v483c0 148 91 232 234 232c129 0 220 -77 220 -186c0 -60 -32 -112 -84 -139v-2c72 -25 115 -90 115 -173c0 -137 -90 -215 -246 -215h-42v128h28c79 0 118 32 118 96c0 55 -38 89 -99 89h-47v116h28c59 0 93 30 93 81c0 45 -35 78 -84 78c-60 0 -92 -35 -92 -99
v-489h-142z" />
    <glyph glyph-name="longs" unicode="&#x17f;" horiz-adv-x="326" 
d="M98 0v404h-93v126h93v54c0 95 59 150 163 150h100v-127h-81c-26 0 -39 -12 -39 -37v-570h-143z" />
    <glyph glyph-name="t" unicode="t" horiz-adv-x="389" 
d="M370 404h-131v-224c0 -33 13 -43 54 -43h58v-137h-72c-131 0 -183 48 -183 171v233h-91v126h91v133h143v-133h131v-126z" />
    <glyph glyph-name="tbar" unicode="&#x167;" horiz-adv-x="389" 
d="M370 404h-131v-224c0 -33 13 -43 54 -43h58v-137h-72c-131 0 -183 48 -183 171v233h-91v126h91v133h143v-133h131v-126zM4 230v96h365v-96h-365z" />
    <glyph glyph-name="tcaron" unicode="&#x165;" horiz-adv-x="409" 
d="M370 404h-131v-224c0 -33 13 -43 54 -43h58v-137h-72c-131 0 -183 48 -183 171v233h-91v126h91v133h143v-133h131v-126zM305 576v59c32 9 42 25 42 58h-47v118h131v-104c0 -76 -42 -122 -126 -131z" />
    <glyph glyph-name="uni0163" unicode="&#x163;" horiz-adv-x="389" 
d="M370 404h-131v-224c0 -33 13 -43 54 -43h58v-137h-72c-131 0 -183 48 -183 171v233h-91v126h91v133h143v-133h131v-126zM352 -135c0 -67 -47 -109 -120 -109c-43 0 -81 13 -114 40l46 65c24 -18 45 -27 63 -27c25 0 43 16 43 37c0 20 -15 32 -42 32c-19 0 -36 -7 -50 -21
l-55 24l71 127l56 -28l-25 -42c8 1 15 2 20 2c63 0 107 -41 107 -100z" />
    <glyph glyph-name="uni021B" unicode="&#x21b;" horiz-adv-x="389" 
d="M370 404h-131v-224c0 -33 13 -43 54 -43h58v-137h-72c-131 0 -183 48 -183 171v233h-91v126h91v133h143v-133h131v-126zM159 -285v59c32 9 42 25 42 58h-47v118h131v-104c0 -76 -42 -122 -126 -131z" />
    <glyph glyph-name="uni1E6D" unicode="&#x1e6d;" horiz-adv-x="389" 
d="M370 404h-131v-224c0 -33 13 -43 54 -43h58v-137h-72c-131 0 -183 48 -183 171v233h-91v126h91v133h143v-133h131v-126zM154 -177v128h130v-128h-130z" />
    <glyph glyph-name="u" unicode="u" horiz-adv-x="561" 
d="M40 181v349h143v-316c0 -65 31 -98 92 -98c57 0 93 38 93 98v316h143v-530h-136v47h-2c-31 -39 -86 -62 -143 -62c-120 0 -190 73 -190 196z" />
    <glyph glyph-name="uacute" unicode="&#xfa;" horiz-adv-x="561" 
d="M40 181v349h143v-316c0 -65 31 -98 92 -98c57 0 93 38 93 98v316h143v-530h-136v47h-2c-31 -39 -86 -62 -143 -62c-120 0 -190 73 -190 196zM203 590l92 138h147l-122 -138h-117z" />
    <glyph glyph-name="ubreve" unicode="&#x16d;" horiz-adv-x="561" 
d="M40 181v349h143v-316c0 -65 31 -98 92 -98c57 0 93 38 93 98v316h143v-530h-136v47h-2c-31 -39 -86 -62 -143 -62c-120 0 -190 73 -190 196zM128 718h74c9 -32 36 -50 75 -50c37 0 65 18 73 50h74c-4 -84 -62 -138 -147 -138c-87 0 -145 54 -149 138z" />
    <glyph glyph-name="uni01D4" unicode="&#x1d4;" horiz-adv-x="561" 
d="M40 181v349h143v-316c0 -65 31 -98 92 -98c57 0 93 38 93 98v316h143v-530h-136v47h-2c-31 -39 -86 -62 -143 -62c-120 0 -190 73 -190 196zM345 726l76 -58l-70 -88h-149l-70 88l76 58l69 -87z" />
    <glyph glyph-name="ucircumflex" unicode="&#xfb;" horiz-adv-x="561" 
d="M40 181v349h143v-316c0 -65 31 -98 92 -98c57 0 93 38 93 98v316h143v-530h-136v47h-2c-31 -39 -86 -62 -143 -62c-120 0 -190 73 -190 196zM421 628l-76 -58l-68 88l-69 -88l-76 58l70 88h149z" />
    <glyph glyph-name="udieresis" unicode="&#xfc;" horiz-adv-x="561" 
d="M40 181v349h143v-316c0 -65 31 -98 92 -98c57 0 93 38 93 98v316h143v-530h-136v47h-2c-31 -39 -86 -62 -143 -62c-120 0 -190 73 -190 196zM107 580v128h130v-128h-130zM314 580v128h130v-128h-130z" />
    <glyph glyph-name="uni01D8" unicode="&#x1d8;" horiz-adv-x="561" 
d="M40 181v349h143v-316c0 -65 31 -98 92 -98c57 0 93 38 93 98v316h143v-530h-136v47h-2c-31 -39 -86 -62 -143 -62c-120 0 -190 73 -190 196zM107 580v128h130v-128h-130zM314 580v128h130v-128h-130zM203 748l92 138h147l-122 -138h-117z" />
    <glyph glyph-name="uni01DA" unicode="&#x1da;" horiz-adv-x="561" 
d="M40 181v349h143v-316c0 -65 31 -98 92 -98c57 0 93 38 93 98v316h143v-530h-136v47h-2c-31 -39 -86 -62 -143 -62c-120 0 -190 73 -190 196zM107 580v128h130v-128h-130zM314 580v128h130v-128h-130zM345 884l76 -58l-70 -88h-149l-70 88l76 58l69 -87z" />
    <glyph glyph-name="uni01DC" unicode="&#x1dc;" horiz-adv-x="561" 
d="M40 181v349h143v-316c0 -65 31 -98 92 -98c57 0 93 38 93 98v316h143v-530h-136v47h-2c-31 -39 -86 -62 -143 -62c-120 0 -190 73 -190 196zM107 580v128h130v-128h-130zM314 580v128h130v-128h-130zM231 748l-122 138h147l92 -138h-117z" />
    <glyph glyph-name="uni01D6" unicode="&#x1d6;" horiz-adv-x="561" 
d="M40 181v349h143v-316c0 -65 31 -98 92 -98c57 0 93 38 93 98v316h143v-530h-136v47h-2c-31 -39 -86 -62 -143 -62c-120 0 -190 73 -190 196zM107 580v128h130v-128h-130zM314 580v128h130v-128h-130zM117 748v87h317v-87h-317z" />
    <glyph glyph-name="uni1EE5" unicode="&#x1ee5;" horiz-adv-x="561" 
d="M40 181v349h143v-316c0 -65 31 -98 92 -98c57 0 93 38 93 98v316h143v-530h-136v47h-2c-31 -39 -86 -62 -143 -62c-120 0 -190 73 -190 196zM191 -192v128h130v-128h-130z" />
    <glyph glyph-name="ugrave" unicode="&#xf9;" horiz-adv-x="561" 
d="M40 181v349h143v-316c0 -65 31 -98 92 -98c57 0 93 38 93 98v316h143v-530h-136v47h-2c-31 -39 -86 -62 -143 -62c-120 0 -190 73 -190 196zM231 590l-122 138h147l92 -138h-117z" />
    <glyph glyph-name="uhungarumlaut" unicode="&#x171;" horiz-adv-x="561" 
d="M40 181v349h143v-316c0 -65 31 -98 92 -98c57 0 93 38 93 98v316h143v-530h-136v47h-2c-31 -39 -86 -62 -143 -62c-120 0 -190 73 -190 196zM102 590l92 138h141l-121 -138h-112zM298 590l92 138h142l-122 -138h-112z" />
    <glyph glyph-name="umacron" unicode="&#x16b;" horiz-adv-x="561" 
d="M40 181v349h143v-316c0 -65 31 -98 92 -98c57 0 93 38 93 98v316h143v-530h-136v47h-2c-31 -39 -86 -62 -143 -62c-120 0 -190 73 -190 196zM117 590v87h317v-87h-317z" />
    <glyph glyph-name="uogonek" unicode="&#x173;" horiz-adv-x="561" 
d="M40 181v349h143v-316c0 -65 31 -98 92 -98c57 0 93 38 93 98v316h143v-530h-136v47h-2c-31 -39 -86 -62 -143 -62c-120 0 -190 73 -190 196zM322 -123c0 52 37 98 110 139l58 -16c-45 -29 -73 -64 -73 -93c0 -19 10 -28 29 -28c17 0 35 6 54 18l37 -81
c-35 -19 -71 -28 -108 -28c-67 0 -107 33 -107 89z" />
    <glyph glyph-name="uring" unicode="&#x16f;" horiz-adv-x="561" 
d="M40 181v349h143v-316c0 -65 31 -98 92 -98c57 0 93 38 93 98v316h143v-530h-136v47h-2c-31 -39 -86 -62 -143 -62c-120 0 -190 73 -190 196zM135 670c0 39 14 71 42 96c29 25 65 38 108 38s79 -13 108 -38s43 -57 43 -96s-14 -71 -43 -96s-65 -38 -108 -38
s-79 13 -108 38c-28 25 -42 57 -42 96zM354 670c0 40 -28 68 -69 68c-40 0 -68 -28 -68 -68s28 -68 68 -68c41 0 69 28 69 68z" />
    <glyph glyph-name="utilde" unicode="&#x169;" horiz-adv-x="561" 
d="M40 181v349h143v-316c0 -65 31 -98 92 -98c57 0 93 38 93 98v316h143v-530h-136v47h-2c-31 -39 -86 -62 -143 -62c-120 0 -190 73 -190 196zM263 609c-4 1 -34 16 -50 16c-18 0 -29 -12 -34 -35h-70c3 73 41 118 98 118c28 0 50 -8 82 -23c21 -11 38 -16 49 -16
c18 0 29 11 34 34h70c-3 -75 -41 -118 -97 -118c-27 0 -49 8 -82 24z" />
    <glyph glyph-name="v" unicode="v" horiz-adv-x="574" 
d="M221 0l-221 530h152l134 -343h2l134 343h152l-221 -530h-132z" />
    <glyph glyph-name="w" unicode="w" horiz-adv-x="797" 
d="M134 0l-119 530h142l67 -338h2l111 338h124l110 -338h2l68 338h142l-120 -530h-142l-121 364h-2l-121 -364h-143z" />
    <glyph glyph-name="wacute" unicode="&#x1e83;" horiz-adv-x="797" 
d="M134 0l-119 530h142l67 -338h2l111 338h124l110 -338h2l68 338h142l-120 -530h-142l-121 364h-2l-121 -364h-143zM326 590l92 138h147l-122 -138h-117z" />
    <glyph glyph-name="wcircumflex" unicode="&#x175;" horiz-adv-x="797" 
d="M134 0l-119 530h142l67 -338h2l111 338h124l110 -338h2l68 338h142l-120 -530h-142l-121 364h-2l-121 -364h-143zM544 628l-76 -58l-68 88l-69 -88l-76 58l70 88h149z" />
    <glyph glyph-name="wdieresis" unicode="&#x1e85;" horiz-adv-x="797" 
d="M134 0l-119 530h142l67 -338h2l111 338h124l110 -338h2l68 338h142l-120 -530h-142l-121 364h-2l-121 -364h-143zM230 580v128h130v-128h-130zM437 580v128h130v-128h-130z" />
    <glyph glyph-name="wgrave" unicode="&#x1e81;" horiz-adv-x="797" 
d="M134 0l-119 530h142l67 -338h2l111 338h124l110 -338h2l68 338h142l-120 -530h-142l-121 364h-2l-121 -364h-143zM354 590l-122 138h147l92 -138h-117z" />
    <glyph glyph-name="x" unicode="x" horiz-adv-x="535" 
d="M-5 0l186 268l-182 262h168l100 -160h2l99 160h169l-183 -262l187 -268h-169l-103 166h-2l-104 -166h-168z" />
    <glyph glyph-name="y" unicode="y" horiz-adv-x="552" 
d="M100 -225l104 252l-204 503h148l127 -336h2l128 336h147l-305 -755h-147z" />
    <glyph glyph-name="yacute" unicode="&#xfd;" horiz-adv-x="552" 
d="M100 -225l104 252l-204 503h148l127 -336h2l128 336h147l-305 -755h-147zM203 590l92 138h147l-122 -138h-117z" />
    <glyph glyph-name="ycircumflex" unicode="&#x177;" horiz-adv-x="552" 
d="M100 -225l104 252l-204 503h148l127 -336h2l128 336h147l-305 -755h-147zM421 628l-76 -58l-68 88l-69 -88l-76 58l70 88h149z" />
    <glyph glyph-name="ydieresis" unicode="&#xff;" horiz-adv-x="552" 
d="M100 -225l104 252l-204 503h148l127 -336h2l128 336h147l-305 -755h-147zM107 580v128h130v-128h-130zM314 580v128h130v-128h-130z" />
    <glyph glyph-name="uni1EF5" unicode="&#x1ef5;" horiz-adv-x="552" 
d="M100 -225l104 252l-204 503h148l127 -336h2l128 336h147l-305 -755h-147zM362 -177v128h130v-128h-130z" />
    <glyph glyph-name="ygrave" unicode="&#x1ef3;" horiz-adv-x="552" 
d="M100 -225l104 252l-204 503h148l127 -336h2l128 336h147l-305 -755h-147zM231 590l-122 138h147l92 -138h-117z" />
    <glyph glyph-name="uni1EF9" unicode="&#x1ef9;" horiz-adv-x="552" 
d="M100 -225l104 252l-204 503h148l127 -336h2l128 336h147l-305 -755h-147zM263 609c-4 1 -34 16 -50 16c-18 0 -29 -12 -34 -35h-70c3 73 41 118 98 118c28 0 50 -8 82 -23c21 -11 38 -16 49 -16c18 0 29 11 34 34h70c-3 -75 -41 -118 -97 -118c-27 0 -49 8 -82 24z" />
    <glyph glyph-name="z" unicode="z" horiz-adv-x="532" 
d="M25 0v113l270 285v2h-263v130h463v-113l-270 -285v-2h283v-130h-483z" />
    <glyph glyph-name="zacute" unicode="&#x17a;" horiz-adv-x="532" 
d="M25 0v113l270 285v2h-263v130h463v-113l-270 -285v-2h283v-130h-483zM193 590l92 138h147l-122 -138h-117z" />
    <glyph glyph-name="zcaron" unicode="&#x17e;" horiz-adv-x="532" 
d="M25 0v113l270 285v2h-263v130h463v-113l-270 -285v-2h283v-130h-483zM335 726l76 -58l-70 -88h-149l-70 88l76 58l69 -87z" />
    <glyph glyph-name="zdotaccent" unicode="&#x17c;" horiz-adv-x="532" 
d="M25 0v113l270 285v2h-263v130h463v-113l-270 -285v-2h283v-130h-483zM193 617v140h145v-140h-145z" />
    <glyph glyph-name="uni1E93" unicode="&#x1e93;" horiz-adv-x="532" 
d="M25 0v113l270 285v2h-263v130h463v-113l-270 -285v-2h283v-130h-483zM200 -177v128h130v-128h-130z" />
    <glyph glyph-name="A.ordn" horiz-adv-x="281" 
d="M13 497c0 49 31 75 106 90c43 9 55 16 55 29s-14 22 -37 22c-28 0 -45 -13 -51 -40l-76 15c8 55 59 94 124 94c75 0 122 -41 122 -108v-175h-72v22h-1c-15 -19 -41 -29 -76 -29c-57 0 -94 31 -94 80zM176 525v27h-1c-1 -7 -11 -12 -38 -19c-33 -8 -44 -15 -44 -28
c0 -12 12 -20 32 -20c31 0 51 16 51 40z" />
    <glyph glyph-name="B.ccmp" horiz-adv-x="320" 
d="M310 562c0 -81 -57 -145 -130 -145c-33 0 -58 11 -73 30h-1v-23h-81v380h86v-121h1c16 16 39 24 68 24c73 0 130 -64 130 -145zM223 562c0 41 -21 66 -56 66c-32 0 -56 -24 -56 -52v-28c0 -28 24 -52 56 -52c35 0 56 25 56 66z" />
    <glyph glyph-name="C.ccmp" horiz-adv-x="296" 
d="M10 562c0 85 58 145 142 145c69 0 124 -43 135 -103l-83 -17c-7 27 -25 41 -52 41c-35 0 -56 -25 -56 -66s21 -66 56 -66c27 0 45 14 52 41l83 -17c-11 -60 -66 -103 -135 -103c-84 0 -142 60 -142 145z" />
    <glyph glyph-name="D.ccmp" horiz-adv-x="320" 
d="M208 683h1v121h86v-380h-81v23h-1c-15 -19 -40 -30 -73 -30c-73 0 -130 64 -130 145s57 145 130 145c29 0 52 -8 68 -24zM209 548v28c0 28 -24 52 -56 52c-35 0 -56 -25 -56 -66s21 -66 56 -66c32 0 56 24 56 52z" />
    <glyph glyph-name="E.ccmp" horiz-adv-x="301" 
d="M291 563v-30h-193c5 -29 26 -45 59 -45c23 0 51 12 78 32l44 -63c-35 -27 -76 -40 -122 -40c-91 0 -147 58 -147 145c0 42 13 77 40 104s60 41 101 41c40 0 73 -14 100 -41s40 -62 40 -103zM97 593h111c-3 25 -26 43 -55 43c-32 0 -53 -16 -56 -43z" />
    <glyph glyph-name="F.ccmp" horiz-adv-x="208" 
d="M52 424v200h-52v76h52v26c0 60 31 89 98 89h46v-74h-38c-13 0 -20 -7 -20 -21v-20h70v-76h-70v-200h-86z" />
    <glyph glyph-name="G.ccmp" horiz-adv-x="319" 
d="M21 362l59 50c21 -28 44 -40 72 -40c37 0 58 21 58 58v14h-1c-16 -17 -40 -26 -72 -26c-75 0 -127 58 -127 145c0 85 53 144 129 144c27 0 55 -12 72 -29h1v22h82v-265c0 -85 -54 -139 -142 -139c-53 0 -103 26 -131 66zM208 544v37c0 28 -23 49 -54 49
c-37 0 -58 -24 -58 -67c0 -44 21 -69 58 -69c31 0 54 21 54 50z" />
    <glyph glyph-name="H.ccmp" horiz-adv-x="316" 
d="M25 424v380h86v-124h1c18 18 43 27 74 27c68 0 110 -43 110 -112v-171h-86v153c0 32 -18 51 -49 51s-50 -20 -50 -51v-153h-86z" />
    <glyph glyph-name="I.ordn" horiz-adv-x="139" 
d="M25 747v84h89v-84h-89zM26 424v276h87v-276h-87z" />
    <glyph glyph-name="J.ordn" horiz-adv-x="134" 
d="M21 747v84h89v-84h-89zM-30 305v82h33c13 0 20 6 20 17v296h87v-305c0 -60 -31 -90 -93 -90h-47z" />
    <glyph glyph-name="K.ccmp" horiz-adv-x="294" 
d="M25 424v380h86v-192h1l77 88h110l-102 -108l101 -168h-100l-56 107h-1l-30 -31v-76h-86z" />
    <glyph glyph-name="L.ccmp" horiz-adv-x="136" 
d="M25 424v380h86v-380h-86z" />
    <glyph glyph-name="M.ccmp" horiz-adv-x="475" 
d="M25 424v276h85v-27h1c16 21 43 34 74 34c33 0 63 -13 80 -33h1c19 22 46 33 82 33c64 0 108 -42 108 -106v-177h-89v165c0 24 -18 39 -43 39s-43 -16 -43 -39v-165h-80v162c0 27 -17 42 -44 42s-43 -16 -43 -45v-159h-89z" />
    <glyph glyph-name="N.ccmp" horiz-adv-x="316" 
d="M25 424v276h82v-24h1c17 21 43 31 78 31c68 0 110 -43 110 -112v-171h-86v153c0 32 -18 51 -49 51s-50 -20 -50 -51v-153h-86z" />
    <glyph glyph-name="O.ordn" horiz-adv-x="310" 
d="M10 562c0 41 14 76 41 103c27 28 62 42 104 42s77 -14 104 -42c28 -27 42 -62 42 -103s-14 -76 -42 -104c-27 -27 -62 -41 -104 -41s-77 14 -104 41c-27 28 -41 63 -41 104zM214 562c0 40 -23 66 -59 66s-59 -26 -59 -66s23 -66 59 -66s59 26 59 66z" />
    <glyph glyph-name="P.ccmp" horiz-adv-x="319" 
d="M309 562c0 -81 -57 -145 -129 -145c-29 0 -52 8 -68 24h-1v-138h-86v397h81v-22h1c16 19 40 29 73 29c72 0 129 -64 129 -145zM223 562c0 41 -21 66 -56 66c-32 0 -56 -24 -56 -52v-28c0 -28 24 -52 56 -52c35 0 56 25 56 66z" />
    <glyph glyph-name="Q.ccmp" horiz-adv-x="319" 
d="M212 678h1v22h81v-397h-86v138h-1c-16 -16 -39 -24 -68 -24c-73 0 -129 64 -129 145s56 145 129 145c33 0 57 -10 73 -29zM208 548v28c0 28 -24 52 -56 52c-35 0 -56 -25 -56 -66s21 -66 56 -66c32 0 56 24 56 52z" />
    <glyph glyph-name="R.ccmp" horiz-adv-x="216" 
d="M222 699l-15 -79c-11 3 -21 4 -32 4c-43 0 -64 -32 -64 -95v-105h-86v276h80v-24h1c15 19 41 29 70 29c16 0 31 -2 46 -6z" />
    <glyph glyph-name="S.ccmp" horiz-adv-x="292" 
d="M20 511l73 21c11 -35 27 -49 63 -49c24 0 39 8 39 23c0 12 -12 19 -55 30c-79 21 -108 46 -108 87c0 51 44 84 111 84c59 0 107 -31 122 -78l-71 -22c-9 24 -26 34 -51 34c-19 0 -30 -7 -30 -18s9 -15 50 -27c79 -21 110 -48 110 -91c0 -52 -48 -88 -117 -88
c-73 0 -124 37 -136 94z" />
    <glyph glyph-name="T.ccmp" horiz-adv-x="203" 
d="M203 629h-71v-99c0 -17 7 -24 26 -24h33v-82h-36c-79 0 -110 27 -110 98v107h-45v72h45v70h87v-70h71v-72z" />
    <glyph glyph-name="U.ccmp" horiz-adv-x="308" 
d="M197 700h86v-276h-82v24h-1c-17 -21 -42 -31 -74 -31c-68 0 -106 41 -106 118v165h86v-159c0 -31 14 -45 45 -45c29 0 46 20 46 51v153z" />
    <glyph glyph-name="V.ccmp" horiz-adv-x="316" 
d="M119 424l-114 276h95l57 -168h1l58 168h95l-114 -276h-78z" />
    <glyph glyph-name="W.ccmp" horiz-adv-x="438" 
d="M75 424l-70 276h90l34 -157h1l50 157h78l50 -157h1l34 157h90l-70 -276h-85l-59 168h-1l-59 -168h-84z" />
    <glyph glyph-name="X.ccmp" horiz-adv-x="318" 
d="M5 424l101 139l-101 137h102l52 -77h1l51 77h103l-102 -137l102 -139h-104l-50 78h-1l-51 -78h-103z" />
    <glyph glyph-name="Y.ccmp" horiz-adv-x="324" 
d="M226 700h93l-170 -397h-92l60 141l-112 256h93l63 -156h1z" />
    <glyph glyph-name="Z.ccmp" horiz-adv-x="275" 
d="M5 424v65l143 134v1h-140v76h259v-65l-143 -134v-1h147v-76h-266z" />
    <glyph glyph-name="a.salt" horiz-adv-x="586" 
d="M398 530h138v-530h-138v34h-2c-29 -31 -74 -49 -126 -49c-140 0 -241 116 -241 280s101 280 241 280c52 0 97 -18 126 -49h2v34zM393 222v86c0 64 -43 106 -106 106c-72 0 -115 -56 -115 -149s43 -149 114 -149c64 0 107 42 107 106z" />
    <glyph glyph-name="aacute.salt" horiz-adv-x="586" 
d="M398 530h138v-530h-138v34h-2c-29 -31 -74 -49 -126 -49c-140 0 -241 116 -241 280s101 280 241 280c52 0 97 -18 126 -49h2v34zM393 222v86c0 64 -43 106 -106 106c-72 0 -115 -56 -115 -149s43 -149 114 -149c64 0 107 42 107 106zM225 605l92 138h147l-122 -138h-117z
" />
    <glyph glyph-name="abreve.salt" horiz-adv-x="586" 
d="M398 530h138v-530h-138v34h-2c-29 -31 -74 -49 -126 -49c-140 0 -241 116 -241 280s101 280 241 280c52 0 97 -18 126 -49h2v34zM393 222v86c0 64 -43 106 -106 106c-72 0 -115 -56 -115 -149s43 -149 114 -149c64 0 107 42 107 106zM150 733h74c9 -32 36 -50 75 -50
c37 0 65 18 73 50h74c-4 -84 -62 -138 -147 -138c-87 0 -145 54 -149 138z" />
    <glyph glyph-name="uni01CE.salt" horiz-adv-x="586" 
d="M398 530h138v-530h-138v34h-2c-29 -31 -74 -49 -126 -49c-140 0 -241 116 -241 280s101 280 241 280c52 0 97 -18 126 -49h2v34zM393 222v86c0 64 -43 106 -106 106c-72 0 -115 -56 -115 -149s43 -149 114 -149c64 0 107 42 107 106zM367 741l76 -58l-70 -88h-149l-70 88
l76 58l69 -87z" />
    <glyph glyph-name="acircumflex.salt" horiz-adv-x="586" 
d="M398 530h138v-530h-138v34h-2c-29 -31 -74 -49 -126 -49c-140 0 -241 116 -241 280s101 280 241 280c52 0 97 -18 126 -49h2v34zM393 222v86c0 64 -43 106 -106 106c-72 0 -115 -56 -115 -149s43 -149 114 -149c64 0 107 42 107 106zM443 643l-76 -58l-68 88l-69 -88
l-76 58l70 88h149z" />
    <glyph glyph-name="uni1EAD.salt" horiz-adv-x="586" 
d="M398 530h138v-530h-138v34h-2c-29 -31 -74 -49 -126 -49c-140 0 -241 116 -241 280s101 280 241 280c52 0 97 -18 126 -49h2v34zM393 222v86c0 64 -43 106 -106 106c-72 0 -115 -56 -115 -149s43 -149 114 -149c64 0 107 42 107 106zM443 643l-76 -58l-68 88l-69 -88
l-76 58l70 88h149zM232 -192v128h130v-128h-130z" />
    <glyph glyph-name="adieresis.salt" horiz-adv-x="586" 
d="M398 530h138v-530h-138v34h-2c-29 -31 -74 -49 -126 -49c-140 0 -241 116 -241 280s101 280 241 280c52 0 97 -18 126 -49h2v34zM393 222v86c0 64 -43 106 -106 106c-72 0 -115 -56 -115 -149s43 -149 114 -149c64 0 107 42 107 106zM129 595v128h130v-128h-130zM336 595
v128h130v-128h-130z" />
    <glyph glyph-name="uni01DF.salt" horiz-adv-x="586" 
d="M398 530h138v-530h-138v34h-2c-29 -31 -74 -49 -126 -49c-140 0 -241 116 -241 280s101 280 241 280c52 0 97 -18 126 -49h2v34zM393 222v86c0 64 -43 106 -106 106c-72 0 -115 -56 -115 -149s43 -149 114 -149c64 0 107 42 107 106zM129 595v128h130v-128h-130zM336 595
v128h130v-128h-130zM139 763v87h317v-87h-317z" />
    <glyph glyph-name="uni1EA1.salt" horiz-adv-x="586" 
d="M398 530h138v-530h-138v34h-2c-29 -31 -74 -49 -126 -49c-140 0 -241 116 -241 280s101 280 241 280c52 0 97 -18 126 -49h2v34zM393 222v86c0 64 -43 106 -106 106c-72 0 -115 -56 -115 -149s43 -149 114 -149c64 0 107 42 107 106zM232 -192v128h130v-128h-130z" />
    <glyph glyph-name="agrave.salt" horiz-adv-x="586" 
d="M398 530h138v-530h-138v34h-2c-29 -31 -74 -49 -126 -49c-140 0 -241 116 -241 280s101 280 241 280c52 0 97 -18 126 -49h2v34zM393 222v86c0 64 -43 106 -106 106c-72 0 -115 -56 -115 -149s43 -149 114 -149c64 0 107 42 107 106zM253 605l-122 138h147l92 -138h-117z
" />
    <glyph glyph-name="amacron.salt" horiz-adv-x="586" 
d="M398 530h138v-530h-138v34h-2c-29 -31 -74 -49 -126 -49c-140 0 -241 116 -241 280s101 280 241 280c52 0 97 -18 126 -49h2v34zM393 222v86c0 64 -43 106 -106 106c-72 0 -115 -56 -115 -149s43 -149 114 -149c64 0 107 42 107 106zM139 605v87h317v-87h-317z" />
    <glyph glyph-name="aogonek.salt" horiz-adv-x="586" 
d="M398 530h138v-530h-138v34h-2c-29 -31 -74 -49 -126 -49c-140 0 -241 116 -241 280s101 280 241 280c52 0 97 -18 126 -49h2v34zM393 222v86c0 64 -43 106 -106 106c-72 0 -115 -56 -115 -149s43 -149 114 -149c64 0 107 42 107 106zM346 -123c0 52 37 98 110 139l58 -16
c-45 -29 -73 -64 -73 -93c0 -19 10 -28 29 -28c17 0 35 6 54 18l37 -81c-35 -19 -71 -28 -108 -28c-67 0 -107 33 -107 89z" />
    <glyph glyph-name="aring.salt" horiz-adv-x="595" 
d="M144 694c0 69 58 121 135 121s136 -52 136 -121s-57 -120 -136 -120c-77 0 -135 51 -135 120zM341 694c0 36 -25 61 -62 61c-36 0 -61 -25 -61 -61s25 -61 61 -61c37 0 62 25 62 61zM398 530h138v-530h-138v34h-2c-29 -31 -74 -49 -126 -49c-140 0 -241 116 -241 280
s101 280 241 280c52 0 97 -18 126 -49h2v34zM393 222v86c0 64 -43 106 -106 106c-72 0 -115 -56 -115 -149s43 -149 114 -149c64 0 107 42 107 106z" />
    <glyph glyph-name="aringacute.salt" horiz-adv-x="585" 
d="M147 693c0 53 36 98 89 114l81 122h147l-115 -130c43 -20 69 -59 69 -106c0 -69 -57 -120 -136 -120c-77 0 -135 51 -135 120zM221 693c0 -36 25 -61 61 -61c37 0 62 25 62 61s-25 61 -62 61c-36 0 -61 -25 -61 -61zM398 530h138v-530h-138v34h-2
c-29 -31 -74 -49 -126 -49c-140 0 -241 116 -241 280s101 280 241 280c52 0 97 -18 126 -49h2v34zM393 222v86c0 64 -43 106 -106 106c-72 0 -115 -56 -115 -149s43 -149 114 -149c64 0 107 42 107 106z" />
    <glyph glyph-name="atilde.salt" horiz-adv-x="586" 
d="M398 530h138v-530h-138v34h-2c-29 -31 -74 -49 -126 -49c-140 0 -241 116 -241 280s101 280 241 280c52 0 97 -18 126 -49h2v34zM393 222v86c0 64 -43 106 -106 106c-72 0 -115 -56 -115 -149s43 -149 114 -149c64 0 107 42 107 106zM285 624c-4 1 -34 16 -50 16
c-18 0 -29 -12 -34 -35h-70c3 73 41 118 98 118c28 0 50 -8 82 -23c21 -11 38 -16 49 -16c18 0 29 11 34 34h70c-3 -75 -41 -118 -97 -118c-27 0 -49 8 -82 24z" />
    <glyph glyph-name="aring.ss02" horiz-adv-x="522" 
d="M35 144c0 89 53 137 189 170c84 20 110 35 110 63c0 31 -26 49 -73 49c-55 0 -90 -30 -101 -85l-131 29c8 53 33 95 76 127s95 48 156 48c133 0 217 -77 217 -201v-344h-128v42h-2c-25 -37 -75 -57 -139 -57c-105 0 -174 63 -174 159zM339 179v77h-2
c-9 -16 -31 -29 -79 -42c-64 -17 -86 -33 -86 -61c0 -32 22 -48 65 -48c60 0 102 30 102 74zM111 613c0 39 14 71 42 96c29 25 65 38 108 38s79 -13 108 -38s43 -57 43 -96s-14 -71 -43 -96s-65 -38 -108 -38s-79 13 -108 38c-28 25 -42 57 -42 96zM330 613
c0 40 -28 68 -69 68c-40 0 -68 -28 -68 -68s28 -68 68 -68c41 0 69 28 69 68z" />
    <glyph glyph-name="aringacute.ss02" horiz-adv-x="522" 
d="M35 144c0 89 53 137 189 170c84 20 110 35 110 63c0 31 -26 49 -73 49c-55 0 -90 -30 -101 -85l-131 29c8 53 33 95 76 127s95 48 156 48c133 0 217 -77 217 -201v-344h-128v42h-2c-25 -37 -75 -57 -139 -57c-105 0 -174 63 -174 159zM339 179v77h-2
c-9 -16 -31 -29 -79 -42c-64 -17 -86 -33 -86 -61c0 -32 22 -48 65 -48c60 0 102 30 102 74zM111 613c0 39 14 71 42 96c29 25 65 38 108 38s79 -13 108 -38s43 -57 43 -96s-14 -71 -43 -96s-65 -38 -108 -38s-79 13 -108 38c-28 25 -42 57 -42 96zM330 613
c0 40 -28 68 -69 68c-40 0 -68 -28 -68 -68s28 -68 68 -68c41 0 69 28 69 68zM188 726l92 138h147l-122 -138h-117z" />
    <glyph glyph-name="f.ss03" horiz-adv-x="377" 
d="M108 0v404h-103v126h103v54c0 95 59 150 163 150h100v-127h-81c-26 0 -39 -12 -39 -37v-40h99v-126h-99v-404h-143z" />
    <glyph glyph-name="j.ss03" horiz-adv-x="242" 
d="M48 617v140h145v-140h-145zM49 -225v755h143v-755h-143z" />
    <glyph glyph-name="t.ss03" horiz-adv-x="370" 
d="M293 137h58v-137h-72c-131 0 -183 48 -183 171v233h-91v126h91v133h143v-133h109v-126h-109v-224c0 -33 13 -43 54 -43z" />
    <glyph glyph-name="ordfeminine" unicode="&#xaa;" horiz-adv-x="281" 
d="M13 497c0 49 31 75 106 90c43 9 55 16 55 29s-14 22 -37 22c-28 0 -45 -13 -51 -40l-76 15c8 55 59 94 124 94c75 0 122 -41 122 -108v-175h-72v22h-1c-15 -19 -41 -29 -76 -29c-57 0 -94 31 -94 80zM176 525v27h-1c-1 -7 -11 -12 -38 -19c-33 -8 -44 -15 -44 -28
c0 -12 12 -20 32 -20c31 0 51 16 51 40z" />
    <glyph glyph-name="ordmasculine" unicode="&#xba;" horiz-adv-x="310" 
d="M10 562c0 41 14 76 41 103c27 28 62 42 104 42s77 -14 104 -42c28 -27 42 -62 42 -103s-14 -76 -42 -104c-27 -27 -62 -41 -104 -41s-77 14 -104 41c-27 28 -41 63 -41 104zM214 562c0 40 -23 66 -59 66s-59 -26 -59 -66s23 -66 59 -66s59 26 59 66z" />
    <glyph glyph-name="uni0394" unicode="&#x394;" horiz-adv-x="627" 
d="M382 700l250 -700h-637l251 700h136zM187 132h252l-124 365h-2z" />
    <glyph glyph-name="uni03A9" unicode="&#x3a9;" horiz-adv-x="676" 
d="M539 109v-2h95v-107h-257v98c77 17 122 114 122 262c0 135 -62 220 -161 220s-161 -85 -161 -220c0 -144 46 -245 122 -262v-98h-257v107h95v2c-71 59 -108 145 -108 252c0 212 124 354 309 354s309 -142 309 -354c0 -107 -37 -193 -108 -252z" />
    <glyph glyph-name="uni03BC" unicode="&#x3bc;" horiz-adv-x="571" 
d="M378 530h143v-530h-136v47h-2c-21 -40 -61 -62 -114 -62c-29 0 -53 7 -74 22h-2v-232h-143v755h143v-316c0 -65 31 -98 92 -98c57 0 93 38 93 98v316z" />
    <glyph glyph-name="pi" unicode="&#x3c0;" horiz-adv-x="685" 
d="M645 399h-118v-214c0 -39 11 -48 55 -48h57v-137h-101c-111 0 -154 43 -154 151v248h-113v-399h-143v399h-123v131h640v-131z" />
    <glyph glyph-name="zero" unicode="0" horiz-adv-x="645" 
d="M29 336c0 216 120 351 294 351c173 0 293 -135 293 -351s-120 -351 -293 -351c-174 0 -294 135 -294 351zM473 336c0 145 -55 221 -150 221c-96 0 -151 -76 -151 -221s55 -221 151 -221c95 0 150 76 150 221z" />
    <glyph glyph-name="one" unicode="1" horiz-adv-x="418" 
d="M191 0v518l-167 -98v149l176 103h134v-672h-143z" />
    <glyph glyph-name="two" unicode="2" horiz-adv-x="611" 
d="M217 131h343v-131h-506v99c0 61 14 108 43 141c33 39 85 72 170 108c120 51 156 81 156 131c0 48 -40 78 -105 78c-79 0 -125 -43 -132 -123l-142 11c9 151 114 242 274 242c145 0 248 -89 248 -209c0 -99 -62 -166 -198 -226c-53 -23 -88 -39 -105 -48
c-16 -9 -27 -18 -34 -27c-9 -12 -12 -23 -12 -46z" />
    <glyph glyph-name="three" unicode="3" horiz-adv-x="616" 
d="M34 224l138 26c16 -95 56 -135 147 -135c68 0 109 33 109 89c0 57 -39 87 -112 87h-69v111h57c67 0 105 28 105 76s-40 80 -100 80c-69 0 -114 -35 -125 -96l-139 24c9 61 38 110 85 146c48 37 108 55 179 55c141 0 243 -80 243 -192c0 -59 -30 -106 -85 -134v-2
c64 -29 104 -91 104 -167c0 -118 -102 -207 -252 -207c-164 0 -268 88 -285 239z" />
    <glyph glyph-name="four" unicode="4" horiz-adv-x="597" 
d="M351 0v120h-346v131l262 421h227v-421h83v-131h-83v-120h-143zM148 251h203v321h-2z" />
    <glyph glyph-name="five" unicode="5" horiz-adv-x="604" 
d="M29 173l137 45c20 -69 68 -103 144 -103c73 0 127 46 127 109c0 65 -53 111 -128 111c-51 0 -96 -18 -134 -54l-131 35l65 356h401v-131h-293l-24 -126l2 -1c40 24 85 36 135 36c145 0 250 -97 250 -228c0 -140 -112 -237 -270 -237c-140 0 -249 68 -281 188z" />
    <glyph glyph-name="six" unicode="6" horiz-adv-x="612" 
d="M593 218c0 -137 -108 -233 -259 -233c-190 0 -305 133 -305 347c-2 208 123 358 301 355c129 0 225 -69 252 -174l-136 -36c-19 56 -55 80 -115 80c-81 0 -138 -61 -150 -170h2c37 37 99 60 168 60c140 0 242 -97 242 -229zM451 223c0 67 -51 112 -124 112
c-72 0 -124 -44 -124 -112c0 -65 49 -108 130 -108c68 0 118 41 118 108z" />
    <glyph glyph-name="seven" unicode="7" horiz-adv-x="528" 
d="M87 0l262 539v2h-340v131h500v-121l-261 -551h-161z" />
    <glyph glyph-name="eight" unicode="8" horiz-adv-x="600" 
d="M14 194c0 77 50 143 123 174v2c-56 29 -86 74 -86 130c0 106 102 187 249 187s249 -81 249 -187c0 -56 -30 -101 -86 -130v-2c73 -31 123 -97 123 -174c0 -120 -119 -209 -286 -209s-286 89 -286 209zM405 490c0 45 -42 76 -105 76s-105 -31 -105 -76
c0 -44 44 -75 105 -75s105 31 105 75zM429 210c0 55 -49 91 -129 91s-129 -36 -129 -91c0 -57 48 -89 129 -89s129 32 129 89z" />
    <glyph glyph-name="nine" unicode="9" horiz-adv-x="598" 
d="M570 361c0 -255 -89 -376 -273 -376c-125 0 -215 66 -248 171l134 44c20 -60 54 -85 114 -85c77 0 118 53 125 160h-2c-38 -34 -89 -51 -153 -51c-147 0 -248 94 -248 228c0 137 110 235 262 235c181 0 289 -121 289 -326zM287 345c75 0 123 42 123 107
c0 63 -50 105 -123 105c-77 0 -125 -40 -125 -105s48 -107 125 -107z" />
    <glyph glyph-name="zero.ccmp" horiz-adv-x="648" 
d="M29 350c0 225 120 365 295 365s295 -140 295 -365s-120 -365 -295 -365s-295 140 -295 365zM471 350c0 151 -54 229 -147 229s-147 -77 -147 -229s54 -229 147 -229s147 78 147 229z" />
    <glyph glyph-name="one.ccmp" horiz-adv-x="424" 
d="M192 0v539l-168 -102v156l177 107h139v-700h-148z" />
    <glyph glyph-name="two.ccmp" horiz-adv-x="611" 
d="M220 136h341v-136h-510v105c0 63 15 113 44 148c31 37 87 73 170 109c59 26 99 49 121 68s33 42 33 67c0 51 -40 84 -103 84c-76 0 -123 -45 -128 -129l-144 12c3 78 29 139 78 184s113 67 194 67c147 0 251 -92 251 -219c0 -99 -63 -171 -198 -234
c-55 -26 -90 -43 -105 -52c-15 -8 -25 -16 -32 -25c-9 -13 -12 -25 -12 -49z" />
    <glyph glyph-name="three.ccmp" horiz-adv-x="620" 
d="M34 233l143 28c16 -99 56 -142 144 -142c65 0 105 35 105 94s-38 89 -107 89h-70v117h58c65 0 101 28 101 79s-38 85 -98 85c-67 0 -110 -36 -121 -101l-145 25c10 63 39 114 87 151c48 38 108 57 179 57c143 0 246 -84 246 -199c0 -61 -32 -111 -85 -139v-2
c64 -31 105 -95 105 -175c0 -120 -105 -215 -255 -215c-164 0 -268 92 -287 248z" />
    <glyph glyph-name="four.ccmp" horiz-adv-x="601" 
d="M351 0v129h-346v134l258 437h236v-437h82v-134h-82v-129h-148zM153 263h198v333h-2z" />
    <glyph glyph-name="five.ccmp" horiz-adv-x="607" 
d="M29 182l142 46c19 -72 66 -108 141 -108c71 0 123 48 123 112c0 68 -52 116 -124 116c-52 0 -96 -19 -131 -56l-136 37l64 371h404v-136h-292l-22 -131l2 -1c39 24 83 36 132 36c147 0 251 -101 251 -236c0 -147 -112 -247 -271 -247c-141 0 -251 69 -283 197z" />
    <glyph glyph-name="six.ccmp" horiz-adv-x="612" 
d="M593 228c0 -144 -108 -243 -259 -243c-190 0 -305 137 -305 361c-2 215 123 372 301 369c65 0 119 -16 164 -49s75 -77 88 -132l-136 -35c-19 59 -55 85 -115 85c-81 0 -138 -64 -149 -184h1c37 41 99 66 168 66c140 0 242 -100 242 -238zM450 232c0 72 -50 119 -123 119
c-71 0 -123 -46 -123 -119c0 -69 49 -116 129 -116c68 0 117 44 117 116z" />
    <glyph glyph-name="seven.ccmp" horiz-adv-x="531" 
d="M86 0l261 562v2h-338v136h503v-125l-259 -575h-167z" />
    <glyph glyph-name="eight.ccmp" horiz-adv-x="600" 
d="M14 203c0 79 50 148 123 181v2c-56 31 -86 80 -86 135c0 111 102 194 249 194s249 -83 249 -194c0 -55 -30 -104 -86 -135v-2c73 -33 123 -102 123 -181c0 -124 -119 -218 -286 -218s-286 94 -286 218zM405 513c0 47 -44 79 -105 79s-105 -32 -105 -79s44 -80 105 -80
s105 33 105 80zM429 219c0 59 -49 98 -129 98s-129 -39 -129 -98c0 -61 48 -96 129 -96s129 35 129 96z" />
    <glyph glyph-name="nine.ccmp" horiz-adv-x="599" 
d="M570 376c0 -265 -88 -391 -273 -391c-125 0 -215 68 -248 179l134 43c20 -64 55 -91 114 -91c77 0 119 57 125 172h-3c-38 -37 -89 -55 -152 -55c-147 0 -248 98 -248 238c0 143 110 244 262 244c181 0 289 -126 289 -339zM287 357c76 0 123 43 123 114
c0 68 -50 113 -123 113c-77 0 -124 -42 -124 -113s47 -114 124 -114z" />
    <glyph glyph-name="zero.tnum" 
d="M30 350c0 225 120 365 295 365s295 -140 295 -365s-120 -365 -295 -365s-295 140 -295 365zM472 350c0 152 -54 229 -147 229s-147 -77 -147 -229s54 -229 147 -229s147 77 147 229z" />
    <glyph glyph-name="one.tnum" 
d="M404 135h167v-135h-492v135h177v404l-168 -102v156l177 107h139v-565z" />
    <glyph glyph-name="two.tnum" 
d="M239 136h341v-136h-510v105c0 63 15 113 44 148c31 37 87 73 170 109c59 26 99 49 121 68s33 42 33 67c0 51 -40 84 -103 84c-76 0 -123 -45 -128 -129l-144 12c3 78 29 139 78 184s113 67 194 67c147 0 251 -92 251 -219c0 -99 -63 -171 -198 -234
c-55 -26 -90 -43 -105 -52c-15 -8 -25 -16 -32 -25c-9 -13 -12 -25 -12 -49z" />
    <glyph glyph-name="three.tnum" 
d="M54 233l143 28c16 -99 56 -142 144 -142c65 0 105 35 105 94s-38 89 -107 89h-70v117h58c65 0 101 28 101 79s-38 85 -98 85c-67 0 -110 -36 -121 -101l-145 25c10 63 39 114 87 151c48 38 108 57 179 57c143 0 246 -84 246 -199c0 -61 -32 -111 -85 -139v-2
c64 -31 105 -95 105 -175c0 -120 -105 -215 -255 -215c-164 0 -268 92 -287 248z" />
    <glyph glyph-name="four.tnum" 
d="M383 0v129h-346v134l258 437h236v-437h82v-134h-82v-129h-148zM185 263h198v333h-2z" />
    <glyph glyph-name="five.tnum" 
d="M48 182l142 46c19 -72 66 -108 141 -108c71 0 123 48 123 112c0 68 -52 116 -124 116c-52 0 -96 -19 -131 -56l-136 37l64 371h404v-136h-292l-22 -131l2 -1c39 24 83 36 132 36c147 0 251 -101 251 -236c0 -147 -112 -247 -271 -247c-141 0 -251 69 -283 197z" />
    <glyph glyph-name="six.tnum" 
d="M606 228c0 -144 -108 -243 -259 -243c-190 0 -305 137 -305 361c-2 215 123 372 301 369c65 0 119 -16 164 -49s75 -77 88 -132l-136 -35c-19 59 -55 85 -115 85c-81 0 -138 -64 -149 -184h1c37 41 99 66 168 66c140 0 242 -100 242 -238zM463 232c0 72 -50 119 -123 119
c-71 0 -123 -46 -123 -119c0 -69 49 -116 129 -116c68 0 117 44 117 116z" />
    <glyph glyph-name="seven.tnum" 
d="M150 0l261 562v2h-338v136h503v-125l-259 -575h-167z" />
    <glyph glyph-name="eight.tnum" 
d="M43 203c0 79 50 148 123 181v2c-56 31 -86 80 -86 135c0 111 102 194 249 194s249 -83 249 -194c0 -55 -30 -104 -86 -135v-2c73 -33 123 -102 123 -181c0 -124 -119 -218 -286 -218s-286 94 -286 218zM434 513c0 47 -44 79 -105 79s-105 -32 -105 -79s44 -80 105 -80
s105 33 105 80zM458 219c0 59 -49 98 -129 98s-129 -39 -129 -98c0 -61 48 -96 129 -96s129 35 129 96z" />
    <glyph glyph-name="nine.tnum" 
d="M599 376c0 -265 -88 -391 -273 -391c-125 0 -215 68 -248 179l134 43c20 -64 55 -91 114 -91c77 0 119 57 125 172h-3c-38 -37 -89 -55 -152 -55c-147 0 -248 98 -248 238c0 143 110 244 262 244c181 0 289 -126 289 -339zM316 357c76 0 123 43 123 114
c0 68 -50 113 -123 113c-77 0 -124 -42 -124 -113s47 -114 124 -114z" />
    <glyph glyph-name="zero.zero" horiz-adv-x="645" 
d="M616 336c0 -216 -120 -351 -293 -351c-174 0 -294 135 -294 351s120 351 294 351c173 0 293 -135 293 -351zM170 336c0 -59 9 -107 27 -145l171 361c-13 5 -28 7 -45 7c-97 0 -153 -76 -153 -223zM475 336c0 63 -10 114 -31 152l-173 -366c16 -6 33 -9 52 -9
c96 0 152 76 152 223z" />
    <glyph glyph-name="zero.ordn" horiz-adv-x="648" 
d="M619 350c0 -225 -120 -365 -295 -365s-295 140 -295 365s120 365 295 365s295 -140 295 -365zM171 350c0 -64 9 -116 27 -155l181 384c-16 7 -34 10 -55 10c-97 0 -153 -80 -153 -239zM477 350c0 63 -9 114 -26 154l-182 -383c16 -7 34 -10 55 -10c97 0 153 82 153 239z
" />
    <glyph glyph-name="zero.tnum_zero" 
d="M620 350c0 -225 -120 -365 -295 -365s-295 140 -295 365s120 365 295 365s295 -140 295 -365zM172 350c0 -64 9 -116 27 -155l181 384c-16 7 -34 10 -55 10c-97 0 -153 -80 -153 -239zM478 350c0 63 -9 114 -26 154l-182 -383c16 -7 34 -10 55 -10c97 0 153 82 153 239z
" />
    <glyph glyph-name="zero.subs" horiz-adv-x="424" 
d="M25 61c0 132 72 219 187 219s187 -87 187 -219s-72 -219 -187 -219s-187 87 -187 219zM297 61c0 80 -29 125 -85 125s-85 -44 -85 -125s29 -125 85 -125s85 45 85 125z" />
    <glyph glyph-name="one.subs" horiz-adv-x="288" 
d="M122 -149v314l-103 -58v102l110 62h95v-420h-102z" />
    <glyph glyph-name="two.subs" horiz-adv-x="375" 
d="M137 -54h209v-95h-317v68c0 37 9 66 26 87c19 23 50 43 106 68c71 29 86 42 86 73c0 25 -22 42 -55 42c-40 0 -64 -24 -67 -68l-100 7c5 93 70 152 167 152c93 0 158 -55 158 -134c0 -63 -36 -103 -125 -140c-45 -19 -71 -32 -78 -40c-6 -6 -9 -13 -10 -20z" />
    <glyph glyph-name="three.subs" horiz-adv-x="373" 
d="M20 -10l98 21c8 -55 33 -78 77 -78c33 0 52 18 52 47c0 31 -18 46 -55 46h-45v81h38c33 0 53 15 53 40s-21 42 -52 42c-33 0 -56 -19 -63 -54l-99 17c12 77 76 128 163 128s148 -52 148 -123c0 -33 -17 -65 -48 -81v-1c37 -20 61 -60 61 -101c0 -76 -62 -132 -153 -132
c-97 0 -162 55 -175 148z" />
    <glyph glyph-name="four.subs" horiz-adv-x="395" 
d="M232 -149v64h-222v96l159 260h165v-262h52v-94h-52v-64h-102zM114 9h118v193h-1z" />
    <glyph glyph-name="five.subs" horiz-adv-x="390" 
d="M25 -50l92 42c16 -39 41 -56 78 -56c39 0 67 24 67 60s-27 60 -66 60c-28 0 -54 -11 -70 -31l-90 26l38 220h245v-93h-171l-10 -59l1 -1c24 13 49 19 75 19c43 0 79 -14 108 -41s43 -60 43 -101c0 -84 -68 -153 -168 -153c-80 0 -145 40 -172 108z" />
    <glyph glyph-name="six.subs" horiz-adv-x="399" 
d="M375 -10c0 -88 -65 -148 -160 -148c-120 0 -190 81 -190 218c0 131 75 220 183 220c79 0 132 -37 153 -105l-95 -28c-8 25 -29 40 -58 40c-45 0 -72 -34 -75 -90h1c23 21 57 34 94 34c87 0 147 -57 147 -141zM273 -7c0 35 -25 56 -62 56c-39 0 -64 -23 -64 -58
s24 -56 63 -56s63 21 63 58z" />
    <glyph glyph-name="seven.subs" horiz-adv-x="310" 
d="M34 -149l152 323v1h-186v96h305v-87l-152 -333h-119z" />
    <glyph glyph-name="eight.subs" horiz-adv-x="395" 
d="M25 -28c0 48 32 90 77 107v1c-35 15 -55 48 -55 87c0 67 61 113 150 113s151 -46 151 -113c0 -39 -20 -72 -55 -87v-1c45 -17 77 -59 77 -107c0 -80 -66 -130 -173 -130c-105 0 -172 50 -172 130zM253 157c0 25 -23 41 -56 41s-55 -16 -55 -41c0 -27 22 -44 55 -44
s56 17 56 44zM266 -16c0 32 -28 53 -69 53s-69 -21 -69 -53c0 -33 26 -52 69 -52s69 19 69 52z" />
    <glyph glyph-name="nine.subs" horiz-adv-x="393" 
d="M368 75c0 -155 -59 -233 -171 -233c-77 0 -134 38 -155 105l94 32c12 -35 32 -49 61 -49c39 0 67 32 68 89c-18 -18 -47 -27 -86 -27c-89 0 -154 59 -154 140c0 88 66 148 165 148c111 0 178 -76 178 -205zM192 76c40 0 65 21 65 57c0 35 -26 59 -65 59
c-40 0 -65 -23 -65 -58c0 -37 25 -58 65 -58z" />
    <glyph glyph-name="zero.dnom" horiz-adv-x="424" 
d="M25 210c0 132 72 219 187 219s187 -87 187 -219s-72 -219 -187 -219s-187 87 -187 219zM297 210c0 80 -29 125 -85 125s-85 -44 -85 -125s29 -125 85 -125s85 45 85 125z" />
    <glyph glyph-name="one.dnom" horiz-adv-x="288" 
d="M122 0v314l-103 -58v102l110 62h95v-420h-102z" />
    <glyph glyph-name="two.dnom" horiz-adv-x="375" 
d="M137 95h209v-95h-317v68c0 37 9 66 26 87c19 23 50 43 106 68c71 29 86 42 86 73c0 25 -22 42 -55 42c-40 0 -64 -24 -67 -68l-100 7c5 93 70 152 167 152c93 0 158 -55 158 -134c0 -63 -36 -103 -125 -140c-45 -19 -71 -32 -78 -40c-6 -6 -9 -13 -10 -20z" />
    <glyph glyph-name="three.dnom" horiz-adv-x="373" 
d="M20 139l98 21c8 -55 33 -78 77 -78c33 0 52 18 52 47c0 31 -18 46 -55 46h-45v81h38c33 0 53 15 53 40s-21 42 -52 42c-33 0 -56 -19 -63 -54l-99 17c12 77 76 128 163 128s148 -52 148 -123c0 -33 -17 -65 -48 -81v-1c37 -20 61 -60 61 -101c0 -76 -62 -132 -153 -132
c-97 0 -162 55 -175 148z" />
    <glyph glyph-name="four.dnom" horiz-adv-x="395" 
d="M232 0v64h-222v96l159 260h165v-262h52v-94h-52v-64h-102zM114 158h118v193h-1z" />
    <glyph glyph-name="five.dnom" horiz-adv-x="390" 
d="M25 99l92 42c16 -39 41 -56 78 -56c39 0 67 24 67 60s-27 60 -66 60c-28 0 -54 -11 -70 -31l-90 26l38 220h245v-93h-171l-10 -59l1 -1c24 13 49 19 75 19c43 0 79 -14 108 -41s43 -60 43 -101c0 -84 -68 -153 -168 -153c-80 0 -145 40 -172 108z" />
    <glyph glyph-name="six.dnom" horiz-adv-x="399" 
d="M375 139c0 -88 -65 -148 -160 -148c-120 0 -190 81 -190 218c0 131 75 220 183 220c79 0 132 -37 153 -105l-95 -28c-8 25 -29 40 -58 40c-45 0 -72 -34 -75 -90h1c23 21 57 34 94 34c87 0 147 -57 147 -141zM273 142c0 35 -25 56 -62 56c-39 0 -64 -23 -64 -58
s24 -56 63 -56s63 21 63 58z" />
    <glyph glyph-name="seven.dnom" horiz-adv-x="310" 
d="M34 0l152 323v1h-186v96h305v-87l-152 -333h-119z" />
    <glyph glyph-name="eight.dnom" horiz-adv-x="395" 
d="M25 121c0 48 32 90 77 107v1c-35 15 -55 48 -55 87c0 67 61 113 150 113s151 -46 151 -113c0 -39 -20 -72 -55 -87v-1c45 -17 77 -59 77 -107c0 -80 -66 -130 -173 -130c-105 0 -172 50 -172 130zM253 306c0 25 -23 41 -56 41s-55 -16 -55 -41c0 -27 22 -44 55 -44
s56 17 56 44zM266 133c0 32 -28 53 -69 53s-69 -21 -69 -53c0 -33 26 -52 69 -52s69 19 69 52z" />
    <glyph glyph-name="nine.dnom" horiz-adv-x="393" 
d="M368 224c0 -155 -59 -233 -171 -233c-77 0 -134 38 -155 105l94 32c12 -35 32 -49 61 -49c39 0 67 32 68 89c-18 -18 -47 -27 -86 -27c-89 0 -154 59 -154 140c0 88 66 148 165 148c111 0 178 -76 178 -205zM192 225c40 0 65 21 65 57c0 35 -26 59 -65 59
c-40 0 -65 -23 -65 -58c0 -37 25 -58 65 -58z" />
    <glyph glyph-name="zero.numr" horiz-adv-x="424" 
d="M25 490c0 132 72 219 187 219s187 -87 187 -219s-72 -219 -187 -219s-187 87 -187 219zM297 490c0 80 -29 125 -85 125s-85 -44 -85 -125s29 -125 85 -125s85 45 85 125z" />
    <glyph glyph-name="one.numr" horiz-adv-x="288" 
d="M122 280v314l-103 -58v102l110 62h95v-420h-102z" />
    <glyph glyph-name="two.numr" horiz-adv-x="375" 
d="M137 375h209v-95h-317v68c0 37 9 66 26 87c19 23 50 43 106 68c71 29 86 42 86 73c0 25 -22 42 -55 42c-40 0 -64 -24 -67 -68l-100 7c5 93 70 152 167 152c93 0 158 -55 158 -134c0 -63 -36 -103 -125 -140c-45 -19 -71 -32 -78 -40c-6 -6 -9 -13 -10 -20z" />
    <glyph glyph-name="three.numr" horiz-adv-x="373" 
d="M20 419l98 21c8 -55 33 -78 77 -78c33 0 52 18 52 47c0 31 -18 46 -55 46h-45v81h38c33 0 53 15 53 40s-21 42 -52 42c-33 0 -56 -19 -63 -54l-99 17c12 77 76 128 163 128s148 -52 148 -123c0 -33 -17 -65 -48 -81v-1c37 -20 61 -60 61 -101c0 -76 -62 -132 -153 -132
c-97 0 -162 55 -175 148z" />
    <glyph glyph-name="four.numr" horiz-adv-x="395" 
d="M232 280v64h-222v96l159 260h165v-262h52v-94h-52v-64h-102zM114 438h118v193h-1z" />
    <glyph glyph-name="five.numr" horiz-adv-x="390" 
d="M25 379l92 42c16 -39 41 -56 78 -56c39 0 67 24 67 60s-27 60 -66 60c-28 0 -54 -11 -70 -31l-90 26l38 220h245v-93h-171l-10 -59l1 -1c24 13 49 19 75 19c43 0 79 -14 108 -41s43 -60 43 -101c0 -84 -68 -153 -168 -153c-80 0 -145 40 -172 108z" />
    <glyph glyph-name="six.numr" horiz-adv-x="399" 
d="M375 419c0 -88 -65 -148 -160 -148c-120 0 -190 81 -190 218c0 131 75 220 183 220c79 0 132 -37 153 -105l-95 -28c-8 25 -29 40 -58 40c-45 0 -72 -34 -75 -90h1c23 21 57 34 94 34c87 0 147 -57 147 -141zM273 422c0 35 -25 56 -62 56c-39 0 -64 -23 -64 -58
s24 -56 63 -56s63 21 63 58z" />
    <glyph glyph-name="seven.numr" horiz-adv-x="310" 
d="M34 280l152 323v1h-186v96h305v-87l-152 -333h-119z" />
    <glyph glyph-name="eight.numr" horiz-adv-x="395" 
d="M25 401c0 48 32 90 77 107v1c-35 15 -55 48 -55 87c0 67 61 113 150 113s151 -46 151 -113c0 -39 -20 -72 -55 -87v-1c45 -17 77 -59 77 -107c0 -80 -66 -130 -173 -130c-105 0 -172 50 -172 130zM253 586c0 25 -23 41 -56 41s-55 -16 -55 -41c0 -27 22 -44 55 -44
s56 17 56 44zM266 413c0 32 -28 53 -69 53s-69 -21 -69 -53c0 -33 26 -52 69 -52s69 19 69 52z" />
    <glyph glyph-name="nine.numr" horiz-adv-x="393" 
d="M368 504c0 -155 -59 -233 -171 -233c-77 0 -134 38 -155 105l94 32c12 -35 32 -49 61 -49c39 0 67 32 68 89c-18 -18 -47 -27 -86 -27c-89 0 -154 59 -154 140c0 88 66 148 165 148c111 0 178 -76 178 -205zM192 505c40 0 65 21 65 57c0 35 -26 59 -65 59
c-40 0 -65 -23 -65 -58c0 -37 25 -58 65 -58z" />
    <glyph glyph-name="zero.sups" horiz-adv-x="424" 
d="M25 590c0 132 72 219 187 219s187 -87 187 -219s-72 -219 -187 -219s-187 87 -187 219zM297 590c0 80 -29 125 -85 125s-85 -44 -85 -125s29 -125 85 -125s85 45 85 125z" />
    <glyph glyph-name="one.sups" horiz-adv-x="288" 
d="M122 380v314l-103 -58v102l110 62h95v-420h-102z" />
    <glyph glyph-name="two.sups" horiz-adv-x="375" 
d="M137 475h209v-95h-317v68c0 37 9 66 26 87c19 23 50 43 106 68c71 29 86 42 86 73c0 25 -22 42 -55 42c-40 0 -64 -24 -67 -68l-100 7c5 93 70 152 167 152c93 0 158 -55 158 -134c0 -63 -36 -103 -125 -140c-45 -19 -71 -32 -78 -40c-6 -6 -9 -13 -10 -20z" />
    <glyph glyph-name="three.sups" horiz-adv-x="373" 
d="M20 519l98 21c8 -55 33 -78 77 -78c33 0 52 18 52 47c0 31 -18 46 -55 46h-45v81h38c33 0 53 15 53 40s-21 42 -52 42c-33 0 -56 -19 -63 -54l-99 17c12 77 76 128 163 128s148 -52 148 -123c0 -33 -17 -65 -48 -81v-1c37 -20 61 -60 61 -101c0 -76 -62 -132 -153 -132
c-97 0 -162 55 -175 148z" />
    <glyph glyph-name="four.sups" horiz-adv-x="395" 
d="M232 380v64h-222v96l159 260h165v-262h52v-94h-52v-64h-102zM114 538h118v193h-1z" />
    <glyph glyph-name="five.sups" horiz-adv-x="390" 
d="M25 479l92 42c16 -39 41 -56 78 -56c39 0 67 24 67 60s-27 60 -66 60c-28 0 -54 -11 -70 -31l-90 26l38 220h245v-93h-171l-10 -59l1 -1c24 13 49 19 75 19c43 0 79 -14 108 -41s43 -60 43 -101c0 -84 -68 -153 -168 -153c-80 0 -145 40 -172 108z" />
    <glyph glyph-name="six.sups" horiz-adv-x="399" 
d="M375 519c0 -88 -65 -148 -160 -148c-120 0 -190 81 -190 218c0 131 75 220 183 220c79 0 132 -37 153 -105l-95 -28c-8 25 -29 40 -58 40c-45 0 -72 -34 -75 -90h1c23 21 57 34 94 34c87 0 147 -57 147 -141zM273 522c0 35 -25 56 -62 56c-39 0 -64 -23 -64 -58
s24 -56 63 -56s63 21 63 58z" />
    <glyph glyph-name="seven.sups" horiz-adv-x="310" 
d="M34 380l152 323v1h-186v96h305v-87l-152 -333h-119z" />
    <glyph glyph-name="eight.sups" horiz-adv-x="395" 
d="M25 501c0 48 32 90 77 107v1c-35 15 -55 48 -55 87c0 67 61 113 150 113s151 -46 151 -113c0 -39 -20 -72 -55 -87v-1c45 -17 77 -59 77 -107c0 -80 -66 -130 -173 -130c-105 0 -172 50 -172 130zM253 686c0 25 -23 41 -56 41s-55 -16 -55 -41c0 -27 22 -44 55 -44
s56 17 56 44zM266 513c0 32 -28 53 -69 53s-69 -21 -69 -53c0 -33 26 -52 69 -52s69 19 69 52z" />
    <glyph glyph-name="nine.sups" horiz-adv-x="393" 
d="M368 604c0 -155 -59 -233 -171 -233c-77 0 -134 38 -155 105l94 32c12 -35 32 -49 61 -49c39 0 67 32 68 89c-18 -18 -47 -27 -86 -27c-89 0 -154 59 -154 140c0 88 66 148 165 148c111 0 178 -76 178 -205zM192 605c40 0 65 21 65 57c0 35 -26 59 -65 59
c-40 0 -65 -23 -65 -58c0 -37 25 -58 65 -58z" />
    <glyph glyph-name="fraction" unicode="&#x2044;" horiz-adv-x="213" 
d="M-93 -83l-88 50l487 807l87 -52z" />
    <glyph glyph-name="onehalf" unicode="&#xbd;" horiz-adv-x="876" 
d="M122 280v314l-103 -58v102l110 62h95v-420h-102zM195 -83l-88 50l487 807l87 -52zM638 95h209v-95h-317v68c0 37 9 66 26 87c19 23 50 43 106 68c71 29 86 42 86 73c0 25 -22 42 -55 42c-40 0 -64 -24 -67 -68l-100 7c5 93 70 152 167 152c93 0 158 -55 158 -134
c0 -63 -36 -103 -125 -140c-45 -19 -71 -32 -78 -40c-6 -6 -9 -13 -10 -20z" />
    <glyph glyph-name="onequarter" unicode="&#xbc;" horiz-adv-x="865" 
d="M122 280v314l-103 -58v102l110 62h95v-420h-102zM195 -83l-88 50l487 807l87 -52zM702 0v64h-222v96l159 260h165v-262h52v-94h-52v-64h-102zM584 158h118v193h-1z" />
    <glyph glyph-name="threequarters" unicode="&#xbe;" horiz-adv-x="950" 
d="M20 419l98 21c8 -55 33 -78 77 -78c33 0 52 18 52 47c0 31 -18 46 -55 46h-45v81h38c33 0 53 15 53 40s-21 42 -52 42c-33 0 -56 -19 -63 -54l-99 17c12 77 76 128 163 128s148 -52 148 -123c0 -33 -17 -65 -48 -81v-1c37 -20 61 -60 61 -101c0 -76 -62 -132 -153 -132
c-97 0 -162 55 -175 148zM280 -83l-88 50l487 807l87 -52zM787 0v64h-222v96l159 260h165v-262h52v-94h-52v-64h-102zM669 158h118v193h-1z" />
    <glyph glyph-name="oneeighth" unicode="&#x215b;" horiz-adv-x="896" 
d="M122 280v314l-103 -58v102l110 62h95v-420h-102zM195 -83l-88 50l487 807l87 -52zM526 121c0 48 32 90 77 107v1c-35 15 -55 48 -55 87c0 67 61 113 150 113s151 -46 151 -113c0 -39 -20 -72 -55 -87v-1c45 -17 77 -59 77 -107c0 -80 -66 -130 -173 -130
c-105 0 -172 50 -172 130zM754 306c0 25 -23 41 -56 41s-55 -16 -55 -41c0 -27 22 -44 55 -44s56 17 56 44zM767 133c0 32 -28 53 -69 53s-69 -21 -69 -53c0 -33 26 -52 69 -52s69 19 69 52z" />
    <glyph glyph-name="threeeighths" unicode="&#x215c;" horiz-adv-x="981" 
d="M20 419l98 21c8 -55 33 -78 77 -78c33 0 52 18 52 47c0 31 -18 46 -55 46h-45v81h38c33 0 53 15 53 40s-21 42 -52 42c-33 0 -56 -19 -63 -54l-99 17c12 77 76 128 163 128s148 -52 148 -123c0 -33 -17 -65 -48 -81v-1c37 -20 61 -60 61 -101c0 -76 -62 -132 -153 -132
c-97 0 -162 55 -175 148zM280 -83l-88 50l487 807l87 -52zM611 121c0 48 32 90 77 107v1c-35 15 -55 48 -55 87c0 67 61 113 150 113s151 -46 151 -113c0 -39 -20 -72 -55 -87v-1c45 -17 77 -59 77 -107c0 -80 -66 -130 -173 -130c-105 0 -172 50 -172 130zM839 306
c0 25 -23 41 -56 41s-55 -16 -55 -41c0 -27 22 -44 55 -44s56 17 56 44zM852 133c0 32 -28 53 -69 53s-69 -21 -69 -53c0 -33 26 -52 69 -52s69 19 69 52z" />
    <glyph glyph-name="fiveeighths" unicode="&#x215d;" horiz-adv-x="998" 
d="M25 379l92 42c16 -39 41 -56 78 -56c39 0 67 24 67 60s-27 60 -66 60c-28 0 -54 -11 -70 -31l-90 26l38 220h245v-93h-171l-10 -59l1 -1c24 13 49 19 75 19c43 0 79 -14 108 -41s43 -60 43 -101c0 -84 -68 -153 -168 -153c-80 0 -145 40 -172 108zM297 -83l-88 50
l487 807l87 -52zM628 121c0 48 32 90 77 107v1c-35 15 -55 48 -55 87c0 67 61 113 150 113s151 -46 151 -113c0 -39 -20 -72 -55 -87v-1c45 -17 77 -59 77 -107c0 -80 -66 -130 -173 -130c-105 0 -172 50 -172 130zM856 306c0 25 -23 41 -56 41s-55 -16 -55 -41
c0 -27 22 -44 55 -44s56 17 56 44zM869 133c0 32 -28 53 -69 53s-69 -21 -69 -53c0 -33 26 -52 69 -52s69 19 69 52z" />
    <glyph glyph-name="seveneighths" unicode="&#x215e;" horiz-adv-x="887" 
d="M34 280l152 323v1h-186v96h305v-87l-152 -333h-119zM186 -83l-88 50l487 807l87 -52zM517 121c0 48 32 90 77 107v1c-35 15 -55 48 -55 87c0 67 61 113 150 113s151 -46 151 -113c0 -39 -20 -72 -55 -87v-1c45 -17 77 -59 77 -107c0 -80 -66 -130 -173 -130
c-105 0 -172 50 -172 130zM745 306c0 25 -23 41 -56 41s-55 -16 -55 -41c0 -27 22 -44 55 -44s56 17 56 44zM758 133c0 32 -28 53 -69 53s-69 -21 -69 -53c0 -33 26 -52 69 -52s69 19 69 52z" />
    <glyph glyph-name="asterisk" unicode="*" horiz-adv-x="502" 
d="M152 313l-77 66l88 104l-114 64l51 88l100 -59v124h102v-124l101 59l50 -88l-113 -64l87 -104l-75 -66l-100 118z" />
    <glyph glyph-name="backslash" unicode="\" horiz-adv-x="461" 
d="M368 -54l-364 769l87 41l366 -771z" />
    <glyph glyph-name="periodcentered" unicode="&#xb7;" horiz-adv-x="258" 
d="M50 299v155h160v-155h-160z" />
    <glyph glyph-name="bullet" unicode="&#x2022;" horiz-adv-x="411" 
d="M79 369c0 75 51 128 126 128c76 0 127 -53 127 -128c0 -73 -51 -128 -127 -128c-75 0 -126 55 -126 128z" />
    <glyph glyph-name="colon" unicode=":" horiz-adv-x="318" 
d="M79 322v155h160v-155h-160zM79 0v155h160v-155h-160z" />
    <glyph glyph-name="comma" unicode="," horiz-adv-x="323" 
d="M85 -148v75c40 12 53 30 53 73h-59v149h165v-131c0 -97 -54 -154 -159 -166z" />
    <glyph glyph-name="ellipsis" unicode="&#x2026;" horiz-adv-x="846" 
d="M343 0v155h160v-155h-160zM79 0v155h160v-155h-160zM606 0v155h160v-155h-160z" />
    <glyph glyph-name="exclam" unicode="!" horiz-adv-x="398" 
d="M125 242v458h148v-458h-148zM119 0v155h160v-155h-160z" />
    <glyph glyph-name="exclamdown" unicode="&#xa1;" horiz-adv-x="318" 
d="M79 530h160v-155h-160v155zM85 288h148v-458h-148v458z" />
    <glyph glyph-name="numbersign" unicode="#" horiz-adv-x="844" 
d="M773 424h-143l-25 -142h144l-22 -123h-144l-28 -159h-138l28 159h-115l-28 -159h-138l28 159h-143l22 123h143l25 142h-145l22 122h145l27 154h138l-27 -154h115l27 154h138l-27 -154h143zM467 282l25 142h-115l-25 -142h115z" />
    <glyph glyph-name="period" unicode="." horiz-adv-x="318" 
d="M79 0v155h160v-155h-160z" />
    <glyph glyph-name="question" unicode="?" horiz-adv-x="630" 
d="M231 224v55c0 61 26 99 98 142c64 39 83 60 83 93c0 41 -35 66 -90 66c-68 0 -110 -45 -115 -122l-148 11c4 148 112 246 264 246c137 0 237 -84 237 -196c0 -69 -34 -118 -114 -167c-33 -21 -54 -37 -65 -49c-10 -12 -15 -27 -15 -44v-35h-135zM221 0v155h160v-155h-160
z" />
    <glyph glyph-name="questiondown" unicode="&#xbf;" horiz-adv-x="630" 
d="M409 530v-155h-160v155h160zM399 306v-55c0 -61 -26 -99 -98 -142c-64 -39 -83 -60 -83 -93c0 -41 35 -66 90 -66c68 0 110 45 115 122l148 -11c-4 -148 -112 -246 -264 -246c-137 0 -237 84 -237 196c0 69 34 118 114 167c33 21 54 37 64 49c11 12 16 27 16 44v35h135z
" />
    <glyph glyph-name="quotedbl" unicode="&#x22;" horiz-adv-x="446" 
d="M79 449v251h113v-251h-113zM254 449v251h113v-251h-113z" />
    <glyph glyph-name="quotesingle" unicode="'" horiz-adv-x="271" 
d="M79 449v251h113v-251h-113z" />
    <glyph glyph-name="semicolon" unicode=";" horiz-adv-x="323" 
d="M85 -148v75c40 12 53 30 53 73h-59v149h165v-131c0 -97 -54 -154 -159 -166zM82 322v155h160v-155h-160z" />
    <glyph glyph-name="slash" unicode="/" horiz-adv-x="461" 
d="M93 -54l-89 39l366 771l87 -41z" />
    <glyph glyph-name="underscore" unicode="_" horiz-adv-x="605" 
d="M39 -176v107h526v-107h-526z" />
    <glyph glyph-name="braceleft" unicode="{" horiz-adv-x="382" 
d="M131 -25v171c0 45 -13 59 -54 59h-28v158h28c41 0 54 14 54 59v151c0 112 46 157 161 157h81v-121h-63c-41 0 -57 -19 -57 -72v-151c0 -59 -37 -101 -85 -101v-2c48 0 85 -42 85 -101v-170c0 -53 16 -72 57 -72h63v-122h-81c-115 0 -161 45 -161 157z" />
    <glyph glyph-name="braceright" unicode="}" horiz-adv-x="382" 
d="M90 -182h-81v122h63c41 0 57 19 57 72v170c0 59 37 101 85 101v2c-48 0 -85 42 -85 101v151c0 53 -16 72 -57 72h-63v121h81c115 0 161 -45 161 -157v-151c0 -45 13 -59 54 -59h28v-158h-28c-41 0 -54 -14 -54 -59v-171c0 -112 -46 -157 -161 -157z" />
    <glyph glyph-name="bracketleft" unicode="[" horiz-adv-x="320" 
d="M69 -182v912h242v-116h-120v-679h120v-117h-242z" />
    <glyph glyph-name="bracketright" unicode="]" horiz-adv-x="320" 
d="M251 -182h-242v117h120v679h-120v116h242v-912z" />
    <glyph glyph-name="parenleft" unicode="(" horiz-adv-x="376" 
d="M79 295c0 177 67 341 202 492l86 -65c-111 -143 -158 -271 -158 -427s47 -284 158 -427l-86 -65c-135 151 -202 315 -202 492z" />
    <glyph glyph-name="parenright" unicode=")" horiz-adv-x="376" 
d="M95 -197l-86 65c111 143 158 271 158 427s-47 284 -158 427l86 65c135 -151 202 -315 202 -492s-67 -341 -202 -492z" />
    <glyph glyph-name="braceleft.case" horiz-adv-x="382" 
d="M131 25v171c0 45 -13 59 -54 59h-28v158h28c41 0 54 14 54 59v151c0 112 46 157 161 157h81v-121h-63c-41 0 -57 -19 -57 -72v-151c0 -59 -37 -101 -85 -101v-2c48 0 85 -42 85 -101v-170c0 -53 16 -72 57 -72h63v-122h-81c-115 0 -161 45 -161 157z" />
    <glyph glyph-name="braceright.case" horiz-adv-x="382" 
d="M90 -132h-81v122h63c41 0 57 19 57 72v170c0 59 37 101 85 101v2c-48 0 -85 42 -85 101v151c0 53 -16 72 -57 72h-63v121h81c115 0 161 -45 161 -157v-151c0 -45 13 -59 54 -59h28v-158h-28c-41 0 -54 -14 -54 -59v-171c0 -112 -46 -157 -161 -157z" />
    <glyph glyph-name="bracketleft.case" horiz-adv-x="320" 
d="M69 -132v912h242v-116h-120v-679h120v-117h-242z" />
    <glyph glyph-name="bracketright.case" horiz-adv-x="320" 
d="M251 -132h-242v117h120v679h-120v116h242v-912z" />
    <glyph glyph-name="parenleft.case" horiz-adv-x="376" 
d="M79 345c0 177 67 341 202 492l86 -65c-111 -143 -158 -271 -158 -427s47 -284 158 -427l-86 -65c-135 151 -202 315 -202 492z" />
    <glyph glyph-name="parenright.case" horiz-adv-x="376" 
d="M95 -147l-86 65c111 143 158 271 158 427s-47 284 -158 427l86 65c135 -151 202 -315 202 -492s-67 -341 -202 -492z" />
    <glyph glyph-name="emdash" unicode="&#x2014;" horiz-adv-x="846" 
d="M39 227v131h768v-131h-768z" />
    <glyph glyph-name="endash" unicode="&#x2013;" horiz-adv-x="559" 
d="M39 227v131h480v-131h-480z" />
    <glyph glyph-name="hyphen" unicode="-" horiz-adv-x="354" 
d="M39 229v129h276v-129h-276z" />
    <glyph glyph-name="uni00AD" unicode="&#xad;" horiz-adv-x="354" 
d="M39 229v129h276v-129h-276z" />
    <glyph glyph-name="emdash.ccmp" horiz-adv-x="846" 
d="M39 292v131h768v-131h-768z" />
    <glyph glyph-name="endash.ccmp" horiz-adv-x="559" 
d="M39 292v131h480v-131h-480z" />
    <glyph glyph-name="hyphen.ccmp" horiz-adv-x="354" 
d="M39 294v129h276v-129h-276z" />
    <glyph glyph-name="uni00AD.ccmp" horiz-adv-x="354" 
d="M39 294v129h276v-129h-276z" />
    <glyph glyph-name="guillemotleft" unicode="&#xab;" horiz-adv-x="537" 
d="M366 82l-113 193l113 193h121l-114 -193l114 -193h-121zM172 82l-113 193l113 193h121l-114 -193l114 -193h-121z" />
    <glyph glyph-name="guillemotright" unicode="&#xbb;" horiz-adv-x="537" 
d="M171 82h-121l114 193l-114 193h121l113 -193zM365 82h-121l114 193l-114 193h121l113 -193z" />
    <glyph glyph-name="guilsinglleft" unicode="&#x2039;" horiz-adv-x="342" 
d="M172 82l-113 193l113 193h121l-114 -193l114 -193h-121z" />
    <glyph glyph-name="guilsinglright" unicode="&#x203a;" horiz-adv-x="342" 
d="M170 82h-121l114 193l-114 193h121l113 -193z" />
    <glyph glyph-name="quotedblbase" unicode="&#x201e;" horiz-adv-x="543" 
d="M85 -148v75c40 12 53 30 53 73h-59v149h165v-131c0 -97 -54 -154 -159 -166zM305 -148v75c40 12 53 30 53 73h-59v149h165v-131c0 -97 -54 -154 -159 -166z" />
    <glyph glyph-name="quotedblleft" unicode="&#x201c;" horiz-adv-x="543" 
d="M238 700v-75c-40 -12 -53 -30 -53 -73h59v-149h-165v131c0 97 54 154 159 166zM458 700v-75c-40 -12 -53 -30 -53 -73h59v-149h-165v131c0 97 54 154 159 166z" />
    <glyph glyph-name="quotedblright" unicode="&#x201d;" horiz-adv-x="543" 
d="M85 403v75c40 12 53 30 53 73h-59v149h165v-131c0 -97 -54 -154 -159 -166zM305 403v75c40 12 53 30 53 73h-59v149h165v-131c0 -97 -54 -154 -159 -166z" />
    <glyph glyph-name="quoteleft" unicode="&#x2018;" horiz-adv-x="283" 
d="M218 700v-75c-40 -12 -53 -30 -53 -73h59v-149h-165v131c0 97 54 154 159 166z" />
    <glyph glyph-name="quoteright" unicode="&#x2019;" horiz-adv-x="283" 
d="M65 403v75c40 12 53 30 53 73h-59v149h165v-131c0 -97 -54 -154 -159 -166z" />
    <glyph glyph-name="quotesinglbase" unicode="&#x201a;" horiz-adv-x="323" 
d="M85 -148v75c40 12 53 30 53 73h-59v149h165v-131c0 -97 -54 -154 -159 -166z" />
    <glyph glyph-name="guillemotleft.case" horiz-adv-x="537" 
d="M366 132l-113 193l113 193h121l-114 -193l114 -193h-121zM172 132l-113 193l113 193h121l-114 -193l114 -193h-121z" />
    <glyph glyph-name="guillemotright.case" horiz-adv-x="537" 
d="M171 132h-121l114 193l-114 193h121l113 -193zM365 132h-121l114 193l-114 193h121l113 -193z" />
    <glyph glyph-name="guilsinglleft.case" horiz-adv-x="342" 
d="M172 132l-113 193l113 193h121l-114 -193l114 -193h-121z" />
    <glyph glyph-name="guilsinglright.case" horiz-adv-x="342" 
d="M170 132h-121l114 193l-114 193h121l113 -193z" />
    <glyph glyph-name="uni2003" unicode="&#x2003;" horiz-adv-x="908" 
 />
    <glyph glyph-name="uni2002" unicode="&#x2002;" horiz-adv-x="681" 
 />
    <glyph glyph-name="uni2007" unicode="&#x2007;" 
 />
    <glyph glyph-name="uni2005" unicode="&#x2005;" horiz-adv-x="227" 
 />
    <glyph glyph-name="uni200A" unicode="&#x200a;" horiz-adv-x="69" 
 />
    <glyph glyph-name="uni2008" unicode="&#x2008;" horiz-adv-x="318" 
 />
    <glyph glyph-name="uni00A0" unicode="&#xa0;" horiz-adv-x="255" 
 />
    <glyph glyph-name="uni2009" unicode="&#x2009;" horiz-adv-x="136" 
 />
    <glyph glyph-name="uni2004" unicode="&#x2004;" horiz-adv-x="318" 
 />
    <glyph glyph-name="uni200B" unicode="&#x200b;" horiz-adv-x="0" 
 />
    <glyph glyph-name="uniFEFF" unicode="&#xfeff;" horiz-adv-x="0" 
 />
    <glyph glyph-name="uni0E3F" unicode="&#xe3f;" horiz-adv-x="657" 
d="M363 0v-111h-66v111h-218v700h218v101h66v-101h20c121 0 208 -79 208 -188c0 -57 -27 -104 -71 -131v-2c60 -28 97 -88 97 -161c0 -143 -83 -215 -254 -218zM226 568v-147h71v147h-71zM363 568v-147c53 0 82 26 82 74c0 47 -29 73 -82 73zM226 132h71v172h-71v-172z
M471 219c0 55 -32 85 -91 85h-17v-172h16c63 0 92 28 92 87z" />
    <glyph glyph-name="cent" unicode="&#xa2;" horiz-adv-x="614" 
d="M446 205l134 -24c-19 -108 -103 -181 -222 -194v-98h-67v97c-148 12 -252 123 -252 279s104 267 252 279v87h67v-88c119 -13 203 -86 222 -194l-134 -24c-10 48 -39 78 -88 89v-298c49 10 78 40 88 89zM291 114v302c-69 -11 -112 -67 -112 -151s43 -140 112 -151z" />
    <glyph glyph-name="currency" unicode="&#xa4;" horiz-adv-x="574" 
d="M477 184l68 -67l-47 -45l-65 65c-40 -32 -91 -51 -146 -51c-56 0 -105 17 -147 50l-65 -64l-46 44l68 68c-29 42 -44 91 -44 146s14 104 42 145l-66 66l46 45l63 -63c40 33 92 52 149 52s107 -17 149 -52l63 63l46 -45l-67 -66c29 -43 43 -91 43 -145
c0 -55 -15 -104 -44 -146zM383 329c0 76 -34 119 -95 119c-64 0 -98 -42 -98 -119c0 -75 34 -116 98 -116c61 0 95 41 95 116z" />
    <glyph glyph-name="dollar" unicode="$" horiz-adv-x="649" 
d="M363 -15v-96h-66v98c-153 15 -247 97 -268 244l144 30c16 -88 53 -130 124 -142v185c-51 15 -93 30 -126 45c-65 31 -118 84 -118 169c0 114 103 193 244 197v86h66v-89c131 -17 216 -92 236 -203l-142 -30c-17 55 -46 87 -94 99v-154c51 -15 95 -32 130 -49
c71 -33 127 -93 127 -188c0 -115 -103 -196 -257 -202zM297 444v141c-61 -3 -100 -27 -100 -67c0 -32 35 -53 100 -74zM474 186c0 45 -39 72 -111 97v-168c71 3 111 30 111 71z" />
    <glyph glyph-name="Euro" unicode="&#x20ac;" horiz-adv-x="789" 
d="M617 270l143 -25c-16 -157 -138 -260 -305 -260c-160 0 -276 89 -319 236h-111v105h95c-1 5 -1 13 -1 24v23h-94v105h111c41 148 159 237 319 237c162 0 285 -102 303 -250l-142 -23c-19 91 -74 141 -161 141c-77 0 -135 -37 -166 -105h200v-105h-223
c-1 -5 -1 -12 -1 -23s0 -19 1 -24h164v-105h-141c31 -68 89 -104 166 -104c91 0 147 53 162 153z" />
    <glyph glyph-name="florin" unicode="&#x192;" horiz-adv-x="476" 
d="M312 565l-5 -35h130v-126h-153l-81 -460c-17 -96 -81 -145 -184 -145h-74v126h68c31 0 46 13 51 42l5 32h1l71 405h-114v126h137l9 59c17 96 80 145 184 145h94v-127h-88c-31 0 -46 -13 -51 -42z" />
    <glyph glyph-name="lira" unicode="&#x20a4;" horiz-adv-x="619" 
d="M452 365h148c0 -220 -124 -365 -310 -365h-148v295l-77 -28l-36 98l113 41v53l-77 -28l-36 99l113 41v129h148v-75l124 45l36 -98l-160 -59v-53l124 45l36 -97l-160 -59v-213c101 0 162 86 162 229z" />
    <glyph glyph-name="uni20BD" unicode="&#x20bd;" horiz-adv-x="698" 
d="M277 240v-57h169v-92h-169v-91h-148v91h-100v92h100v57h-100v91h100v369h287c149 0 243 -87 243 -231s-92 -229 -245 -229h-137zM277 565v-190h135c60 0 99 36 99 95c0 63 -33 95 -98 95h-136z" />
    <glyph glyph-name="uni20A8" unicode="&#x20a8;" horiz-adv-x="551" 
d="M522 611h-126v-2c26 -25 43 -55 51 -91h75v-87h-74c-12 -80 -61 -140 -134 -167v-2l142 -262h-159l-132 246h-116v134h145c53 0 87 17 102 51h-247v87h247c-15 31 -49 47 -102 47h-145v135h473v-89z" />
    <glyph glyph-name="sterling" unicode="&#xa3;" horiz-adv-x="633" 
d="M300 139v-2h290v-137h-531v137h39c63 0 103 34 103 87c0 19 -3 37 -9 52h-133v117h61c-28 40 -43 75 -43 118c0 124 101 204 256 204c153 0 257 -78 276 -203l-146 -27c-12 65 -52 95 -128 95c-64 0 -105 -30 -105 -79c0 -32 15 -59 46 -108h206v-117h-151
c3 -17 5 -31 5 -42c0 -39 -12 -71 -36 -95z" />
    <glyph glyph-name="uni20A9" unicode="&#x20a9;" horiz-adv-x="963" 
d="M953 444h-86l-13 -60h99v-88h-117l-62 -296h-148l-85 296h-117l-86 -296h-148l-62 296h-118v88h99l-12 60h-87v89h68l-35 167h142l34 -167h152l47 167h128l47 -167h152l34 167h141l-35 -167h68v-89zM236 444l12 -60h81l17 60h-110zM450 384h65l-17 60h-30zM715 384l12 60
h-109l17 -60h80zM283 222l21 74h-38l15 -74h2zM682 222l15 74h-38l21 -74h2z" />
    <glyph glyph-name="yen" unicode="&#xa5;" horiz-adv-x="617" 
d="M617 700l-199 -353h154v-105h-189v-47h189v-105h-189v-90h-148v90h-190v105h190v47h-190v105h155l-200 353h159l148 -286h2l150 286h158z" />
    <glyph glyph-name="uni0E3F.tnum" 
d="M353 0v-111h-66v111h-208v700h208v101h66v-101h13c120 0 209 -79 209 -188c0 -57 -27 -104 -72 -131v-2c61 -28 98 -88 98 -161c0 -141 -83 -213 -248 -218zM226 568v-147h61v147h-61zM353 568v-147c49 1 75 27 75 74c0 45 -26 72 -75 73zM226 132h61v172h-61v-172z
M454 219c0 55 -31 85 -91 85h-10v-172h9c63 0 92 28 92 87z" />
    <glyph glyph-name="cent.tnum" 
d="M461 205l134 -24c-19 -108 -103 -181 -222 -194v-98h-67v97c-148 12 -252 123 -252 279s104 267 252 279v87h67v-88c119 -13 203 -86 222 -194l-134 -24c-10 48 -39 78 -88 89v-298c49 10 78 40 88 89zM306 114v302c-69 -11 -112 -67 -112 -151s43 -140 112 -151z" />
    <glyph glyph-name="currency.tnum" 
d="M514 184l68 -67l-46 -45l-66 65c-41 -34 -90 -51 -146 -51c-57 0 -105 17 -146 50l-65 -64l-46 44l67 67c-29 43 -44 92 -44 147s14 104 42 145l-65 66l46 45l62 -63c42 35 92 52 149 52s106 -18 149 -53l64 64l45 -45l-66 -66c28 -41 42 -90 42 -145s-15 -104 -44 -146z
M421 329c0 76 -35 119 -96 119c-63 0 -98 -42 -98 -119c0 -75 35 -116 98 -116c61 0 96 43 96 116z" />
    <glyph glyph-name="dollar.tnum" 
d="M363 -15v-96h-66v98c-153 15 -247 97 -268 244l144 30c16 -88 53 -130 124 -142v185c-51 15 -93 30 -126 45c-65 31 -118 84 -118 169c0 114 103 193 244 197v86h66v-89c131 -17 216 -92 236 -203l-142 -30c-17 55 -46 87 -94 99v-154c51 -15 95 -32 130 -49
c71 -33 127 -93 127 -188c0 -115 -103 -196 -257 -202zM297 444v141c-61 -3 -100 -27 -100 -67c0 -32 35 -53 100 -74zM474 186c0 45 -39 72 -111 97v-168c71 3 111 30 111 71z" />
    <glyph glyph-name="Euro.tnum" 
d="M478 270l143 -23c-16 -157 -122 -262 -260 -262c-135 0 -233 88 -268 236h-83v105h69v24v23h-69v105h83c35 148 133 237 268 237s239 -101 257 -250l-142 -22c-15 88 -56 137 -115 137s-101 -35 -122 -102h156v-105h-173v-23v-24h124v-105h-106c21 -65 64 -101 121 -101
c61 0 102 53 117 150z" />
    <glyph glyph-name="florin.tnum" 
d="M439 565l-5 -35h130v-126h-153l-81 -460c-17 -96 -81 -145 -184 -145h-74v126h68c31 0 46 13 51 42l5 32h1l71 405h-114v126h137l9 59c17 96 80 145 184 145h94v-127h-88c-31 0 -46 -13 -51 -42z" />
    <glyph glyph-name="lira.tnum" 
d="M462 365h148c0 -220 -124 -365 -309 -365h-148v295l-77 -28l-36 98l113 41v53l-77 -28l-36 99l113 41v129h148v-75l123 45l36 -98l-159 -58v-54l123 45l36 -97l-159 -58v-214c101 0 161 86 161 229z" />
    <glyph glyph-name="uni20BD.tnum" 
d="M250 240v-57h151v-92h-151v-91h-148v91h-73v92h73v57h-73v91h73v369h266c149 0 243 -87 243 -231s-92 -229 -245 -229h-116zM250 565v-190h114c60 0 99 36 99 95c0 63 -33 95 -98 95h-115z" />
    <glyph glyph-name="uni20A8.tnum" 
d="M561 611h-126v-2c26 -25 43 -55 51 -91h75v-87h-73c-13 -80 -62 -140 -135 -167v-2l142 -262h-159l-132 246h-116v134h146c52 0 86 17 101 51h-247v87h247c-15 31 -48 47 -101 47h-146v135h473v-89z" />
    <glyph glyph-name="sterling.tnum" 
d="M290 139v-2h290v-137h-530v137h39c63 0 103 34 103 87c0 17 -3 34 -9 52h-133v117h61c-28 40 -43 75 -43 118c0 124 99 204 256 204c153 0 257 -78 276 -203l-146 -27c-12 65 -52 95 -128 95c-65 0 -105 -30 -105 -79c0 -32 15 -63 46 -108h206v-117h-152
c4 -15 6 -29 6 -42c0 -40 -12 -72 -37 -95z" />
    <glyph glyph-name="uni20A9.tnum" 
d="M650 466h-50l-8 -59h58v-89h-69l-40 -318h-131l-77 318h-16l-77 -318h-131l-40 318h-69v89h58l-8 59h-50v89h39l-18 145h134l14 -145h312l14 145h134l-18 -145h39v-89zM177 466l6 -59h60l14 59h-80zM468 407l5 59h-80l14 -59h61zM202 230l21 88h-31l8 -88h2zM451 230
l8 88h-31l21 -88h2z" />
    <glyph glyph-name="yen.tnum" 
d="M630 700l-195 -353h154v-105h-189v-47h189v-105h-189v-90h-149v90h-189v105h189v47h-189v105h154l-196 353h159l145 -288h2l145 288h159z" />
    <glyph glyph-name="uni207B" unicode="&#x207b;" horiz-adv-x="389" 
d="M49 167v83h290v-83h-290z" />
    <glyph glyph-name="plus" unicode="+" horiz-adv-x="609" 
d="M560 421v-114h-194v-210h-122v210h-195v114h195v209h122v-209h194z" />
    <glyph glyph-name="minus" unicode="&#x2212;" horiz-adv-x="559" 
d="M49 307v114h461v-114h-461z" />
    <glyph glyph-name="multiply" unicode="&#xd7;" horiz-adv-x="568" 
d="M130 106l-81 79l158 155l-158 156l81 77l154 -156l155 156l80 -77l-157 -156l157 -155l-80 -79l-155 156z" />
    <glyph glyph-name="divide" unicode="&#xf7;" horiz-adv-x="559" 
d="M182 581c0 56 42 98 97 98c56 0 98 -42 98 -98c0 -55 -42 -97 -98 -97c-53 0 -97 44 -97 97zM49 307v114h461v-114h-461zM182 141c0 55 42 98 97 98c56 0 98 -43 98 -98s-42 -97 -98 -97c-55 0 -97 42 -97 97z" />
    <glyph glyph-name="equal" unicode="=" horiz-adv-x="566" 
d="M49 389v115h467v-115h-467zM49 191v115h467v-115h-467z" />
    <glyph glyph-name="notequal" unicode="&#x2260;" horiz-adv-x="566" 
d="M516 389h-166l-47 -83h213v-115h-278l-68 -120l-65 38l46 82h-102v115h168l47 83h-215v115h280l67 119l65 -38l-46 -81h101v-115z" />
    <glyph glyph-name="greater" unicode="&#x3e;" horiz-adv-x="553" 
d="M115 75l-66 105l292 171l-292 170l66 105l389 -234v-83z" />
    <glyph glyph-name="less" unicode="&#x3c;" horiz-adv-x="553" 
d="M438 75l-389 234v83l389 234l66 -105l-292 -170l292 -171z" />
    <glyph glyph-name="greaterequal" unicode="&#x2265;" horiz-adv-x="552" 
d="M113 141l-61 98l297 173l-297 173l61 98l389 -232v-78zM49 0v117h453v-117h-453z" />
    <glyph glyph-name="lessequal" unicode="&#x2264;" horiz-adv-x="552" 
d="M439 141l-389 232v78l389 232l61 -98l-297 -173l297 -173zM503 0h-453v117h453v-117z" />
    <glyph glyph-name="plusminus" unicode="&#xb1;" horiz-adv-x="610" 
d="M366 511h194v-114h-194v-178h-122v178h-195v114h195v178h122v-178zM49 43v118h511v-118h-511z" />
    <glyph glyph-name="approxequal" unicode="&#x2248;" horiz-adv-x="683" 
d="M174 376l-125 47c31 105 92 161 184 161c48 0 85 -17 141 -46c40 -20 55 -27 72 -27c25 0 46 24 62 73l125 -47c-32 -107 -93 -161 -184 -161c-48 0 -85 17 -141 46c-36 20 -55 28 -72 28c-25 0 -46 -25 -62 -74zM174 129l-125 47c31 105 92 161 184 161
c48 0 85 -17 141 -46c40 -20 55 -27 72 -27c25 0 46 24 62 73l125 -47c-32 -107 -93 -161 -184 -161c-48 0 -85 17 -141 46c-36 20 -55 28 -72 28c-25 0 -46 -25 -62 -74z" />
    <glyph glyph-name="asciitilde" unicode="~" horiz-adv-x="712" 
d="M181 242l-132 49c32 111 98 169 194 169c49 0 91 -17 147 -48c36 -20 57 -29 76 -29c27 0 49 26 65 77l132 -49c-34 -113 -99 -169 -194 -169c-49 0 -91 17 -147 48c-36 20 -57 29 -76 29c-27 0 -49 -26 -65 -77z" />
    <glyph glyph-name="logicalnot" unicode="&#xac;" horiz-adv-x="662" 
d="M464 147v175h-415v136h563v-311h-148z" />
    <glyph glyph-name="infinity" unicode="&#x221e;" horiz-adv-x="703" 
d="M49 303c0 117 74 202 174 202c47 0 101 -30 129 -71c28 41 82 71 129 71c99 0 173 -85 173 -202s-74 -202 -173 -202c-47 0 -101 30 -129 71c-28 -41 -82 -71 -129 -71c-100 0 -174 85 -174 202zM316 303c-13 59 -43 89 -83 89c-43 0 -69 -33 -69 -89
c0 -55 26 -88 69 -88c40 0 70 31 83 88zM539 303c0 56 -26 89 -69 89c-40 0 -70 -30 -83 -89c13 -57 43 -88 83 -88c43 0 69 33 69 88z" />
    <glyph glyph-name="emptyset" unicode="&#x2205;" horiz-adv-x="855" 
d="M816 350c3 -207 -172 -369 -388 -365c-77 0 -146 18 -209 53l-89 -102l-78 64l87 99c-64 65 -100 152 -100 251c-4 207 172 369 389 365c76 0 145 -17 207 -52l91 103l78 -64l-89 -101c64 -65 101 -152 101 -251zM238 211l303 344c-35 17 -72 25 -113 25
c-137 0 -231 -92 -231 -230c0 -54 14 -100 41 -139zM659 350c0 55 -14 101 -41 140l-304 -345c35 -17 73 -25 114 -25c136 0 231 92 231 230z" />
    <glyph glyph-name="integral" unicode="&#x222b;" horiz-adv-x="481" 
d="M49 -240v136c87 1 117 28 117 100v509c0 177 71 240 266 240v-136c-87 -1 -118 -28 -118 -100v-509c0 -177 -70 -240 -265 -240z" />
    <glyph glyph-name="product" unicode="&#x220f;" horiz-adv-x="800" 
d="M156 -141v705h-132v136h752v-136h-132v-705h-148v705h-192v-705h-148z" />
    <glyph glyph-name="summation" unicode="&#x2211;" horiz-adv-x="618" 
d="M54 -100v121l246 279l-246 279v121h529v-136h-320l230 -264l-230 -264h320v-136h-529z" />
    <glyph glyph-name="radical" unicode="&#x221a;" horiz-adv-x="707" 
d="M536 700h166l-287 -700h-138l-125 300h-143v136h244l89 -233h2z" />
    <glyph glyph-name="partialdiff" unicode="&#x2202;" horiz-adv-x="580" 
d="M551 408c0 -280 -97 -424 -284 -424c-145 0 -238 96 -238 245c0 169 86 274 230 274c42 0 89 -9 140 -26c-10 117 -49 175 -118 175c-31 0 -63 -16 -95 -49l-89 96c57 59 120 89 189 89c163 0 265 -146 265 -380zM400 346c-43 18 -82 27 -116 27
c-71 0 -107 -49 -107 -146c0 -69 32 -107 91 -107c79 0 123 75 132 226z" />
    <glyph glyph-name="percent" unicode="%" horiz-adv-x="1063" 
d="M334 -90l-104 60l498 817l105 -60zM49 490c0 135 71 219 186 219c113 0 185 -84 185 -219s-72 -219 -185 -219c-115 0 -186 84 -186 219zM306 490c0 73 -26 113 -71 113c-47 0 -71 -40 -71 -113s24 -112 71 -112s71 39 71 112zM643 210c0 135 72 219 185 219
s186 -84 186 -219s-73 -219 -186 -219s-185 84 -185 219zM899 210c0 73 -26 113 -71 113s-71 -40 -71 -113s24 -112 71 -112s71 39 71 112z" />
    <glyph glyph-name="perthousand" unicode="&#x2030;" horiz-adv-x="1473" 
d="M334 -90l-104 60l498 817l105 -60zM49 490c0 135 71 219 186 219c113 0 185 -84 185 -219s-72 -219 -185 -219c-115 0 -186 84 -186 219zM306 490c0 73 -26 113 -71 113c-47 0 -71 -40 -71 -113s24 -112 71 -112s71 39 71 112zM643 210c0 135 72 219 185 219
s186 -84 186 -219s-73 -219 -186 -219s-185 84 -185 219zM1053 210c0 135 72 219 185 219s186 -84 186 -219s-73 -219 -186 -219s-185 84 -185 219zM899 210c0 73 -26 113 -71 113s-71 -40 -71 -113s24 -112 71 -112s71 39 71 112zM1309 210c0 73 -26 113 -71 113
s-71 -40 -71 -113s24 -112 71 -112s71 39 71 112z" />
    <glyph glyph-name="uni207A" unicode="&#x207a;" horiz-adv-x="429" 
d="M380 250v-83h-122v-130h-87v130h-122v83h122v126h87v-126h122z" />
    <glyph glyph-name="plus.tnum" 
d="M580 421v-114h-194v-210h-122v210h-195v114h195v209h122v-209h194z" />
    <glyph glyph-name="minus.tnum" 
d="M94 307v114h461v-114h-461z" />
    <glyph glyph-name="multiply.tnum" 
d="M171 106l-81 79l158 155l-158 156l81 77l154 -156l155 156l80 -77l-157 -156l157 -155l-80 -79l-155 156z" />
    <glyph glyph-name="divide.tnum" 
d="M227 581c0 56 42 98 97 98c56 0 98 -42 98 -98c0 -55 -42 -97 -98 -97c-53 0 -97 44 -97 97zM94 307v114h461v-114h-461zM227 141c0 55 42 98 97 98c56 0 98 -43 98 -98s-42 -97 -98 -97c-55 0 -97 42 -97 97z" />
    <glyph glyph-name="equal.tnum" 
d="M91 389v115h467v-115h-467zM91 191v115h467v-115h-467z" />
    <glyph glyph-name="notequal.tnum" 
d="M558 389h-166l-47 -83h213v-115h-278l-68 -120l-65 38l46 82h-102v115h168l47 83h-215v115h280l67 119l65 -38l-46 -81h101v-115z" />
    <glyph glyph-name="greater.tnum" 
d="M163 75l-66 105l292 171l-292 170l66 105l389 -234v-83z" />
    <glyph glyph-name="less.tnum" 
d="M486 75l-389 234v83l389 234l66 -105l-292 -170l292 -171z" />
    <glyph glyph-name="greaterequal.tnum" 
d="M162 141l-61 98l297 173l-297 173l61 98l389 -232v-78zM98 0v117h453v-117h-453z" />
    <glyph glyph-name="lessequal.tnum" 
d="M488 141l-389 232v78l389 232l61 -98l-297 -173l297 -173zM552 0h-453v117h453v-117z" />
    <glyph glyph-name="plusminus.tnum" 
d="M386 511h194v-114h-194v-178h-122v178h-195v114h195v178h122v-178zM69 43v118h511v-118h-511z" />
    <glyph glyph-name="approxequal.tnum" 
d="M159 376l-125 47c31 105 92 161 184 161c48 0 85 -17 141 -46c40 -20 55 -27 72 -27c25 0 46 24 62 73l125 -47c-32 -107 -93 -161 -184 -161c-48 0 -85 17 -141 46c-36 20 -55 28 -72 28c-25 0 -46 -25 -62 -74zM159 129l-125 47c31 105 92 161 184 161
c48 0 85 -17 141 -46c40 -20 55 -27 72 -27c25 0 46 24 62 73l125 -47c-32 -107 -93 -161 -184 -161c-48 0 -85 17 -141 46c-36 20 -55 28 -72 28c-25 0 -46 -25 -62 -74z" />
    <glyph glyph-name="percent.tnum" 
d="M9 660c0 135 72 219 191 219s190 -84 190 -219s-71 -219 -190 -219s-191 84 -191 219zM276 660c0 73 -25 113 -76 113s-76 -38 -76 -113s25 -112 76 -112s76 37 76 112zM123 170l-58 100l439 253l59 -100zM260 40c0 135 71 219 190 219s191 -84 191 -219
s-72 -219 -191 -219s-190 84 -190 219zM526 40c0 75 -25 113 -76 113s-76 -40 -76 -113s25 -113 76 -113s76 38 76 113z" />
    <glyph glyph-name="perthousand.tnum" 
d="M20 700c0 135 71 219 190 219s191 -84 191 -219s-72 -219 -191 -219s-190 84 -190 219zM286 700c0 75 -25 113 -76 113s-76 -40 -76 -113c0 -75 25 -112 76 -112s76 37 76 112zM73 246l-36 101l476 172l37 -100zM5 -10c0 135 71 219 190 219c36 0 65 -8 86 -23
c29 80 89 123 174 123c119 0 190 -84 190 -219s-71 -219 -190 -219c-35 0 -61 6 -86 23c-28 -80 -89 -123 -174 -123c-119 0 -190 84 -190 219zM531 90c0 75 -26 112 -78 112c-51 0 -77 -37 -77 -112s26 -113 77 -113c52 0 78 40 78 113zM274 -10c0 75 -26 112 -77 112
c-52 0 -78 -37 -78 -112c0 -73 26 -113 78 -113c51 0 77 38 77 113z" />
    <glyph glyph-name="arrowup" unicode="&#x2191;" horiz-adv-x="652" 
d="M613 381l-97 -97l-121 138v-402h-138v402l-121 -138l-97 97l287 299z" />
    <glyph glyph-name="uni2197" unicode="&#x2197;" horiz-adv-x="592" 
d="M39 188l294 292l-194 -11l-1 127l415 9l-9 -415l-127 1l11 202l-295 -300z" />
    <glyph glyph-name="arrowright" unicode="&#x2192;" horiz-adv-x="738" 
d="M400 633l299 -287l-299 -287l-94 94l143 128h-410v129h411l-144 129z" />
    <glyph glyph-name="uni2198" unicode="&#x2198;" horiz-adv-x="592" 
d="M39 510l94 95l295 -300l-11 202l127 1l9 -415l-415 9l1 127l194 -11z" />
    <glyph glyph-name="arrowdown" unicode="&#x2193;" horiz-adv-x="652" 
d="M516 417l97 -97l-287 -299l-287 299l97 97l121 -138v402h138v-402z" />
    <glyph glyph-name="uni2199" unicode="&#x2199;" horiz-adv-x="592" 
d="M553 513l-294 -292l194 11l1 -127l-415 -9l9 415l127 -1l-11 -202l295 300z" />
    <glyph glyph-name="arrowleft" unicode="&#x2190;" horiz-adv-x="738" 
d="M699 410v-129h-410l143 -128l-94 -94l-299 287l299 287l94 -94l-144 -129h411z" />
    <glyph glyph-name="uni2196" unicode="&#x2196;" horiz-adv-x="592" 
d="M553 188l-94 -95l-295 300l11 -202l-127 -1l-9 415l415 -9l-1 -127l-194 11z" />
    <glyph glyph-name="arrowboth" unicode="&#x2194;" horiz-adv-x="967" 
d="M629 632l299 -286l-299 -287l-90 90l149 134h-409l149 -134l-90 -90l-299 287l299 286l90 -89l-150 -135h411l-150 135z" />
    <glyph glyph-name="arrowupdn" unicode="&#x2195;" horiz-adv-x="653" 
d="M390 162l130 146l94 -95l-287 -299l-288 300l95 94l131 -147v378l-131 -147l-94 94l287 298l287 -298l-94 -94l-130 146v-376z" />
    <glyph glyph-name="uni21B3" unicode="&#x21b3;" horiz-adv-x="772" 
d="M434 633l299 -287l-299 -287l-94 94l143 128h-394v415h135v-286h260l-144 129z" />
    <glyph glyph-name="lozenge" unicode="&#x25ca;" horiz-adv-x="715" 
d="M282 0l-233 350l233 350h152l232 -350l-232 -350h-152zM358 118l154 232l-154 232l-154 -232z" />
    <glyph glyph-name="uniF8FF" unicode="&#xf8ff;" horiz-adv-x="686" 
d="M50 0v423c-4 154 139 295 292 292c155 3 298 -138 294 -292v-423h-28l-65 65l-68 -65l-63 65l-71 -65l-69 65l-63 -65l-67 65l-66 -65h-26zM287 377c0 40 -31 72 -71 72c-39 0 -71 -32 -71 -72c0 -39 32 -70 71 -70s71 31 71 70zM542 377c0 40 -32 72 -72 72
c-39 0 -70 -32 -70 -72c0 -37 33 -70 70 -70c39 0 72 33 72 70z" />
    <glyph glyph-name="at" unicode="@" horiz-adv-x="785" 
d="M49 292c-3 205 153 367 348 364c197 3 341 -146 338 -347c0 -149 -49 -224 -146 -224c-49 0 -82 16 -100 47h-2c-25 -29 -67 -47 -115 -47c-83 0 -134 45 -134 114c0 65 35 101 122 124c68 17 83 26 83 49c0 17 -16 30 -43 30c-33 0 -57 -20 -65 -57l-97 21
c15 80 77 128 162 128c88 0 150 -56 150 -151v-117c0 -40 11 -54 40 -54c35 0 52 46 52 137c0 157 -98 262 -245 262c-142 3 -257 -124 -254 -279c0 -180 90 -281 246 -281c65 0 109 10 172 39l34 -81c-67 -31 -125 -43 -206 -43c-213 0 -340 137 -340 366zM443 226v55h-1
c-4 -9 -11 -13 -62 -32c-24 -9 -35 -21 -35 -40c0 -21 13 -32 38 -32c35 0 60 20 60 49z" />
    <glyph glyph-name="ampersand" unicode="&#x26;" horiz-adv-x="697" 
d="M683 132l-86 -103l-58 49c-47 -60 -126 -93 -231 -93c-164 0 -259 76 -259 207c0 76 45 145 125 196c-51 47 -74 92 -74 147c0 105 86 180 209 180c121 0 203 -68 216 -179l-141 -18c-6 44 -31 66 -75 66c-41 0 -67 -20 -67 -53c0 -23 12 -38 48 -70l167 -140v104h132
v-214zM433 168l-164 140c-48 -27 -77 -64 -77 -101c0 -56 44 -90 117 -90c60 0 101 17 124 51z" />
    <glyph glyph-name="paragraph" unicode="&#xb6;" horiz-adv-x="687" 
d="M174 -136v519c-44 1 -81 16 -111 45c-29 29 -44 67 -44 113c0 99 67 159 159 159h429v-836h-148v698h-137v-698h-148z" />
    <glyph glyph-name="section" unicode="&#xa7;" horiz-adv-x="658" 
d="M555 -9c0 -104 -90 -187 -215 -187c-131 0 -216 77 -227 192l141 17c7 -49 35 -78 83 -78c45 0 71 24 71 56c0 17 -7 31 -21 42s-42 25 -84 42l-96 40c-103 43 -138 89 -138 157c0 51 28 97 85 136c-34 34 -51 74 -51 120c0 104 90 187 215 187c65 0 117 -18 158 -53
s64 -82 69 -139l-142 -17c-7 49 -34 78 -82 78c-45 0 -71 -23 -71 -56c0 -17 7 -31 21 -42s42 -25 83 -42l97 -40c103 -43 137 -88 137 -156c0 -52 -28 -98 -85 -137c35 -33 52 -73 52 -120zM288 222l109 -45l11 -4c32 24 43 41 43 64c0 20 -16 33 -81 60l-109 45l-11 5
c-32 -24 -44 -42 -44 -65c0 -20 15 -33 82 -60z" />
    <glyph glyph-name="copyright" unicode="&#xa9;" horiz-adv-x="694" 
d="M39 323c-3 171 133 311 308 308c177 3 310 -137 308 -308c3 -171 -133 -310 -308 -307c-175 -3 -311 136 -308 307zM579 323c0 131 -98 237 -232 237s-232 -106 -232 -237s98 -236 232 -236c133 0 232 107 232 236zM190 324c0 102 68 178 161 178c80 0 140 -52 151 -127
l-80 -16c-8 42 -32 63 -73 63c-44 0 -71 -37 -71 -98s27 -98 71 -98c41 0 65 21 73 63l80 -16c-11 -75 -71 -127 -151 -127c-93 0 -161 76 -161 178z" />
    <glyph glyph-name="registered" unicode="&#xae;" horiz-adv-x="694" 
d="M655 323c3 -171 -133 -310 -308 -307c-175 -3 -311 136 -308 307c-3 171 133 311 308 308c177 3 310 -137 308 -308zM579 323c0 131 -98 237 -232 237s-232 -106 -232 -237s98 -236 232 -236c133 0 232 107 232 236zM427 281l66 -128h-93l-54 119h-33v-119h-84v342h140
c85 0 129 -40 129 -107c0 -51 -24 -90 -71 -107zM313 428v-88h54c29 0 47 18 47 47c0 27 -16 41 -47 41h-54z" />
    <glyph glyph-name="uni2117" unicode="&#x2117;" horiz-adv-x="694" 
d="M39 323c-3 171 133 311 308 308c177 3 310 -137 308 -308c3 -171 -133 -310 -308 -307c-175 -3 -311 136 -308 307zM579 323c0 131 -98 237 -232 237s-232 -106 -232 -237s98 -236 232 -236c133 0 232 107 232 236zM246 150v342h137c75 0 118 -42 118 -119
c0 -76 -44 -117 -120 -117h-51v-106h-84zM330 326h37c39 0 50 11 50 47c0 32 -16 48 -48 48h-39v-95z" />
    <glyph glyph-name="trademark" unicode="&#x2122;" horiz-adv-x="831" 
d="M127 361v247h-98v92h298v-92h-98v-247h-102zM370 361v339h115l96 -218h1l95 218h115v-339h-96v182h-1l-84 -182h-60l-84 182h-1v-182h-96z" />
    <glyph glyph-name="degree" unicode="&#xb0;" horiz-adv-x="457" 
d="M29 516c0 108 86 189 199 189c114 0 200 -81 200 -189c0 -107 -86 -188 -200 -188c-113 0 -199 81 -199 188zM315 516c0 51 -35 85 -87 85c-51 0 -86 -34 -86 -85c0 -49 35 -84 86 -84c52 0 87 35 87 84z" />
    <glyph glyph-name="bar" unicode="|" horiz-adv-x="275" 
d="M89 -300v1075h97v-1075h-97z" />
    <glyph glyph-name="brokenbar" unicode="&#xa6;" horiz-adv-x="275" 
d="M89 350v425h97v-425h-97zM89 -300v425h97v-425h-97z" />
    <glyph glyph-name="dagger" unicode="&#x2020;" horiz-adv-x="667" 
d="M259 -196v588h-220v138h220v229h148v-229h221v-138h-221v-588h-148z" />
    <glyph glyph-name="daggerdbl" unicode="&#x2021;" horiz-adv-x="667" 
d="M259 -196v219h-220v137h220v232h-220v138h220v229h148v-229h221v-138h-221v-232h221v-137h-221v-219h-148z" />
    <glyph glyph-name="uni2116" unicode="&#x2116;" horiz-adv-x="1100" 
d="M682 490c0 132 72 219 187 219s186 -86 186 -219s-71 -219 -186 -219c-57 0 -102 20 -136 60s-51 93 -51 159zM69 0v700h152l237 -445h2v445h148v-700h-152l-237 445h-2v-445h-148zM943 490c0 69 -26 109 -74 109c-49 0 -74 -38 -74 -109s25 -109 74 -109
c48 0 74 40 74 109zM682 106v121h373v-121h-373z" />
    <glyph glyph-name="asciicircum" unicode="^" horiz-adv-x="620" 
d="M561 325h-135l-116 264l-116 -264h-135l175 375h152z" />
    <glyph glyph-name="at.case" horiz-adv-x="785" 
d="M49 351c-3 205 153 367 348 364c197 3 341 -146 338 -347c0 -149 -49 -224 -146 -224c-49 0 -82 16 -100 47h-2c-25 -29 -67 -47 -115 -47c-83 0 -134 45 -134 114c0 65 35 101 122 124c68 17 83 26 83 49c0 17 -16 30 -43 30c-33 0 -57 -20 -65 -57l-97 21
c15 80 77 128 162 128c88 0 150 -56 150 -151v-117c0 -40 11 -54 40 -54c35 0 52 46 52 137c0 157 -98 262 -245 262c-142 3 -257 -124 -254 -279c0 -180 90 -281 246 -281c65 0 109 10 172 39l34 -81c-67 -31 -125 -43 -206 -43c-213 0 -340 137 -340 366zM443 285v55h-1
c-4 -9 -11 -13 -62 -32c-24 -9 -35 -21 -35 -40c0 -21 13 -32 38 -32c35 0 60 20 60 49z" />
    <glyph glyph-name="uni0308" unicode="&#x308;" horiz-adv-x="0" 
d="M-337 580v128h130v-128h-130zM-130 580v128h130v-128h-130z" />
    <glyph glyph-name="uni0307" unicode="&#x307;" horiz-adv-x="0" 
d="M-130 590v128h130v-128h-130z" />
    <glyph glyph-name="gravecomb" unicode="&#x300;" horiz-adv-x="0" 
d="M-117 590l-122 138h147l92 -138h-117z" />
    <glyph glyph-name="acutecomb" unicode="&#x301;" horiz-adv-x="0" 
d="M-239 590l92 138h147l-122 -138h-117z" />
    <glyph glyph-name="uni030B" unicode="&#x30b;" horiz-adv-x="0" 
d="M-430 590l92 138h141l-121 -138h-112zM-234 590l92 138h142l-122 -138h-112z" />
    <glyph glyph-name="uni0302" unicode="&#x302;" horiz-adv-x="0" 
d="M0 628l-76 -58l-68 88l-69 -88l-76 58l70 88h149z" />
    <glyph glyph-name="uni030C" unicode="&#x30c;" horiz-adv-x="0" 
d="M-76 726l76 -58l-70 -88h-149l-70 88l76 58l69 -87z" />
    <glyph glyph-name="uni0306" unicode="&#x306;" horiz-adv-x="0" 
d="M-296 718h74c9 -32 36 -50 75 -50c37 0 65 18 73 50h74c-4 -84 -62 -138 -147 -138c-87 0 -145 54 -149 138z" />
    <glyph glyph-name="uni030A" unicode="&#x30a;" horiz-adv-x="0" 
d="M-301 598c0 39 14 71 43 96c28 25 64 38 107 38s79 -13 108 -38s43 -57 43 -96s-14 -71 -43 -96s-65 -38 -108 -38s-79 13 -107 38c-29 25 -43 57 -43 96zM-82 598c0 40 -28 68 -69 68c-40 0 -68 -28 -68 -68s28 -68 68 -68c41 0 69 28 69 68z" />
    <glyph glyph-name="tildecomb" unicode="&#x303;" horiz-adv-x="0" 
d="M-179 609c-4 1 -34 16 -50 16c-18 0 -29 -12 -34 -35h-70c3 73 41 118 98 118c28 0 50 -8 82 -23c21 -11 38 -16 49 -16c18 0 29 11 34 34h70c-3 -75 -41 -118 -97 -118c-27 0 -49 8 -82 24z" />
    <glyph glyph-name="uni0304" unicode="&#x304;" horiz-adv-x="0" 
d="M-317 590v87h317v-87h-317z" />
    <glyph glyph-name="uni0312" unicode="&#x312;" horiz-adv-x="0" 
d="M-5 825v-59c-36 -9 -48 -25 -48 -58h53v-118h-147v104c0 77 47 121 142 131z" />
    <glyph glyph-name="dotbelowcomb" unicode="&#x323;" horiz-adv-x="0" 
d="M-130 -177v128h130v-128h-130z" />
    <glyph glyph-name="uni0326" unicode="&#x326;" horiz-adv-x="0" 
d="M-126 -286v59c32 9 42 25 42 58h-47v118h131v-104c0 -77 -42 -121 -126 -131z" />
    <glyph glyph-name="uni0327" unicode="&#x327;" horiz-adv-x="0" 
d="M0 -135c0 -67 -47 -109 -120 -109c-43 0 -81 13 -114 40l46 65c24 -18 45 -27 63 -27c25 0 43 16 43 37c0 20 -15 32 -42 32c-19 0 -36 -7 -50 -21l-55 24l71 127l56 -28l-25 -42c8 1 15 2 20 2c63 0 107 -41 107 -100z" />
    <glyph glyph-name="uni0328" unicode="&#x328;" horiz-adv-x="0" 
d="M-215 -123c0 52 37 98 110 139l58 -16c-45 -29 -73 -64 -73 -93c0 -19 10 -28 29 -28c17 0 35 6 54 18l37 -81c-35 -19 -71 -28 -108 -28c-67 0 -107 33 -107 89z" />
    <glyph glyph-name="uni0335" unicode="&#x335;" horiz-adv-x="0" 
d="M-370 295v117h370v-117h-370z" />
    <glyph glyph-name="uni0336" unicode="&#x336;" horiz-adv-x="0" 
d="M-662 301v111h662v-111h-662z" />
    <glyph glyph-name="uni0337" unicode="&#x337;" horiz-adv-x="0" 
d="M-410 -13l-53 41l411 525l52 -41z" />
    <glyph glyph-name="_646" horiz-adv-x="0" 
d="M0 412l-214 -198v28l-138 -127l-49 52l187 173v-28l166 154z" />
    <glyph glyph-name="uni0338" unicode="&#x338;" horiz-adv-x="0" 
d="M-408 -40l-71 40l409 740l70 -40z" />
    <glyph glyph-name="_648" horiz-adv-x="0" 
d="M0 446l-279 -260v25l-140 -129l-49 52l215 199v-16l200 188z" />
    <glyph glyph-name="_649" horiz-adv-x="0" 
d="M-145 617v140h145v-140h-145z" />
    <glyph glyph-name="_650" horiz-adv-x="0" 
d="M-365 306v96h365v-96h-365z" />
    <glyph glyph-name="acute" unicode="&#xb4;" horiz-adv-x="337" 
d="M49 590l92 138h147l-122 -138h-117z" />
    <glyph glyph-name="breve" unicode="&#x2d8;" horiz-adv-x="379" 
d="M49 718h74c9 -32 36 -50 75 -50c37 0 65 18 73 50h74c-4 -84 -62 -138 -147 -138c-87 0 -145 54 -149 138z" />
    <glyph glyph-name="caron" unicode="&#x2c7;" horiz-adv-x="387" 
d="M262 726l76 -58l-70 -88h-149l-70 88l76 58l69 -87z" />
    <glyph glyph-name="cedilla" unicode="&#xb8;" horiz-adv-x="333" 
d="M283 -135c0 -67 -47 -109 -120 -109c-43 0 -81 13 -114 40l46 65c24 -18 45 -27 63 -27c25 0 43 16 43 37c0 20 -15 32 -42 32c-19 0 -36 -7 -50 -21l-55 24l71 127l56 -28l-25 -42c8 1 15 2 20 2c63 0 107 -41 107 -100z" />
    <glyph glyph-name="circumflex" unicode="&#x2c6;" horiz-adv-x="387" 
d="M338 628l-76 -58l-68 88l-69 -88l-76 58l70 88h149z" />
    <glyph glyph-name="dieresis" unicode="&#xa8;" horiz-adv-x="436" 
d="M49 580v128h130v-128h-130zM256 580v128h130v-128h-130z" />
    <glyph glyph-name="dotaccent" unicode="&#x2d9;" horiz-adv-x="229" 
d="M49 590v128h130v-128h-130z" />
    <glyph glyph-name="grave" unicode="`" horiz-adv-x="337" 
d="M171 590l-122 138h147l92 -138h-117z" />
    <glyph glyph-name="hungarumlaut" unicode="&#x2dd;" horiz-adv-x="534" 
d="M49 590l92 138h141l-121 -138h-112zM245 590l92 138h142l-122 -138h-112z" />
    <glyph glyph-name="macron" unicode="&#xaf;" horiz-adv-x="416" 
d="M49 590v87h317v-87h-317z" />
    <glyph glyph-name="ogonek" unicode="&#x2db;" horiz-adv-x="314" 
d="M45 -123c0 52 37 98 110 139l58 -16c-45 -29 -73 -64 -73 -93c0 -19 10 -28 29 -28c17 0 35 6 54 18l37 -81c-35 -19 -71 -28 -108 -28c-67 0 -107 33 -107 89z" />
    <glyph glyph-name="ring" unicode="&#x2da;" horiz-adv-x="399" 
d="M49 598c0 39 14 71 42 96c29 25 65 38 108 38s79 -13 108 -38s43 -57 43 -96s-14 -71 -43 -96s-65 -38 -108 -38s-79 13 -108 38c-28 25 -42 57 -42 96zM268 598c0 40 -28 68 -69 68c-40 0 -68 -28 -68 -68s28 -68 68 -68c41 0 69 28 69 68z" />
    <glyph glyph-name="tilde" unicode="&#x2dc;" horiz-adv-x="432" 
d="M203 609c-4 1 -34 16 -50 16c-18 0 -29 -12 -34 -35h-70c3 73 41 118 98 118c28 0 50 -8 82 -23c21 -11 38 -16 49 -16c18 0 29 11 34 34h70c-3 -75 -41 -118 -97 -118c-27 0 -49 8 -82 24z" />
    </font>
</defs>
</svg>
